<svg width="10" height="6" viewBox="0 0 10 6" fill="none" xmlns="http://www.w3.org/2000/svg">
<path d="M5.44351 5.21903L9.13751 1.52503C9.19038 1.46641 9.21873 1.38972 9.21669 1.31081C9.21466 1.23189 9.18241 1.15678 9.12659 1.10096C9.07077 1.04514 8.99564 1.01288 8.91673 1.01084C8.83781 1.00881 8.76113 1.03716 8.70251 1.09003L5.22451 4.56603L1.74851 1.09003C1.68989 1.03716 1.61321 1.00881 1.53429 1.01084C1.45538 1.01288 1.38026 1.04514 1.32444 1.10096C1.26862 1.15678 1.23636 1.23189 1.23433 1.31081C1.23229 1.38972 1.26064 1.46641 1.31351 1.52503L5.00751 5.21903C5.03612 5.24769 5.0701 5.27044 5.10751 5.28595C5.14491 5.30147 5.18501 5.30945 5.22551 5.30945C5.26601 5.30945 5.30611 5.30147 5.34352 5.28595C5.38092 5.27044 5.4149 5.24769 5.44351 5.21903Z" fill="#363B46" stroke="#363B46" stroke-width="0.6"/>
</svg>
