<svg width="31" height="37" viewBox="0 0 31 37" fill="none" xmlns="http://www.w3.org/2000/svg">
<path d="M21.8357 9.25073H27.3205H27.3209V9.32573C27.7012 9.32201 28.0205 9.61237 28.0525 9.99131L21.8357 9.25073ZM21.8357 9.25073V7.21865C21.8357 3.74268 19.0177 0.925 15.542 0.925C12.0661 0.925 9.24838 3.74268 9.24838 7.21865V9.25073L3.76318 9.25072L3.7629 9.25073C3.3458 9.2523 2.99755 9.569 2.95693 9.98401L2.95686 9.98482L1.04011 32.021L1.0401 32.0211C0.95115 33.0637 1.30345 34.0961 2.01184 34.8669C2.71993 35.6374 3.71879 36.0758 4.76548 36.0749M21.8357 9.25073L4.76542 35.9999M26.3257 36.0749C27.3724 36.0758 28.3713 35.6374 29.0793 34.8669C29.7877 34.0961 30.1403 33.0637 30.0514 32.0211L30.0514 32.021L28.1272 9.985L4.76542 35.9999M26.3257 36.0749L26.3258 35.9999V36.0749H26.3257ZM26.3257 36.0749H4.76548M4.76548 36.0749L4.76542 35.9999M4.76548 36.0749H4.76542V35.9999M27.8872 33.7766L27.8875 33.7763C28.2915 33.3368 28.4893 32.746 28.4314 32.1517L28.4313 32.1509L26.5791 10.8565H21.8357V15.2993C23.0164 15.6906 23.7486 16.8769 23.563 18.1127C23.3742 19.3666 22.297 20.2939 21.0291 20.2939C19.7611 20.2939 18.6836 19.3666 18.4952 18.1127C18.3092 16.8769 19.0414 15.6906 20.2225 15.2993V10.8565H10.8616V15.2993C12.0424 15.6906 12.7745 16.8769 12.5889 18.1127L12.5889 18.1127C12.4002 19.3666 11.323 20.2939 10.055 20.2939C8.78702 20.2939 7.70951 19.3666 7.52108 18.1127C7.52108 18.1127 7.52108 18.1127 7.52108 18.1127L7.59525 18.1016C7.41206 16.8841 8.14681 15.7161 9.32338 15.354L27.8872 33.7766ZM27.8872 33.7766C27.4877 34.2164 26.9202 34.4655 26.3263 34.4617H26.3258H4.75799C4.16372 34.4619 3.59678 34.2127 3.19488 33.775C2.79326 33.3369 2.59371 32.7504 2.64532 32.1583L2.64533 32.1583L4.49753 10.8639H9.24838V15.2993L27.8872 33.7766ZM10.8616 7.21865C10.8616 4.63372 12.9571 2.53821 15.542 2.53821C18.1269 2.53821 20.2225 4.63372 20.2225 7.21865V9.25073H10.8616V7.21865ZM9.10706 17.784C9.0802 17.2834 9.44739 16.8486 9.94466 16.7905C10.018 16.7995 10.092 16.7995 10.1653 16.7905C10.6623 16.8486 11.0298 17.2834 11.0029 17.784C10.9756 18.2878 10.5592 18.6824 10.055 18.6824C9.55042 18.6824 9.13407 18.2878 9.10706 17.784ZM20.0811 17.784C20.0543 17.2834 20.4215 16.8485 20.9187 16.7905C20.992 16.7995 21.0661 16.7995 21.1394 16.7905C21.6364 16.8485 22.0038 17.2834 21.977 17.784C21.9497 18.2878 21.5333 18.6824 21.0291 18.6824C20.5245 18.6824 20.1081 18.2878 20.0811 17.784Z" fill="#363B46" stroke="#363B46" stroke-width="0.15"/>
</svg>
