<svg width="20" height="20" viewBox="0 0 20 20" fill="none" xmlns="http://www.w3.org/2000/svg">
<path d="M14.4446 11.7502C14.1868 11.2927 13.8378 10.8929 13.4192 10.5757C13.0007 10.2584 12.5215 10.0304 12.0113 9.90577C11.5326 9.76215 11.0467 9.64347 10.5557 9.55022V4.51133C11.5319 4.61604 12.4632 4.9763 13.2557 5.55577C13.3105 5.60429 13.3742 5.64155 13.4433 5.66544C13.5124 5.68932 13.5856 5.69936 13.6586 5.69497C13.7316 5.69059 13.803 5.67187 13.8687 5.63988C13.9345 5.60789 13.9933 5.56327 14.0418 5.50855C14.0904 5.45383 14.1276 5.3901 14.1515 5.32098C14.1754 5.25186 14.1854 5.17871 14.181 5.10571C14.1767 5.03272 14.1579 4.9613 14.126 4.89554C14.094 4.82977 14.0493 4.77096 13.9946 4.72244C13.0003 3.95666 11.8064 3.49374 10.5557 3.38911V1.66688C10.5557 1.51954 10.4972 1.37823 10.393 1.27405C10.2888 1.16986 10.1475 1.11133 10.0002 1.11133C9.85284 1.11133 9.71153 1.16986 9.60734 1.27405C9.50315 1.37823 9.44462 1.51954 9.44462 1.66688V3.33355C7.00018 3.38911 5.65018 4.60577 5.23907 5.65577C4.96481 6.33191 4.93875 7.0833 5.16552 7.77681C5.39228 8.47032 5.85722 9.06117 6.47796 9.44466C7.38151 9.99546 8.39356 10.3442 9.44462 10.4669V15.5558C7.99424 15.4828 6.60484 14.9496 5.47796 14.0335C5.42767 13.9737 5.36531 13.9251 5.29497 13.891C5.22463 13.8569 5.14789 13.8381 5.06975 13.8357C4.99162 13.8332 4.91385 13.8474 4.84155 13.8771C4.76924 13.9068 4.70401 13.9514 4.65013 14.008C4.59625 14.0647 4.55492 14.132 4.52886 14.2057C4.5028 14.2794 4.49258 14.3578 4.49888 14.4357C4.50517 14.5136 4.52784 14.5893 4.5654 14.6579C4.60296 14.7264 4.65457 14.7863 4.71685 14.8335C6.0457 15.9523 7.70893 16.5973 9.44462 16.6669V18.3335C9.44462 18.4809 9.50315 18.6222 9.60734 18.7264C9.71153 18.8306 9.85284 18.8891 10.0002 18.8891C10.1475 18.8891 10.2888 18.8306 10.393 18.7264C10.4972 18.6222 10.5557 18.4809 10.5557 18.3335V16.6669C12.1224 16.5613 13.928 16.0613 14.6113 14.0224C14.7349 13.6515 14.7838 13.2597 14.7552 12.8697C14.7266 12.4797 14.6211 12.0992 14.4446 11.7502ZM7.10573 8.51133C6.70007 8.26985 6.39384 7.89158 6.24211 7.44453C6.09038 6.99748 6.10309 6.51096 6.27796 6.07244C6.33907 5.90577 6.96129 4.51133 9.44462 4.44466V9.33355C8.61587 9.22691 7.81891 8.94674 7.10573 8.51133ZM13.5557 13.6447C13.1557 14.8335 12.2668 15.4058 10.5557 15.5335V10.6835C10.9113 10.7613 11.278 10.8502 11.6668 10.9669C12.0342 11.0503 12.3808 11.2076 12.6854 11.4292C12.9901 11.6508 13.2465 11.932 13.4391 12.2558C13.657 12.686 13.6988 13.1841 13.5557 13.6447Z" fill="#363B46"/>
</svg>
