<svg width="16" height="14" viewBox="0 0 16 14" fill="none" xmlns="http://www.w3.org/2000/svg">
<path d="M8.53191 1.51L8.49791 0L7.43491 0.54L7.40391 1.516C3.26391 1.916 0.00390625 6.476 0.00390625 12.044C0.00390625 12.4027 0.0172395 12.757 0.0439062 13.107H1.49391C1.47991 12.851 1.47091 12.593 1.47091 12.332C1.47091 7.282 4.06391 3.132 7.37091 2.693L7.07091 12.178L8.75291 11.368L8.55291 2.694C11.8529 3.148 14.4389 7.288 14.4389 12.331C14.4389 12.592 14.4299 12.85 14.4159 13.106H15.9539C15.9806 12.7567 15.9939 12.4023 15.9939 12.043C15.9999 6.448 12.7019 1.867 8.53191 1.51Z" fill="#363B46"/>
</svg>
