<svg width="14" height="14" viewBox="0 0 14 14" fill="none" xmlns="http://www.w3.org/2000/svg">
<path d="M13.9253 11.7812C13.8919 11.7274 13.8482 11.6808 13.7967 11.6439C13.7452 11.607 13.687 11.5807 13.6253 11.5664C13.5636 11.5521 13.4997 11.5501 13.4372 11.5605C13.3748 11.571 13.315 11.5937 13.2613 11.6273C12.5286 12.0834 11.7029 12.3696 10.845 12.4646C9.98713 12.5595 9.11886 12.461 8.30408 12.1762C7.4893 11.8914 6.74874 11.4275 6.13688 10.8187C5.52502 10.2099 5.05742 9.47171 4.76849 8.65837H10.4031C10.5307 8.65837 10.6531 8.60768 10.7433 8.51744C10.8336 8.4272 10.8843 8.30481 10.8843 8.17719C10.8843 8.04958 10.8336 7.92719 10.7433 7.83695C10.6531 7.74671 10.5307 7.69602 10.4031 7.69602H4.51828C4.40236 7.05968 4.40236 6.40763 4.51828 5.7713H10.4031C10.5307 5.7713 10.6531 5.7206 10.7433 5.63036C10.8336 5.54012 10.8843 5.41773 10.8843 5.29012C10.8843 5.1625 10.8336 5.04011 10.7433 4.94987C10.6531 4.85963 10.5307 4.80894 10.4031 4.80894H4.76849C5.05651 3.99719 5.52249 3.26016 6.13229 2.65186C6.74208 2.04355 7.48025 1.57937 8.2927 1.29333C9.10514 1.00729 9.97129 0.906632 10.8277 0.998736C11.6841 1.09084 12.509 1.37337 13.2421 1.82563C13.3505 1.89326 13.4814 1.91504 13.606 1.88616C13.7305 1.85728 13.8385 1.78012 13.9061 1.67165C13.9737 1.56317 13.9955 1.43227 13.9666 1.30774C13.9377 1.18321 13.8606 1.07526 13.7521 1.00762C12.8724 0.463403 11.8792 0.129091 10.8494 0.030603C9.81968 -0.0678851 8.78109 0.0720961 7.81416 0.439695C6.84724 0.807293 5.97796 1.39263 5.27372 2.15034C4.56948 2.90804 4.04919 3.81775 3.7532 4.80894H0.481179C0.353563 4.80894 0.231173 4.85963 0.140934 4.94987C0.0506955 5.04011 0 5.1625 0 5.29012C0 5.41773 0.0506955 5.54012 0.140934 5.63036C0.231173 5.7206 0.353563 5.7713 0.481179 5.7713H3.54629C3.49765 6.08983 3.47192 6.41144 3.4693 6.73366C3.47192 7.05587 3.49765 7.37748 3.54629 7.69602H0.481179C0.353563 7.69602 0.231173 7.74671 0.140934 7.83695C0.0506955 7.92719 0 8.04958 0 8.17719C0 8.30481 0.0506955 8.4272 0.140934 8.51744C0.231173 8.60768 0.353563 8.65837 0.481179 8.65837H3.7532C4.04982 9.6519 4.57177 10.5635 5.27842 11.3223C5.98506 12.0811 6.85732 12.6665 7.82726 13.033C8.7972 13.3994 9.83864 13.5371 10.8705 13.4351C11.9023 13.3332 12.8967 12.9944 13.7762 12.4453C13.8296 12.4115 13.8758 12.3675 13.9122 12.3158C13.9486 12.2641 13.9744 12.2058 13.9883 12.1441C14.0022 12.0825 14.0037 12.0187 13.9929 11.9564C13.9821 11.8942 13.9591 11.8346 13.9253 11.7812Z" fill="#363B46"/>
</svg>
