<svg width="35" height="32" viewBox="0 0 35 32" fill="none" xmlns="http://www.w3.org/2000/svg">
<path d="M17.5 31.1388C17.0017 31.1388 16.5213 30.9583 16.147 30.6303C14.733 29.394 13.3699 28.2322 12.1672 27.2073L12.161 27.202C8.63491 24.1971 5.58998 21.6021 3.47137 19.0458C1.1031 16.1881 0 13.4785 0 10.5185C0 7.64263 0.986137 4.98943 2.77657 3.04733C4.58836 1.08227 7.07439 0 9.77753 0C11.7979 0 13.6481 0.638733 15.2767 1.89831C16.0986 2.5341 16.8436 3.31223 17.5 4.21986C18.1566 3.31223 18.9014 2.5341 19.7235 1.89831C21.3522 0.638733 23.2024 0 25.2227 0C27.9256 0 30.4119 1.08227 32.2237 3.04733C34.0141 4.98943 35 7.64263 35 10.5185C35 13.4785 33.8972 16.1881 31.5289 19.0456C29.4103 21.6021 26.3656 24.1968 22.84 27.2014C21.6352 28.2279 20.2699 29.3916 18.8528 30.6309C18.4787 30.9583 17.998 31.1388 17.5 31.1388ZM9.77753 2.05025C7.65385 2.05025 5.70293 2.8978 4.28368 4.43695C2.84332 5.99934 2.04998 8.15907 2.04998 10.5185C2.04998 13.008 2.97523 15.2345 5.04978 17.7377C7.0549 20.1572 10.0373 22.6988 13.4906 25.6417L13.497 25.647C14.7042 26.6759 16.0727 27.8423 17.4971 29.0877C18.9299 27.8399 20.3006 26.6716 21.5102 25.6412C24.9632 22.6982 27.9454 20.1572 29.9505 17.7377C32.0248 15.2345 32.95 13.008 32.95 10.5185C32.95 8.15907 32.1567 5.99934 30.7163 4.43695C29.2973 2.8978 27.3462 2.05025 25.2227 2.05025C23.667 2.05025 22.2387 2.54478 20.9775 3.51997C19.8536 4.38942 19.0707 5.48851 18.6116 6.25755C18.3756 6.65302 17.9601 6.88908 17.5 6.88908C17.0399 6.88908 16.6244 6.65302 16.3884 6.25755C15.9296 5.48851 15.1467 4.38942 14.0225 3.51997C12.7613 2.54478 11.333 2.05025 9.77753 2.05025Z" fill="#363B46"/>
</svg>
