<svg width="100" height="62" viewBox="0 0 100 62" fill="none" xmlns="http://www.w3.org/2000/svg">
<path d="M11.6575 59.1796L1.0969 45.8202H0.0292969V61.1706H1.0969V47.5514L11.9172 61.1706H12.7539V45.8202H11.6575V59.1796Z" fill="black"/>
<path d="M29.7203 45.7336L22.5645 61.1705H23.7475L25.6807 56.9001L26.2001 55.8037L30.2396 46.9743L34.2504 55.8325L34.7409 56.8713L36.703 61.1705H37.9437L30.8167 45.7336H29.7203Z" fill="black"/>
<path d="M54.7944 45.5605C50.1489 45.5605 47.0615 49.3115 47.0615 53.4954V53.5531C47.0615 57.7369 50.0912 61.4302 54.7367 61.4302C59.3822 61.4302 62.4696 57.6792 62.4696 53.4954V53.4377C62.4985 49.2827 59.4399 45.5605 54.7944 45.5605ZM61.3154 53.5531C61.3154 57.333 58.6032 60.4203 54.8233 60.4203C51.0434 60.4203 48.2734 57.3041 48.2734 53.5242V53.4665C48.2734 49.6866 50.9857 46.5992 54.7656 46.5992C58.5454 46.5992 61.3154 49.7155 61.3154 53.4954V53.5531Z" fill="black"/>
<path d="M80.1569 54.9092L74.011 45.8202H72.9434V61.1706H74.0398V47.84L80.0992 56.6693H80.1857L86.2451 47.84V61.1706H87.3992V45.8202H86.3028L80.1569 54.9092Z" fill="black"/>
<path d="M99.7776 45.8202H98.6523V61.1417H99.7776V45.8202Z" fill="black"/>
<path d="M32.4902 11.0511V28.4212C32.4902 29.258 32.9519 30.037 33.6733 30.4699L48.7062 39.1549C49.4276 39.5877 50.3509 39.5877 51.0723 39.1549L66.1052 30.4699C66.8266 30.037 67.2883 29.258 67.2883 28.4212V11.0511C67.2883 10.2143 66.8266 9.43524 66.1052 9.00242L51.0723 0.317345C50.3509 -0.115466 49.4276 -0.115466 48.7062 0.317345L33.6733 9.00242C32.923 9.43524 32.4902 10.2143 32.4902 11.0511Z" fill="black"/>
<path d="M55.1698 25.4205L44.5803 12.061H43.5127V27.4114H44.6092V13.7923L55.4006 27.4114H56.2662V12.061H55.1698V25.4205Z" fill="white"/>
</svg>
