<svg width="14" height="14" viewBox="0 0 14 14" fill="none" xmlns="http://www.w3.org/2000/svg">
<path d="M12.9256 12.526L9.2857 8.88617C10.1147 7.96532 10.5514 6.75714 10.5027 5.51904C10.454 4.28094 9.92381 3.11079 9.02501 2.2579C8.1262 1.40501 6.92988 0.93681 5.69093 0.953045C4.45197 0.969281 3.26833 1.46867 2.39218 2.34482C1.51603 3.22097 1.01664 4.40461 1.00041 5.64356C0.984173 6.88252 1.45238 8.07884 2.30526 8.97764C3.15815 9.87645 4.3283 10.4067 5.5664 10.4554C6.80451 10.5041 8.01268 10.0674 8.93353 9.23834L12.5749 12.8767C12.598 12.8998 12.6255 12.9182 12.6557 12.9307C12.6859 12.9432 12.7183 12.9496 12.751 12.9496C12.7837 12.9496 12.8161 12.9432 12.8463 12.9307C12.8765 12.9182 12.9039 12.8998 12.9271 12.8767C12.9502 12.8536 12.9685 12.8261 12.981 12.7959C12.9936 12.7657 13 12.7333 13 12.7006C13 12.6679 12.9936 12.6355 12.981 12.6053C12.9685 12.5751 12.9502 12.5477 12.9271 12.5245L12.9256 12.526ZM5.7722 9.96063C4.93415 9.96063 4.11491 9.71212 3.41809 9.24652C2.72128 8.78092 2.17817 8.11915 1.85746 7.34488C1.53675 6.57062 1.45284 5.71864 1.61634 4.89669C1.77983 4.07474 2.18339 3.31973 2.77599 2.72713C3.36858 2.13454 4.1236 1.73097 4.94555 1.56748C5.7675 1.40398 6.61948 1.48789 7.39374 1.8086C8.16801 2.12931 8.82978 2.67242 9.29538 3.36923C9.76098 4.06605 10.0095 4.88529 10.0095 5.72334C10.0083 6.84678 9.56149 7.92386 8.76711 8.71825C7.97272 9.51263 6.89564 9.95944 5.7722 9.96063Z" fill="white" stroke="white" stroke-width="0.6"/>
</svg>
