<svg width="15" height="12" viewBox="0 0 15 12" fill="none" xmlns="http://www.w3.org/2000/svg">
<path d="M10.1 0.890497C10.0515 0.838356 9.99299 0.796491 9.92798 0.767385C9.86296 0.73828 9.79277 0.722527 9.72155 0.72106C9.65033 0.719593 9.57955 0.732443 9.51339 0.758847C9.44724 0.785251 9.38706 0.824672 9.33642 0.874771C9.28579 0.92487 9.24573 0.984628 9.21862 1.0505C9.19151 1.11637 9.17791 1.18702 9.17862 1.25824C9.17933 1.32947 9.19434 1.39983 9.22275 1.46515C9.25116 1.53047 9.2924 1.58942 9.34402 1.6385L13.177 5.4715H0.529024C0.459396 5.47123 0.390405 5.48477 0.326039 5.51132C0.261673 5.53787 0.203206 5.57692 0.154018 5.6262C0.10483 5.67548 0.065895 5.73402 0.0394632 5.79844C0.0130314 5.86285 -0.000373295 5.93187 2.3577e-05 6.0015C-0.000635735 6.07153 0.0125388 6.141 0.0387915 6.20593C0.0650441 6.27086 0.103858 6.32996 0.153007 6.37985C0.202155 6.42974 0.260671 6.46944 0.325198 6.49667C0.389724 6.52389 0.45899 6.53811 0.529024 6.5385H13.178L9.34502 10.3645C9.24679 10.4658 9.19185 10.6014 9.19185 10.7425C9.19185 10.8836 9.24679 11.0192 9.34502 11.1205C9.39435 11.1707 9.45318 11.2106 9.51808 11.2378C9.58298 11.265 9.65265 11.279 9.72302 11.279C9.7934 11.279 9.86307 11.265 9.92797 11.2378C9.99287 11.2106 10.0517 11.1707 10.101 11.1205L14.842 6.3795C14.8921 6.33093 14.9319 6.2728 14.9591 6.20855C14.9863 6.14431 15.0003 6.07526 15.0003 6.0055C15.0003 5.93574 14.9863 5.86668 14.9591 5.80244C14.9319 5.7382 14.8921 5.68007 14.842 5.6315L10.1 0.890497Z" fill="#6C8685"/>
</svg>
