<svg width="42" height="42" viewBox="0 0 42 42" fill="none" xmlns="http://www.w3.org/2000/svg">
<path d="M18.9 16.1696C18.9485 16.1174 19.007 16.0755 19.072 16.0464C19.137 16.0173 19.2072 16.0016 19.2785 16.0001C19.3497 15.9986 19.4205 16.0115 19.4866 16.0379C19.5528 16.0643 19.6129 16.1037 19.6636 16.1538C19.7142 16.2039 19.7543 16.2637 19.7814 16.3296C19.8085 16.3954 19.8221 16.4661 19.8214 16.5373C19.8207 16.6085 19.8057 16.6789 19.7773 16.7442C19.7488 16.8095 19.7076 16.8685 19.656 16.9175L15.823 20.7505H28.471C28.5406 20.7503 28.6096 20.7638 28.674 20.7904C28.7383 20.8169 28.7968 20.856 28.846 20.9053C28.8952 20.9545 28.9341 21.0131 28.9605 21.0775C28.987 21.1419 29.0004 21.2109 29 21.2806C29.0006 21.3506 28.9875 21.4201 28.9612 21.485C28.935 21.5499 28.8961 21.609 28.847 21.6589C28.7978 21.7088 28.7393 21.7485 28.6748 21.7757C28.6103 21.8029 28.541 21.8172 28.471 21.8176H15.822L19.655 25.6435C19.7532 25.7449 19.8081 25.8804 19.8081 26.0216C19.8081 26.1627 19.7532 26.2982 19.655 26.3995C19.6056 26.4497 19.5468 26.4896 19.4819 26.5168C19.417 26.544 19.3474 26.558 19.277 26.558C19.2066 26.558 19.1369 26.544 19.072 26.5168C19.0071 26.4896 18.9483 26.4497 18.899 26.3995L14.158 21.6585C14.1079 21.61 14.0681 21.5519 14.0409 21.4876C14.0137 21.4234 13.9997 21.3543 13.9997 21.2846C13.9997 21.2148 14.0137 21.1457 14.0409 21.0815C14.0681 21.0172 14.1079 20.9591 14.158 20.9106L18.9 16.1696Z" fill="#6C8685"/>
<rect x="-0.5" y="0.5" width="41" height="41" rx="20.5" transform="matrix(-1 0 0 1 41 0)" stroke="#6C8685" stroke-opacity="0.2"/>
</svg>
