<svg width="42" height="42" viewBox="0 0 42 42" fill="none" xmlns="http://www.w3.org/2000/svg">
<path d="M23.1 16.1696C23.0515 16.1174 22.993 16.0755 22.928 16.0464C22.863 16.0173 22.7928 16.0016 22.7215 16.0001C22.6503 15.9986 22.5795 16.0115 22.5134 16.0379C22.4472 16.0643 22.3871 16.1037 22.3364 16.1538C22.2858 16.2039 22.2457 16.2637 22.2186 16.3296C22.1915 16.3954 22.1779 16.4661 22.1786 16.5373C22.1793 16.6085 22.1943 16.6789 22.2227 16.7442C22.2512 16.8095 22.2924 16.8685 22.344 16.9175L26.177 20.7505H13.529C13.4594 20.7503 13.3904 20.7638 13.326 20.7904C13.2617 20.8169 13.2032 20.856 13.154 20.9053C13.1048 20.9545 13.0659 21.0131 13.0395 21.0775C13.013 21.1419 12.9996 21.2109 13 21.2806C12.9994 21.3506 13.0125 21.4201 13.0388 21.485C13.065 21.5499 13.1039 21.609 13.153 21.6589C13.2022 21.7088 13.2607 21.7485 13.3252 21.7757C13.3897 21.8029 13.459 21.8172 13.529 21.8176H26.178L22.345 25.6435C22.2468 25.7449 22.1919 25.8804 22.1919 26.0216C22.1919 26.1627 22.2468 26.2982 22.345 26.3995C22.3944 26.4497 22.4532 26.4896 22.5181 26.5168C22.583 26.544 22.6526 26.558 22.723 26.558C22.7934 26.558 22.8631 26.544 22.928 26.5168C22.9929 26.4896 23.0517 26.4497 23.101 26.3995L27.842 21.6585C27.8921 21.61 27.9319 21.5519 27.9591 21.4876C27.9863 21.4234 28.0003 21.3543 28.0003 21.2846C28.0003 21.2148 27.9863 21.1457 27.9591 21.0815C27.9319 21.0172 27.8921 20.9591 27.842 20.9106L23.1 16.1696Z" fill="#6C8685"/>
<rect x="0.5" y="0.5" width="41" height="41" rx="20.5" stroke="#6C8685" stroke-opacity="0.2"/>
</svg>
