<svg width="42" height="43" viewBox="0 0 42 43" fill="none" xmlns="http://www.w3.org/2000/svg">
<path d="M16.8985 17.8658C16.9001 18.9535 17.3326 19.9961 18.1011 20.7652C18.8697 21.5343 19.9116 21.967 20.9985 21.9686C21.4853 21.9686 21.9611 22.1131 22.3658 22.3837C22.7705 22.6543 23.0859 23.0389 23.2722 23.4889C23.4585 23.9389 23.5072 24.434 23.4122 24.9118C23.3173 25.3895 23.0829 25.8283 22.7387 26.1727C22.3945 26.5171 21.956 26.7516 21.4786 26.8467C21.0012 26.9417 20.5064 26.8929 20.0567 26.7065C19.607 26.5201 19.2227 26.2045 18.9523 25.7995C18.6818 25.3945 18.5375 24.9184 18.5375 24.4313C18.5375 24.2135 18.451 24.0047 18.2972 23.8507C18.1433 23.6967 17.9346 23.6102 17.717 23.6102C17.4994 23.6102 17.2907 23.6967 17.1368 23.8507C16.9829 24.0047 16.8965 24.2135 16.8965 24.4313C16.8978 25.377 17.2248 26.2933 17.8225 27.0259C18.4201 27.7585 19.2518 28.2625 20.1775 28.4531V30.1772C20.1775 30.395 20.2639 30.6038 20.4178 30.7578C20.5717 30.9118 20.7804 30.9983 20.998 30.9983C21.2156 30.9983 21.4243 30.9118 21.5782 30.7578C21.7321 30.6038 21.8185 30.395 21.8185 30.1772V28.4531C22.8183 28.2538 23.708 27.689 24.3142 26.8689C24.9204 26.0487 25.1995 25.032 25.097 24.0171C24.9946 23.0021 24.518 22.0618 23.7603 21.3794C23.0025 20.6971 22.0179 20.3217 20.9985 20.3265C20.5118 20.3265 20.036 20.1821 19.6312 19.9115C19.2265 19.6409 18.9111 19.2562 18.7248 18.8062C18.5386 18.3562 18.4898 17.8611 18.5848 17.3834C18.6797 16.9057 18.9141 16.4668 19.2583 16.1224C19.6025 15.778 20.041 15.5435 20.5184 15.4485C20.9958 15.3534 21.4906 15.4022 21.9403 15.5886C22.39 15.775 22.7743 16.0906 23.0448 16.4956C23.3152 16.9006 23.4595 17.3767 23.4595 17.8638C23.4595 18.0816 23.546 18.2904 23.6998 18.4444C23.8537 18.5984 24.0624 18.6849 24.28 18.6849C24.4976 18.6849 24.7063 18.5984 24.8602 18.4444C25.0141 18.2904 25.1005 18.0816 25.1005 17.8638C25.0992 16.9181 24.7722 16.0018 24.1745 15.2692C23.5769 14.5367 22.7452 14.0326 21.8195 13.8421V12.1199C21.8195 11.9021 21.7331 11.6933 21.5792 11.5393C21.4253 11.3853 21.2166 11.2988 20.999 11.2988C20.7814 11.2988 20.5727 11.3853 20.4188 11.5393C20.265 11.6933 20.1785 11.9021 20.1785 12.1199V13.8441C19.253 14.0348 18.4215 14.5389 17.8241 15.2715C17.2266 16.004 16.8997 16.9203 16.8985 17.8658Z" fill="#2C5B5A"/>
<path d="M21 0.135742C15.461 0.233413 10.176 2.47877 6.25874 6.39874C2.34143 10.3187 0.0976043 15.6072 0 21.15C0.0976043 26.6928 2.34143 31.9813 6.25874 35.9013C10.176 39.8213 15.461 42.0666 21 42.1643C26.539 42.0666 31.824 39.8213 35.7413 35.9013C39.6586 31.9813 41.9024 26.6928 42 21.15C41.9024 15.6072 39.6586 10.3187 35.7413 6.39874C31.824 2.47877 26.539 0.233413 21 0.135742V0.135742ZM21 40.5222C10.687 40.5222 1.641 31.47 1.641 21.15C1.641 10.83 10.687 1.77786 21 1.77786C31.313 1.77786 40.359 10.83 40.359 21.15C40.359 31.47 31.313 40.5222 21 40.5222Z" fill="#2C5B5A"/>
<path d="M24.4569 5.46854C24.3518 5.44364 24.2429 5.43968 24.1363 5.45691C24.0297 5.47413 23.9276 5.5122 23.8357 5.56893C23.7438 5.62566 23.664 5.69994 23.6008 5.78754C23.5376 5.87514 23.4923 5.97433 23.4674 6.07946C23.4425 6.18459 23.4385 6.29359 23.4558 6.40025C23.473 6.5069 23.511 6.60913 23.5677 6.70107C23.6244 6.79302 23.6986 6.87289 23.7862 6.93613C23.8737 6.99937 23.9728 7.04473 24.0779 7.06963C27.5568 7.82509 30.6335 9.84158 32.7158 12.7309C34.798 15.6203 35.7386 19.1783 35.3566 22.7201C34.9745 26.2618 33.2967 29.5369 30.6462 31.915C27.9957 34.2931 24.5598 35.6061 20.9999 35.6011C17.4367 35.6107 13.9962 34.2998 11.3418 31.9212C8.68733 29.5427 7.0069 26.2649 6.62452 22.7199C6.24213 19.1749 7.18488 15.6138 9.27097 12.7231C11.3571 9.83254 14.4388 7.81717 17.9219 7.06563C18.0269 7.04073 18.1261 6.99537 18.2136 6.93213C18.3011 6.86889 18.3754 6.78901 18.4321 6.69707C18.4888 6.60512 18.5268 6.5029 18.544 6.39625C18.5612 6.28959 18.5573 6.18058 18.5324 6.07546C18.5075 5.97033 18.4622 5.87113 18.399 5.78353C18.3358 5.69593 18.2559 5.62165 18.1641 5.56492C18.0722 5.50819 17.97 5.47013 17.8635 5.45291C17.7569 5.43568 17.6479 5.43963 17.5429 5.46453C14.0104 6.33056 10.8609 8.33558 8.57998 11.1703C6.2991 14.0051 5.01364 17.512 4.92188 21.1503C5.02464 25.385 6.75155 29.4178 9.74477 32.4131C12.738 35.4083 16.7681 37.1364 20.9999 37.2393C25.2317 37.1364 29.2618 35.4083 32.255 32.4131C35.2482 29.4178 36.9751 25.385 37.0779 21.1503C36.9852 17.5127 35.6994 14.0067 33.4186 11.1727C31.1378 8.33881 27.9887 6.33438 24.4569 5.46854Z" fill="#2C5B5A"/>
<path d="M20.9996 6.78467C21.4525 6.78467 21.8196 6.41718 21.8196 5.96387C21.8196 5.51055 21.4525 5.14307 20.9996 5.14307C20.5468 5.14307 20.1797 5.51055 20.1797 5.96387C20.1797 6.41718 20.5468 6.78467 20.9996 6.78467Z" fill="#2C5B5A"/>
</svg>
