<svg width="36" height="49" viewBox="0 0 36 49" fill="none" xmlns="http://www.w3.org/2000/svg">
<path d="M3.75 17.9585C3.75 20.7416 4.57472 23.4622 6.11987 25.7762C7.66503 28.0903 9.86121 29.8939 12.4307 30.9589C15.0002 32.0239 17.8276 32.3026 20.5554 31.7596C23.2831 31.2167 25.7887 29.8765 27.7553 27.9086C29.722 25.9406 31.0612 23.4333 31.6038 20.7037C32.1464 17.9741 31.8679 15.1448 30.8036 12.5736C29.7393 10.0023 27.9369 7.80464 25.6244 6.25844C23.312 4.71224 20.5932 3.88696 17.812 3.88696C14.0838 3.8912 10.5096 5.37509 7.87334 8.0131C5.23712 10.6511 3.75423 14.2278 3.75 17.9585ZM17.812 5.76323C20.2224 5.76323 22.5786 6.47847 24.5827 7.8185C26.5869 9.15854 28.1489 11.0632 29.0713 13.2916C29.9937 15.52 30.2351 17.972 29.7648 20.3377C29.2946 22.7033 28.1339 24.8763 26.4295 26.5818C24.7251 28.2874 22.5536 29.4489 20.1896 29.9194C17.8255 30.39 15.3751 30.1485 13.1482 29.2254C10.9214 28.3024 9.01801 26.7393 7.67888 24.7338C6.33976 22.7283 5.625 20.3705 5.625 17.9585C5.62844 14.7252 6.91353 11.6253 9.19829 9.33895C11.4831 7.05264 14.5809 5.76668 17.812 5.76323Z" fill="#2C5B5A"/>
<path d="M9.12977 16.2916L12.7638 19.874L11.9278 24.9093C11.8993 25.0812 11.9193 25.2576 11.9853 25.4187C12.0514 25.5799 12.161 25.7195 12.3018 25.8219C12.4426 25.9243 12.6092 25.9855 12.7828 25.9986C12.9564 26.0116 13.1302 25.9761 13.2848 25.896L17.8118 23.5434L22.3388 25.896C22.4934 25.9761 22.6672 26.0116 22.8408 25.9986C23.0144 25.9855 23.1809 25.9243 23.3218 25.8219C23.4626 25.7195 23.5722 25.5799 23.6382 25.4187C23.7043 25.2576 23.7242 25.0812 23.6958 24.9093L22.8598 19.874L26.4938 16.2916C26.618 16.1694 26.7058 16.0149 26.7471 15.8455C26.7885 15.6762 26.7819 15.4986 26.7279 15.3328C26.674 15.167 26.575 15.0196 26.4419 14.907C26.3089 14.7944 26.1471 14.7212 25.9748 14.6955L20.9318 13.936L18.6498 9.36998C18.572 9.21401 18.4524 9.08281 18.3043 8.99111C18.1562 8.8994 17.9854 8.85083 17.8113 8.85083C17.6371 8.85083 17.4664 8.8994 17.3183 8.99111C17.1702 9.08281 17.0505 9.21401 16.9728 9.36998L14.6908 13.936L9.64776 14.6955C9.47543 14.7212 9.31365 14.7944 9.18061 14.907C9.04757 15.0196 8.94853 15.167 8.89462 15.3328C8.84071 15.4986 8.83405 15.6762 8.87542 15.8455C8.91678 16.0149 9.00451 16.1694 9.12876 16.2916H9.12977ZM15.4518 15.7192C15.6007 15.6969 15.742 15.6391 15.8638 15.5506C15.9857 15.4621 16.0844 15.3456 16.1518 15.2109L17.8128 11.8867L19.4738 15.2109C19.5411 15.3456 19.6399 15.4621 19.7617 15.5506C19.8836 15.6391 20.0249 15.6969 20.1738 15.7192L23.8448 16.2726L21.1998 18.8803C21.0927 18.986 21.0126 19.1159 20.9661 19.259C20.9196 19.4021 20.9082 19.5544 20.9328 19.7028L21.5418 23.3673L18.2418 21.6551C18.1083 21.5858 17.9602 21.5495 17.8098 21.5495C17.6594 21.5495 17.5112 21.5858 17.3778 21.6551L14.0778 23.3673L14.6868 19.7028C14.7115 19.5544 14.7002 19.4021 14.6537 19.2589C14.6072 19.1158 14.527 18.9859 14.4198 18.8803L11.7748 16.2726L15.4518 15.7192Z" fill="#2C5B5A"/>
<path d="M18.75 1.07273C18.7502 1.25857 18.6953 1.4403 18.5923 1.5949C18.4893 1.74951 18.3429 1.87004 18.1714 1.94125C18 2.01246 17.8113 2.03115 17.6293 1.99494C17.4472 1.95873 17.28 1.86926 17.1488 1.73785C17.0175 1.60644 16.9282 1.439 16.892 1.25672C16.8558 1.07443 16.8745 0.885507 16.9456 0.713848C17.0167 0.54219 17.1371 0.395515 17.2915 0.29239C17.4459 0.189265 17.6274 0.134324 17.813 0.134522C17.9361 0.134522 18.0579 0.158789 18.1716 0.205939C18.2853 0.253088 18.3886 0.322196 18.4756 0.409317C18.5626 0.496437 18.6316 0.599864 18.6787 0.713693C18.7258 0.827522 18.75 0.949522 18.75 1.07273Z" fill="#2C5B5A"/>
<path d="M13.3939 0.688354C10.2752 1.4877 7.43125 3.11783 5.16446 5.40541C2.89766 7.69299 1.29274 10.5525 0.520326 13.68C-0.252085 16.8074 -0.163111 20.0858 0.777789 23.1667C1.71869 26.2476 3.47634 29.0157 5.86387 31.1768L0.215865 41.1375C0.127004 41.2945 0.0852092 41.4737 0.0954821 41.6538C0.105755 41.8338 0.16766 42.0071 0.273791 42.1529C0.379921 42.2987 0.525782 42.4108 0.693919 42.4758C0.862057 42.5408 1.04535 42.556 1.22187 42.5195L7.63587 41.1866L9.88988 47.5438C9.94955 47.7138 10.0569 47.863 10.1991 47.9735C10.3412 48.084 10.5122 48.1512 10.6915 48.167C10.8709 48.1829 11.051 48.1467 11.2103 48.0628C11.3696 47.9789 11.5014 47.8508 11.5899 47.6939L17.8139 36.7446L24.0379 47.6939C24.1196 47.8379 24.238 47.9576 24.381 48.0409C24.524 48.1242 24.6864 48.1681 24.8519 48.1682C24.8789 48.1682 24.9069 48.1682 24.9349 48.1682C25.1135 48.1521 25.2838 48.0851 25.4256 47.9751C25.5674 47.8652 25.6747 47.7169 25.7349 47.5478L27.9889 41.1906L34.3999 42.5195C34.5764 42.556 34.7597 42.5408 34.9279 42.4758C35.096 42.4108 35.2419 42.2987 35.348 42.1529C35.4541 42.0071 35.516 41.8338 35.5263 41.6538C35.5366 41.4737 35.4948 41.2945 35.4059 41.1375L29.7579 31.1768C32.1454 29.0159 33.9032 26.248 34.8443 23.1673C35.7854 20.0866 35.8746 16.8083 35.1025 13.681C34.3304 10.5536 32.7259 7.69401 30.4594 5.40626C28.193 3.11851 25.3494 1.48809 22.2309 0.688354C21.9926 0.634302 21.7426 0.67545 21.5341 0.803043C21.3257 0.930635 21.1752 1.1346 21.1147 1.37152C21.0543 1.60845 21.0886 1.85964 21.2104 2.07162C21.3322 2.28361 21.5319 2.43967 21.7669 2.50658C25.5271 3.47038 28.8065 5.77429 30.9897 8.98591C33.1729 12.1975 34.1097 16.096 33.6243 19.9498C33.1389 23.8035 31.2647 27.3475 28.3534 29.9166C25.4422 32.4857 21.694 33.9033 17.8124 33.9033C13.9308 33.9033 10.1826 32.4857 7.27133 29.9166C4.36006 27.3475 2.48585 23.8035 2.00046 19.9498C1.51507 16.096 2.45188 12.1975 4.63505 8.98591C6.81822 5.77429 10.0977 3.47038 13.8579 2.50658C13.9772 2.47609 14.0893 2.42238 14.1879 2.34853C14.2865 2.27468 14.3695 2.18212 14.4323 2.07614C14.4952 1.97017 14.5365 1.85285 14.554 1.73088C14.5715 1.60892 14.5648 1.48469 14.5344 1.36531C14.5039 1.24592 14.4502 1.13371 14.3764 1.03508C14.3026 0.936447 14.2101 0.853328 14.1042 0.790467C13.9983 0.727606 13.8811 0.686234 13.7592 0.668714C13.6373 0.651193 13.5132 0.657867 13.3939 0.688354ZM10.9719 44.9831L9.12988 39.7886C9.05319 39.5758 8.90231 39.3979 8.70498 39.2876C8.50765 39.1773 8.27714 39.142 8.05587 39.1882L2.86887 40.2609L7.33887 32.3776C9.94963 34.2745 13.0253 35.4278 16.2389 35.7149L10.9719 44.9831ZM27.5719 39.1792C27.3506 39.133 27.1201 39.1683 26.9228 39.2786C26.7255 39.3889 26.5746 39.5668 26.4979 39.7796L24.6559 44.9751L19.3869 35.7059C22.6004 35.4187 25.6761 34.2654 28.2869 32.3686L32.7569 40.2519L27.5719 39.1792Z" fill="#2C5B5A"/>
</svg>
