<svg width="50" height="37" viewBox="0 0 50 37" fill="none" xmlns="http://www.w3.org/2000/svg">
<path d="M39.862 12.3643H36.84L37.75 1.90317C37.75 1.88416 37.75 1.86515 37.75 1.84713C37.7501 1.70997 37.71 1.57579 37.6347 1.46123C37.5593 1.34667 37.452 1.25678 37.326 1.2027H37.32L37.272 1.18469L37.254 1.17868L37.213 1.16768L37.185 1.16067L37.149 1.15467H37.115H22.66C22.4735 1.15467 22.2947 1.22878 22.1629 1.36071C22.0311 1.49264 21.957 1.67157 21.957 1.85814C21.957 2.04472 22.0311 2.22365 22.1629 2.35558C22.2947 2.48751 22.4735 2.56162 22.66 2.56162H36.283L34.883 18.6386L34.531 22.6864H10.103L10.503 18.4625H15.155C15.3414 18.4625 15.5203 18.3884 15.6521 18.2564C15.7839 18.1245 15.858 17.9456 15.858 17.759C15.858 17.5724 15.7839 17.3935 15.6521 17.2616C15.5203 17.1296 15.3414 17.0555 15.155 17.0555H10.643L11.506 8.14343H18.906C19.0924 8.14343 19.2713 8.06931 19.4031 7.93739C19.5349 7.80546 19.609 7.62653 19.609 7.43995C19.609 7.25338 19.5349 7.07444 19.4031 6.94251C19.2713 6.81058 19.0924 6.73647 18.906 6.73647H11.643L12.049 2.54662H19.849C20.0354 2.54662 20.2143 2.47249 20.3461 2.34056C20.4779 2.20864 20.552 2.02971 20.552 1.84313C20.552 1.65656 20.4779 1.47763 20.3461 1.3457C20.2143 1.21377 20.0354 1.13965 19.849 1.13965H11.409C11.2483 1.13938 11.0924 1.19443 10.9675 1.29556C10.8426 1.39668 10.7563 1.53773 10.723 1.69503V1.70204C10.723 1.72005 10.717 1.73706 10.715 1.75507C10.713 1.77309 10.715 1.76608 10.715 1.77208L10.235 6.73347H1.703C1.51655 6.73347 1.33774 6.80758 1.2059 6.93951C1.07407 7.07144 1 7.25038 1 7.43695C1 7.62353 1.07407 7.80246 1.2059 7.93439C1.33774 8.06631 1.51655 8.14043 1.703 8.14043H10.094L9.231 17.0525H6.722C6.53555 17.0525 6.35674 17.1266 6.2249 17.2586C6.09306 17.3905 6.019 17.5694 6.019 17.756C6.019 17.9426 6.09306 18.1215 6.2249 18.2534C6.35674 18.3854 6.53555 18.4595 6.722 18.4595H9.094L8.624 23.3118L7.898 30.8169V30.8219C7.898 30.8319 7.898 30.8409 7.898 30.8509C7.898 30.8609 7.898 30.8769 7.898 30.8899C7.898 30.908 7.898 30.926 7.898 30.944C7.898 30.962 7.898 30.956 7.898 30.961C7.898 30.966 7.898 30.997 7.906 31.015C7.914 31.033 7.906 31.026 7.906 31.031C7.906 31.036 7.913 31.0581 7.916 31.0711C7.919 31.0841 7.916 31.0901 7.923 31.0991V31.1071C7.95656 31.2106 8.01373 31.3048 8.09 31.3823L8.114 31.4033C8.16276 31.4482 8.21764 31.4859 8.277 31.5154L8.314 31.5334H8.326L8.38 31.5534C8.401 31.5594 8.422 31.5654 8.443 31.5694H8.451C8.471 31.5694 8.492 31.5764 8.513 31.5784C8.53633 31.5784 8.55933 31.5784 8.582 31.5784H11.713C11.8828 32.8663 12.5147 34.0485 13.4908 34.9049C14.4669 35.7612 15.7208 36.2334 17.019 36.2334C18.3172 36.2334 19.5711 35.7612 20.5472 34.9049C21.5233 34.0485 22.1552 32.8663 22.325 31.5784H33.619C33.7888 32.8663 34.4206 34.0485 35.3968 34.9049C36.3729 35.7612 37.6268 36.2334 38.925 36.2334C40.2231 36.2334 41.4771 35.7612 42.4532 34.9049C43.4293 34.0485 44.0612 32.8663 44.231 31.5784H47.363C47.386 31.5784 47.409 31.5784 47.432 31.5784H47.444L47.498 31.5704L47.521 31.5654L47.562 31.5544L47.589 31.5454L47.623 31.5324L47.651 31.5204L47.682 31.5054L47.71 31.4904L47.739 31.4733L47.765 31.4563L47.793 31.4353L47.816 31.4173L47.844 31.3923L47.863 31.3743L47.891 31.3433L47.906 31.3262C47.916 31.3132 47.926 31.3002 47.935 31.2872L47.945 31.2732C47.956 31.2562 47.967 31.2382 47.977 31.2202C47.988 31.2002 47.997 31.1811 48.006 31.1601L48.013 31.1421C48.019 31.1271 48.024 31.1131 48.029 31.0981C48.034 31.0831 48.034 31.0781 48.037 31.0681C48.04 31.0581 48.043 31.0451 48.046 31.033C48.049 31.021 48.046 31.012 48.052 31.001C48.058 30.99 48.052 30.982 48.052 30.973C48.082 30.7338 48.632 26.3138 48.878 23.4549V23.4469C48.949 22.6233 48.994 21.9288 48.994 21.5045C48.9895 19.0821 48.026 16.7602 46.3144 15.0471C44.6029 13.334 42.2827 12.3693 39.862 12.3643ZM36.718 13.7713H39.595L39.228 17.9922H36.35L36.718 13.7713ZM17.035 34.8426C16.2544 34.8426 15.4913 34.611 14.8423 34.1771C14.1932 33.7431 13.6873 33.1263 13.3885 32.4047C13.0898 31.683 13.0115 30.8889 13.1638 30.1228C13.316 29.3566 13.6918 28.6529 14.2437 28.1005C14.7956 27.548 15.4988 27.1718 16.2644 27.0193C17.0299 26.8668 17.8235 26.9448 18.5448 27.2436C19.266 27.5424 19.8825 28.0485 20.3163 28.6979C20.7501 29.3473 20.9818 30.1108 20.982 30.892C20.9809 31.9392 20.5648 32.9434 19.8248 33.684C19.0849 34.4246 18.0816 34.8413 17.035 34.8426ZM38.925 34.8426C38.1444 34.8426 37.3813 34.611 36.7323 34.1771C36.0832 33.7431 35.5773 33.1263 35.2785 32.4047C34.9798 31.683 34.9015 30.8889 35.0538 30.1228C35.206 29.3566 35.5818 28.6529 36.1337 28.1005C36.6856 27.548 37.3888 27.1718 38.1544 27.0193C38.9199 26.8668 39.7135 26.9448 40.4347 27.2436C41.156 27.5424 41.7725 28.0485 42.2063 28.6979C42.6401 29.3473 42.8718 30.1108 42.872 30.892C42.8709 31.9392 42.4548 32.9434 41.7148 33.684C40.9749 34.4246 39.9716 34.8413 38.925 34.8426ZM46.74 30.1915H44.231C44.0612 28.9036 43.4293 27.7214 42.4532 26.865C41.4771 26.0086 40.2231 25.5365 38.925 25.5365C37.6268 25.5365 36.3729 26.0086 35.3968 26.865C34.4206 27.7214 33.7888 28.9036 33.619 30.1915H22.341C22.1712 28.9036 21.5393 27.7214 20.5632 26.865C19.5871 26.0086 18.3332 25.5365 17.035 25.5365C15.7368 25.5365 14.4829 26.0086 13.5068 26.865C12.5307 27.7214 11.8988 28.9036 11.729 30.1915H9.372L9.962 24.0873H35.176C35.1993 24.0885 35.2227 24.0885 35.246 24.0873H35.259L35.314 24.0793L35.337 24.0733L35.379 24.0623L35.406 24.0533L35.441 24.0403L35.47 24.0273L35.501 24.0123L35.529 23.9962L35.558 23.9792L35.584 23.9612L35.611 23.9412L35.635 23.9212L35.661 23.8972L35.682 23.8762L35.707 23.8491L35.725 23.8271L35.748 23.7971L35.764 23.7741L35.784 23.7411L35.798 23.7161C35.804 23.705 35.809 23.694 35.814 23.682L35.826 23.655C35.826 23.644 35.834 23.633 35.838 23.621C35.842 23.609 35.845 23.601 35.848 23.591C35.851 23.581 35.854 23.569 35.856 23.558C35.858 23.5469 35.862 23.5359 35.864 23.5239C35.866 23.5119 35.864 23.5019 35.869 23.4899C35.874 23.4779 35.869 23.4669 35.869 23.4549L36.221 19.4071H39.855C42.009 19.4071 42.981 20.5239 44.009 21.7087C44.8188 22.879 46.0321 23.7086 47.416 24.0383C47.219 26.1887 46.888 28.9716 46.74 30.1915ZM47.54 22.6223C46.5309 22.3095 45.6601 21.6586 45.074 20.7791C44.5586 20.044 43.8989 19.4219 43.1352 18.9506C42.3715 18.4794 41.5197 18.1689 40.632 18.0382L41.003 13.8563C42.8365 14.1308 44.5109 15.0542 45.7219 16.4589C46.933 17.8636 47.6004 19.6563 47.603 21.5116C47.597 21.7747 47.577 22.158 47.544 22.6193L47.54 22.6223Z" fill="#2C5B5A" stroke="#2C5B5A" stroke-width="0.3"/>
</svg>
