<svg width="44" height="42" viewBox="0 0 44 42" fill="none" xmlns="http://www.w3.org/2000/svg">
<path d="M32.681 37.776H29.881C29.8318 37.0453 29.5067 36.3606 28.9718 35.8607C28.4368 35.3609 27.7319 35.0833 27 35.0842H20.977C20.2147 35.086 19.4842 35.3898 18.945 35.9291C18.4059 36.4684 18.1021 37.1993 18.1 37.9621V38.6966C18.1008 39.461 18.4046 40.1938 18.9447 40.7343C19.4848 41.2748 20.2172 41.5788 20.981 41.5796H27C27.7307 41.5787 28.4338 41.3003 28.9673 40.8006C29.5008 40.301 29.8248 39.6173 29.874 38.8878H32.674C33.9753 38.8864 35.2229 38.3686 36.143 37.4478C37.0632 36.527 37.5807 35.2786 37.582 33.9764V32.0271H38.828C39.3757 32.0274 39.9181 31.9197 40.4242 31.7101C40.9303 31.5006 41.3902 31.1934 41.7776 30.806C42.165 30.4186 42.4724 29.9586 42.6821 29.4523C42.8918 28.946 42.9999 28.4033 43 27.8553V23.042C42.9987 21.937 42.5594 20.8777 41.7786 20.0964C40.9978 19.315 39.9392 18.8755 38.835 18.8742H37.589V16.2324C37.589 12.0951 35.9466 8.12731 33.0231 5.20182C30.0996 2.27634 26.1345 0.632813 22 0.632812C17.8655 0.632813 13.9004 2.27634 10.9769 5.20182C8.05341 8.12731 6.411 12.0951 6.411 16.2324V18.8742H5.165C4.06009 18.8755 3.00087 19.3156 2.21995 20.0978C1.43903 20.88 1.00026 21.9404 1 23.046L1 27.8553C1.00132 28.9602 1.44056 30.0196 2.22136 30.8009C3.00216 31.5822 4.06078 32.0218 5.165 32.0231H9.374C9.52199 32.0231 9.66392 31.9643 9.76857 31.8596C9.87321 31.7548 9.932 31.6128 9.932 31.4647V19.4356C9.932 19.2875 9.87321 19.1454 9.76857 19.0407C9.66392 18.936 9.52199 18.8772 9.374 18.8772H7.526V16.2354C7.526 14.3334 7.90038 12.4499 8.62777 10.6927C9.35515 8.93542 10.4213 7.33873 11.7653 5.99379C13.1094 4.64884 14.705 3.58197 16.461 2.85409C18.2171 2.12621 20.0992 1.75157 22 1.75157C23.9008 1.75157 25.7829 2.12621 27.539 2.85409C29.295 3.58197 30.8906 4.64884 32.2347 5.99379C33.5787 7.33873 34.6448 8.93542 35.3722 10.6927C36.0996 12.4499 36.474 14.3334 36.474 16.2354V18.8772H34.626C34.478 18.8772 34.3361 18.936 34.2314 19.0407C34.1268 19.1454 34.068 19.2875 34.068 19.4356V31.4687C34.068 31.6168 34.1268 31.7588 34.2314 31.8636C34.3361 31.9683 34.478 32.0271 34.626 32.0271H36.474V33.9814C36.4719 34.9873 36.0716 35.9514 35.3607 36.6626C34.6498 37.3738 33.6862 37.7742 32.681 37.776ZM28.769 38.7006C28.7677 39.1691 28.5807 39.6178 28.249 39.9484C27.9173 40.279 27.4681 40.4644 27 40.4638H20.977C20.5091 40.4633 20.0604 40.2771 19.7295 39.9459C19.3987 39.6148 19.2125 39.1659 19.212 38.6976V37.9621C19.2125 37.4939 19.3987 37.0449 19.7295 36.7138C20.0604 36.3827 20.5091 36.1965 20.977 36.1959H27C27.232 36.1957 27.4619 36.2411 27.6764 36.3298C27.8908 36.4184 28.0858 36.5484 28.25 36.7124C28.4143 36.8764 28.5447 37.0712 28.6337 37.2856C28.7228 37.5001 28.7687 37.7299 28.769 37.9621V38.7006ZM8.816 19.9939V30.9114H5.165C4.35641 30.9103 3.58125 30.5884 3.00949 30.0163C2.43774 29.4441 2.11606 28.6684 2.115 27.8593V23.046C2.11606 22.2369 2.43774 21.4612 3.00949 20.889C3.58125 20.3169 4.35641 19.995 5.165 19.9939H8.816ZM35.184 30.9114V19.9939H38.835C39.6436 19.995 40.4187 20.3169 40.9905 20.889C41.5623 21.4612 41.8839 22.2369 41.885 23.046V27.8553C41.8839 28.6644 41.5623 29.4401 40.9905 30.0122C40.4187 30.5844 39.6436 30.9063 38.835 30.9073L35.184 30.9114Z" fill="#2C5B5A" stroke="#2C5B5A" stroke-width="0.6"/>
</svg>
