<svg width="29" height="42" viewBox="0 0 29 42" fill="none" xmlns="http://www.w3.org/2000/svg">
<path d="M6.27227 3.3312L6.27227 3.3312C9.45175 0.810698 14.0573 0.0976845 17.4763 1.60144L17.4562 1.64721L17.4763 1.60144C19.6686 2.56577 21.0104 4.29035 21.2797 6.47957C21.6781 6.75809 22.047 7.08521 22.38 7.46251C23.3813 8.59656 23.9687 10.0707 24.0543 11.6452C26.4438 13.279 27.9093 15.5512 28.2969 18.2358C28.6642 20.779 28.0062 23.5897 26.4478 26.1707C26.4421 29.3215 26.3378 31.3073 24.7888 34.3593C23.8638 36.1818 22.1698 38.092 20.1423 39.6021C18.0517 41.1593 15.9408 42.0146 14.3405 41.9432C14.2758 41.9462 14.2104 41.9476 14.1447 41.9476C12.7749 41.9476 11.1975 41.3226 9.69314 40.3859C8.18767 39.4486 6.74962 38.1956 5.65747 36.9318C5.42249 36.66 5.45224 36.2489 5.72399 36.0138C5.99571 35.7785 6.40664 35.8085 6.64154 36.0804C7.81295 37.4359 9.22442 38.6043 10.5969 39.4198C11.9711 40.2364 13.2994 40.6953 14.3059 40.6416C14.329 40.6403 14.3522 40.6403 14.3754 40.6416C15.0508 40.678 15.856 40.4869 16.714 40.1221C17.5715 39.7575 18.4784 39.2208 19.3559 38.5698C21.1118 37.2672 22.745 35.511 23.6288 33.7698C25.0568 30.9563 25.1426 29.1925 25.1469 26.1116C23.3285 21.5659 19.1988 18.7488 14.3394 18.7488C9.48006 18.7488 5.35025 21.5659 3.53196 26.1116C3.5362 29.1925 3.62201 30.9562 5.05002 33.7698L5.00543 33.7924L5.05002 33.7698C5.21264 34.0903 5.0849 34.482 4.76463 34.6449C4.44433 34.8077 4.05277 34.6798 3.89004 34.3593L3.93463 34.3367L3.89004 34.3593C2.33334 31.2921 2.23572 29.3017 2.23103 26.1238C1.20925 23.8068 0.794537 21.4031 1.00192 18.9771M6.27227 3.3312L1.00192 18.9771M6.27227 3.3312C5.99072 3.55444 5.94318 3.96378 6.16628 4.24561L6.16628 4.24561C6.38938 4.52738 6.79849 4.57486 7.08015 4.35169L7.08016 4.35168C9.90017 2.11623 13.9616 1.47758 16.9527 2.79328C18.3807 3.42138 19.352 4.43832 19.7802 5.71737C19.1417 5.49708 18.4549 5.37458 17.7286 5.35744L17.7274 5.40743L17.7286 5.35744C14.6108 5.28411 11.7288 5.90465 9.16261 7.20338C6.82194 8.38804 4.83647 10.1201 3.41122 12.2195C3.47173 9.86455 4.13172 7.78804 5.35841 6.12975L5.31821 6.10002L5.35841 6.12975C5.57213 5.8408 5.51134 5.43321 5.22258 5.21925L5.22256 5.21924C4.93379 5.00545 4.52642 5.06612 4.3126 5.35518C2.54586 7.74359 1.82113 10.8603 2.2062 14.3746C1.54824 15.8325 1.13736 17.392 1.00192 18.9771M6.27227 3.3312L1.00192 18.9771M16.1214 13.3122C16.4596 13.4332 16.832 13.2567 16.9529 12.9182L16.9529 12.9182C17.0737 12.5797 16.8975 12.2072 16.5592 12.0862L16.5424 12.1333L16.5592 12.0862C14.2324 11.2543 11.4332 11.1242 8.67681 11.7179C7.0239 12.0738 5.49011 12.6646 4.17395 13.4381C4.24765 13.3175 4.32317 13.1978 4.40169 13.0792L4.4017 13.0792C7.14833 8.92913 12.1171 6.52713 17.6981 6.65892C18.7008 6.68258 19.5578 6.9458 20.2674 7.37117C20.3026 7.39826 20.3405 7.42132 20.3802 7.44062C21.9364 8.43391 22.7511 10.2328 22.7641 12.0026C22.7536 13.9567 22.0747 15.603 20.8586 16.6434C19.7905 17.5568 18.41 17.9193 16.8618 17.6893M16.1214 13.3122L16.1383 13.2651M16.1214 13.3122L16.1383 13.2651M16.1214 13.3122C14.0213 12.5613 11.502 12.4825 9.12045 12.963C6.74317 13.4427 4.5082 14.4786 2.96762 15.9534C2.0238 18.6249 2.00208 21.5213 2.92839 24.3205C3.96428 22.3493 5.44006 20.7086 7.25902 19.5247C9.34758 18.1653 11.7963 17.4469 14.3396 17.4469C15.1946 17.4469 16.0384 17.5299 16.8618 17.6893M16.1383 13.2651C16.4504 13.3768 16.7942 13.214 16.9058 12.9014L16.1383 13.2651ZM16.8618 17.6893C16.8622 17.6894 16.8625 17.6895 16.8629 17.6896L16.8534 17.7386L16.8607 17.6892C16.8611 17.6892 16.8615 17.6893 16.8618 17.6893ZM21.4202 19.5247C20.9339 19.2082 20.428 18.9265 19.906 18.6804C20.5617 18.4415 21.1682 18.0911 21.7039 17.6328C22.9476 16.5689 23.7341 15.0274 23.981 13.2162C27.2914 15.9239 28.0157 20.2523 25.8633 24.5409C24.8231 22.4717 23.3064 20.7524 21.4202 19.5247Z" fill="#2C5B5A" stroke="#2C5B5A" stroke-width="0.1"/>
<path d="M9.23516 35.075C9.23516 35.9795 9.79791 36.7795 10.7055 37.351C11.6134 37.9226 12.8716 38.2697 14.2796 38.2697C15.6876 38.2697 16.9458 37.9226 17.8537 37.351C18.7613 36.7795 19.324 35.9795 19.324 35.075C19.324 34.1711 18.7613 33.3717 17.8537 32.8007C16.9458 32.2295 15.6876 31.8826 14.2796 31.8826C12.8717 31.8826 11.6134 32.2295 10.7055 32.8007C9.79793 33.3718 9.23516 34.1712 9.23516 35.075ZM18.023 35.075C18.023 35.5065 17.6544 35.9792 16.9904 36.3473C16.3299 36.7134 15.3902 36.9678 14.2796 36.9678C13.169 36.9678 12.2293 36.7134 11.5688 36.3473C10.9048 35.9792 10.5362 35.5065 10.5362 35.075C10.5362 34.6441 10.9048 34.172 11.5688 33.8043C12.2292 33.4385 13.169 33.1844 14.2796 33.1844C15.3902 33.1844 16.33 33.4385 16.9904 33.8043C17.6544 34.172 18.023 34.6441 18.023 35.075Z" fill="#2C5B5A" stroke="#2C5B5A" stroke-width="0.1"/>
<path d="M23.2412 26.5149C23.2412 24.6159 21.4327 23.084 19.2272 23.084C17.0203 23.084 15.2107 24.6159 15.2107 26.5149C15.2107 28.4151 17.0202 29.9481 19.2272 29.9481C21.4328 29.9481 23.2412 28.4151 23.2412 26.5149ZM16.5117 26.5149C16.5117 25.3514 17.7181 24.3859 19.2271 24.3859C20.7347 24.3859 21.9401 25.3514 21.9401 26.5149C21.9401 27.6797 20.7346 28.6462 19.2271 28.6462C17.7182 28.6462 16.5117 27.6797 16.5117 26.5149Z" fill="#2C5B5A" stroke="#2C5B5A" stroke-width="0.1"/>
<path d="M19.7847 25.8465L19.7848 25.8465C20.0785 25.6396 20.4844 25.7097 20.6913 26.0036C20.8982 26.2975 20.8281 26.7036 20.5344 26.9108L20.5343 26.9108C20.166 27.1707 19.6954 27.2994 19.2267 27.2994C18.758 27.2994 18.2874 27.1707 17.9191 26.9108L17.9191 26.9108C17.6254 26.7036 17.5553 26.2974 17.7622 26.0036L19.7847 25.8465ZM19.7847 25.8465C19.642 25.9473 19.4364 25.9999 19.2268 25.9999M19.7847 25.8465L19.2268 25.9999M19.2268 25.9999C19.0172 25.9999 18.8116 25.9473 18.6688 25.8465L19.2268 25.9999ZM18.6687 25.8465C18.3751 25.6394 17.969 25.7097 17.7622 26.0036L18.6687 25.8465Z" fill="#2C5B5A" stroke="#2C5B5A" stroke-width="0.1"/>
<path d="M9.55003 23.0842C7.34437 23.0842 5.53594 24.616 5.53594 26.515C5.53594 28.4152 7.34433 29.9482 9.55003 29.9482C11.7569 29.9482 13.5664 28.4153 13.5664 26.515C13.5664 24.6161 11.7569 23.0842 9.55003 23.0842ZM9.55003 28.6464C8.04242 28.6464 6.83694 27.6798 6.83694 26.515C6.83694 25.3515 8.04236 24.386 9.55003 24.386C11.0589 24.386 12.2653 25.3516 12.2653 26.515C12.2653 27.6799 11.0589 28.6464 9.55003 28.6464Z" fill="#2C5B5A" stroke="#2C5B5A" stroke-width="0.1"/>
<path d="M10.1071 25.8465L10.1071 25.8465C10.4008 25.6396 10.8067 25.7097 11.0135 26.0035L10.1071 25.8465ZM10.1071 25.8465C9.96427 25.9472 9.75863 25.9999 9.54904 25.9999C9.33945 25.9999 9.13384 25.9472 8.99105 25.8465L8.99104 25.8465C8.6974 25.6394 8.29152 25.7097 8.08447 26.0035L8.08447 26.0035C7.87751 26.2973 7.94776 26.7035 8.24137 26.9106L8.24138 26.9107C8.60972 27.1704 9.08025 27.2991 9.54895 27.2991C10.0176 27.2991 10.4883 27.1704 10.8565 26.9106L10.1071 25.8465Z" fill="#2C5B5A" stroke="#2C5B5A" stroke-width="0.1"/>
<path d="M12.371 35.5011L12.371 35.5011C12.0471 35.3454 11.9105 34.9565 12.0659 34.6323L12.371 35.5011ZM12.371 35.5011C12.9085 35.7593 13.5952 35.8873 14.2798 35.8873C14.9642 35.8873 15.6511 35.7592 16.1886 35.5011M12.371 35.5011L16.4936 34.6323M16.4936 34.6323L16.4937 34.6323C16.6491 34.9565 16.5125 35.3455 16.1886 35.5011M16.4936 34.6323C16.3382 34.3081 15.9496 34.1714 15.6257 34.3269L15.6257 34.3269M16.4936 34.6323L15.6257 34.3269M16.1886 35.5011L16.1669 35.456L16.1886 35.5011C16.1886 35.5011 16.1886 35.5011 16.1886 35.5011ZM15.6257 34.3269C15.2704 34.4975 14.7768 34.5844 14.2798 34.5844M15.6257 34.3269L14.2798 34.5844M14.2798 34.5844C13.7827 34.5844 13.2892 34.4975 12.9339 34.3269M14.2798 34.5844L12.9339 34.3269M12.9339 34.3269C12.61 34.1712 12.2213 34.308 12.0659 34.6323L12.9339 34.3269ZM15.6474 34.3719L15.6474 34.3719L15.6474 34.3719Z" fill="#2C5B5A" stroke="#2C5B5A" stroke-width="0.1"/>
</svg>
