<svg width="34" height="39" viewBox="0 0 34 39" fill="none" xmlns="http://www.w3.org/2000/svg">
<path d="M21.2939 12.923H20.7033V11.7408H21.2939C21.4771 11.7408 21.6528 11.668 21.7823 11.5384C21.9118 11.4088 21.9846 11.233 21.9846 11.0498V7.2034C21.9846 7.02013 21.9118 6.84436 21.7823 6.71476C21.6528 6.58516 21.4771 6.51234 21.2939 6.51234H18.7814V2.71598C18.7814 2.02265 18.5062 1.35771 18.0163 0.86744C17.5263 0.37717 16.8618 0.101733 16.1689 0.101733C15.4761 0.101733 14.8116 0.37717 14.3216 0.86744C13.8317 1.35771 13.5564 2.02265 13.5564 2.71598V6.51234H11.0439C10.8608 6.51234 10.6851 6.58516 10.5556 6.71476C10.4261 6.84436 10.3533 7.02013 10.3533 7.2034V11.0498C10.3533 11.233 10.4261 11.4088 10.5556 11.5384C10.6851 11.668 10.8608 11.7408 11.0439 11.7408H11.6346V12.923H11.0439H11.0439C10.3513 12.9237 9.68722 13.1994 9.19746 13.6895C8.7077 14.1796 8.43222 14.8441 8.43145 15.5371V15.5372V31.5637V31.6137H8.48145H9.7627H9.8127V31.5637V19.4336H22.5252V25.7942V25.8442H22.5752H23.8564H23.9064V25.7942V15.5372V15.5371C23.9057 14.8441 23.6302 14.1796 23.1404 13.6895C22.6507 13.1994 21.9866 12.9237 21.294 12.923H21.2939ZM14.9377 2.71598C14.9377 2.38919 15.0674 2.07579 15.2983 1.84472C15.5292 1.61366 15.8424 1.48386 16.1689 1.48386C16.4955 1.48386 16.8087 1.61366 17.0396 1.84472C17.2705 2.07579 17.4002 2.38919 17.4002 2.71598V6.51234H14.9377V2.71598ZM11.7346 7.89446H20.6033V10.3587H11.7346V7.89446ZM19.3221 11.7408V12.923H13.0158V11.7408H19.3221ZM22.1641 14.6664C22.3949 14.8974 22.5248 15.2106 22.5252 15.5373V18.0514H9.8127V15.5373C9.81308 15.2106 9.94294 14.8974 10.1738 14.6664C10.4046 14.4354 10.7176 14.3055 11.044 14.3051H21.2939C21.6203 14.3055 21.9333 14.4354 22.1641 14.6664Z" fill="#2C5B5A" stroke="#2C5B5A" stroke-width="0.1"/>
<path d="M21.3798 37.7149L23.222 37.3833L23.3266 37.9649C23.3426 38.0543 23.3761 38.1395 23.4251 38.2159C23.4741 38.2923 23.5377 38.3583 23.6121 38.41C23.6866 38.4618 23.7706 38.4985 23.8592 38.5178C23.9478 38.5371 24.0394 38.5388 24.1287 38.5227L27.9116 37.8416C28.0919 37.8091 28.2519 37.7063 28.3564 37.5558C28.461 37.4053 28.5015 37.2195 28.469 37.0391L28.0242 34.5646L31.7581 33.8923C32.44 33.7696 33.0452 33.3807 33.4407 32.8114C33.8361 32.2421 33.9894 31.539 33.8667 30.8566L33.8667 30.8566C33.7432 30.1747 33.3545 29.5696 32.7858 29.174C32.2171 28.7784 31.5148 28.6247 30.8329 28.7467L30.8329 28.7467L27.0991 29.4189L26.6542 26.9446C26.6382 26.8552 26.6047 26.77 26.5557 26.6936C26.5067 26.6172 26.4432 26.5512 26.3687 26.4994C26.2942 26.4476 26.2103 26.411 26.1217 26.3917C26.0331 26.3723 25.9415 26.3706 25.8522 26.3867L22.0692 27.0678C21.9799 27.0839 21.8947 27.1174 21.8183 27.1664C21.742 27.2154 21.6761 27.279 21.6243 27.3536C21.5725 27.4281 21.5359 27.5121 21.5166 27.6008C21.4973 27.6895 21.4956 27.7811 21.5117 27.8704L21.6162 28.452L19.774 28.7837C19.5937 28.8162 19.4337 28.9189 19.3292 29.0694C19.2246 29.2199 19.1841 29.4058 19.2166 29.5862L19.4385 30.8207L2.54288 34.448C2.05675 34.5523 1.62631 34.8328 1.3343 35.2354C1.04228 35.6381 0.909294 36.1345 0.960886 36.6293C1.01248 37.1242 1.24501 37.5824 1.6138 37.9161C1.98259 38.2498 2.46161 38.4353 2.95881 38.437H2.959C3.05842 38.4369 3.1577 38.4297 3.25607 38.4153C3.25608 38.4153 3.25608 38.4153 3.25609 38.4153L20.3557 35.9221L20.5777 37.1571C20.5938 37.2464 20.6273 37.3317 20.6763 37.4081C20.7253 37.4845 20.7888 37.5504 20.8633 37.6022C20.9378 37.654 21.0217 37.6906 21.1104 37.71C21.199 37.7293 21.2905 37.731 21.3798 37.7149ZM3.05691 37.0477L3.05689 37.0477C2.89408 37.0715 2.72841 37.031 2.59487 36.9348C2.46133 36.8386 2.37037 36.6942 2.34124 36.5322C2.31211 36.3701 2.34707 36.2031 2.43875 36.0663C2.53043 35.9296 2.67163 35.8339 2.83252 35.7994L2.83254 35.7994L19.6833 32.182L20.111 34.5613L3.05691 37.0477ZM32.3064 32.0229L32.3064 32.023C32.2145 32.1561 32.0971 32.2697 31.9611 32.3571C31.8251 32.4445 31.6731 32.504 31.514 32.5323L31.5138 32.5323L27.78 33.2046L27.344 30.7793L31.0777 30.107C31.3174 30.064 31.5644 30.093 31.7876 30.1904C32.0107 30.2878 32.2001 30.4492 32.3316 30.6542C32.4631 30.8593 32.5309 31.0988 32.5264 31.3424C32.5219 31.586 32.4454 31.8228 32.3064 32.0229ZM31.9881 32.3991C31.8466 32.4901 31.6884 32.5521 31.5227 32.5815L32.3475 32.0514C32.2519 32.19 32.1297 32.3081 31.9881 32.3991ZM21.8151 36.2324L20.6985 30.0215L21.8611 29.8122L22.9777 36.0231L21.8151 36.2324ZM24.564 37.0402L22.9937 28.3056L25.4177 27.8693L26.9879 36.6039L24.564 37.0402Z" fill="#2C5B5A" stroke="#2C5B5A" stroke-width="0.1"/>
<path d="M16.1689 21.2566C16.0678 21.2566 15.9679 21.2789 15.8763 21.3218L16.6991 21.5048C16.6343 21.4271 16.5532 21.3646 16.4616 21.3218C16.37 21.2789 16.2701 21.2566 16.1689 21.2566ZM18.0408 26.4351C18.0408 26.9319 17.8436 27.4084 17.4925 27.7596C17.1415 28.1109 16.6654 28.3083 16.1689 28.3083C15.6725 28.3083 15.1964 28.1109 14.8453 27.7596C14.4943 27.4084 14.2971 26.9319 14.2971 26.4351C14.2971 26.2732 14.3568 26.0532 14.4647 25.7917C14.5722 25.5315 14.7253 25.2349 14.9076 24.9214C15.2617 24.3125 15.7238 23.6432 16.1689 23.0578C16.6141 23.6432 17.0762 24.3125 17.4303 24.9214C17.6126 25.2349 17.7657 25.5315 17.8732 25.7917C17.9811 26.0532 18.0408 26.2732 18.0408 26.4351Z" fill="#2C5B5A" stroke="#2C5B5A" stroke-width="0.1"/>
<path d="M20.0127 20.6155H19.9627V20.6655V21.9478V21.9978H20.0127H21.2939H21.3439V21.9478V20.6655V20.6155H21.2939H20.0127Z" fill="#2C5B5A" stroke="#2C5B5A" stroke-width="0.1"/>
</svg>
