<svg width="27" height="43" viewBox="0 0 27 43" fill="none" xmlns="http://www.w3.org/2000/svg">
<path d="M23.1825 12.6055L23.1823 12.6055C22.7988 12.5556 22.4469 12.8253 22.3964 13.2092L20.7122 26.0299H18.317C17.93 26.0299 17.6164 26.3438 17.6164 26.731C17.6164 27.1181 17.93 27.4321 18.317 27.4321H20.528L19.8901 32.288C19.8287 32.7552 19.4269 33.1078 18.9561 33.1078H7.97871C7.50797 33.1078 7.10616 32.7552 7.04478 32.288L6.40689 27.4321H15.757C16.1441 27.4321 16.4577 27.1181 16.4577 26.731C16.4577 26.3438 16.1441 26.0299 15.757 26.0299H6.22268L3.66563 6.56526C3.64639 6.41881 3.58139 6.28206 3.47983 6.17473C3.47983 6.17472 3.47982 6.17472 3.47982 6.17471L3.22847 5.90898H5.66788C6.0549 5.90898 6.36855 5.59502 6.36855 5.2079C6.36855 4.82077 6.0549 4.50681 5.66788 4.50681H2.30135V2.17168H24.6333V4.50689H8.22779C7.84076 4.50689 7.52712 4.82085 7.52712 5.20798C7.52712 5.5951 7.84076 5.90906 8.22779 5.90906H23.7062L23.4549 6.17481L23.4548 6.17483C23.3534 6.28211 23.2883 6.41876 23.2691 6.56535L22.7301 10.6675C22.6797 11.0513 22.9498 11.4035 23.3335 11.454C23.7178 11.5046 24.0691 11.234 24.1195 10.8503L24.6288 6.97361L25.8429 5.69L25.8429 5.68998C25.966 5.55979 26.0347 5.38742 26.0347 5.20814V2.08738C26.0347 1.36069 25.444 0.769507 24.7176 0.769507H24.6176H2.21705C1.49068 0.769507 0.9 1.36069 0.9 2.08738V5.20798C0.9 5.38724 0.968644 5.5597 1.09177 5.68984C1.09178 5.68984 1.09178 5.68985 1.09179 5.68985L2.30585 6.97344L5.65539 32.4707C5.77489 33.3803 6.41208 34.1139 7.24425 34.3907L7.70086 39.8425C7.80202 41.0512 8.83016 41.9975 10.0425 41.9975H16.8123C18.0246 41.9975 19.0527 41.0512 19.1539 39.8425L19.6084 34.4162C20.4806 34.1615 21.1561 33.41 21.2795 32.4707L23.7858 13.392C23.8362 13.0081 23.5661 12.656 23.1825 12.6055ZM16.8122 40.5953H10.0424C9.55375 40.5953 9.1381 40.2128 9.09726 39.7254L8.97403 38.2537H10.6121C10.6709 38.9302 11.2391 39.463 11.9305 39.463H14.9241C15.6155 39.463 16.1838 38.9302 16.2425 38.2537H17.8806L17.7573 39.7254C17.7166 40.2128 17.3009 40.5953 16.8122 40.5953ZM14.8468 38.061H12.0078V37.0444H14.8468V38.061ZM8.85652 36.8516L8.6604 34.51H18.1942L17.9981 36.8516H16.2425C16.1837 36.1751 15.6155 35.6423 14.9241 35.6423H11.9305C11.2391 35.6423 10.6709 36.1751 10.6121 36.8516H8.85652Z" fill="#2C5B5A" stroke="#2C5B5A" stroke-width="0.2"/>
<path d="M17.7565 15.7247C17.7565 13.336 15.8146 11.3927 13.4274 11.3927C11.0401 11.3927 9.09824 13.336 9.09824 15.7247C9.09824 18.1133 11.0401 20.0567 13.4274 20.0567C15.8146 20.0567 17.7565 18.1133 17.7565 15.7247ZM13.4274 18.6545C11.8132 18.6545 10.4996 17.3401 10.4996 15.7247C10.4996 14.1092 11.8132 12.7949 13.4274 12.7949C15.0416 12.7949 16.3551 14.1092 16.3551 15.7247C16.3551 17.3401 15.0416 18.6545 13.4274 18.6545Z" fill="#2C5B5A" stroke="#2C5B5A" stroke-width="0.2"/>
<path d="M14.1627 9.7976V9.24122C14.1627 8.85395 13.8491 8.53977 13.462 8.53977C13.0749 8.53977 12.7613 8.85395 12.7613 9.24122V9.7976C12.7613 10.1849 13.0749 10.499 13.462 10.499C13.8491 10.499 14.1627 10.1849 14.1627 9.7976Z" fill="#2C5B5A" stroke="#2C5B5A" stroke-width="0.2"/>
<path d="M18.5291 10.6689L18.5291 10.6689C18.2553 10.3949 17.8117 10.395 17.5381 10.6689L17.538 10.669L17.1452 11.0624C17.1452 11.0624 17.1452 11.0624 17.1452 11.0624C16.8716 11.3363 16.8717 11.7804 17.1452 12.0543L17.1452 12.0544C17.282 12.1913 17.4615 12.2598 17.6407 12.2598C17.8198 12.2598 17.9994 12.1913 18.1362 12.0543L18.1362 12.0543L18.5291 11.6608C18.5291 11.6608 18.5291 11.6608 18.5291 11.6608C18.8027 11.387 18.8027 10.9429 18.5291 10.6689Z" fill="#2C5B5A" stroke="#2C5B5A" stroke-width="0.2"/>
<path d="M19.3507 15.0584C18.9635 15.0584 18.65 15.3731 18.65 15.7606C18.65 16.1482 18.9635 16.4628 19.3507 16.4628H19.9063C20.2935 16.4628 20.607 16.1482 20.607 15.7606C20.607 15.3731 20.2935 15.0584 19.9063 15.0584H19.3507Z" fill="#2C5B5A" stroke="#2C5B5A" stroke-width="0.2"/>
<path d="M17.9838 21.0355C17.8046 21.0355 17.6251 20.967 17.4884 20.8301L17.0954 20.4368C17.0954 20.4368 17.0954 20.4368 17.0954 20.4368C16.8218 20.1631 16.8218 19.7191 17.0954 19.4453L17.9838 21.0355ZM17.9838 21.0355C18.1629 21.0355 18.3425 20.9671 18.4793 20.8301M17.9838 21.0355L18.4793 20.8301M18.4793 20.8301C18.7529 20.5563 18.7529 20.1123 18.4793 19.8385C18.4793 19.8385 18.4793 19.8385 18.4793 19.8385L18.0864 19.4453C17.8127 19.1714 17.369 19.1714 17.0954 19.4453L18.4793 20.8301Z" fill="#2C5B5A" stroke="#2C5B5A" stroke-width="0.2"/>
<path d="M12.692 21.6528V22.2091C12.692 22.5963 13.0056 22.9104 13.3927 22.9104C13.7798 22.9104 14.0934 22.5963 14.0934 22.2091V21.6528C14.0934 21.2656 13.7798 20.9515 13.3927 20.9515C13.0056 20.9515 12.692 21.2656 12.692 21.6528Z" fill="#2C5B5A" stroke="#2C5B5A" stroke-width="0.2"/>
<path d="M8.32584 20.7814L8.32587 20.7814C8.46269 20.9183 8.64214 20.9868 8.82131 20.9868C9.00046 20.9868 9.18002 20.9183 9.31685 20.7813L9.31685 20.7813L9.70967 20.3879C9.70968 20.3879 9.70968 20.3879 9.70968 20.3879C9.98326 20.114 9.98314 19.6699 9.70969 19.396L9.70966 19.396C9.43594 19.122 8.99232 19.1221 8.71869 19.396L8.71867 19.396L8.32584 19.7894L8.32584 19.7894C8.05228 20.0634 8.05237 20.5075 8.32584 20.7814Z" fill="#2C5B5A" stroke="#2C5B5A" stroke-width="0.2"/>
<path d="M6.94835 14.9887C6.56116 14.9887 6.24766 15.3033 6.24766 15.6909C6.24766 16.0784 6.56116 16.393 6.94835 16.393H7.50404C7.89123 16.393 8.20474 16.0784 8.20474 15.6909C8.20474 15.3033 7.89123 14.9887 7.50404 14.9887H6.94835Z" fill="#2C5B5A" stroke="#2C5B5A" stroke-width="0.2"/>
<path d="M9.26311 12.2105C9.08392 12.2105 8.90437 12.1419 8.76764 12.005L8.37473 11.6115C8.37472 11.6115 8.37472 11.6115 8.37471 11.6115C8.10113 11.3377 8.10115 10.8936 8.3747 10.6197L9.26311 12.2105ZM9.26311 12.2105C9.44226 12.2105 9.62182 12.142 9.75859 12.005M9.26311 12.2105L9.75859 12.005M9.75859 12.005C10.0322 11.731 10.0322 11.2869 9.75858 11.0131L9.36566 10.6197C9.09203 10.3457 8.64829 10.3456 8.37471 10.6197L9.75859 12.005Z" fill="#2C5B5A" stroke="#2C5B5A" stroke-width="0.2"/>
</svg>
