<svg width="20" height="40" viewBox="0 0 20 40" fill="none" xmlns="http://www.w3.org/2000/svg">
<path d="M0.95 4.12234H0.949866L0.950133 4.12598L2.87192 30.4031C2.8928 31.3128 3.22688 32.1875 3.81775 32.8793C4.39984 33.5608 5.19595 34.0236 6.075 34.1924V36.7691C6.06731 37.1144 6.12961 37.4578 6.25813 37.7784C6.38673 38.0993 6.57895 38.3907 6.82321 38.6351C7.06747 38.8795 7.3587 39.0719 7.67931 39.2006C7.99976 39.3292 8.34293 39.3915 8.68811 39.3838H11.2494C11.5946 39.3915 11.9377 39.3292 12.2582 39.2006C12.5788 39.0719 12.87 38.8795 13.1143 38.6351C13.3585 38.3907 13.5508 38.0993 13.6794 37.7784C13.8079 37.4578 13.8702 37.1144 13.8625 36.769V34.1924C14.7408 34.024 15.5364 33.562 16.1184 32.8815C16.7092 32.1908 17.0438 31.3172 17.0656 30.4082L18.9874 4.12598L18.9875 4.12599V4.12234V4.12232V4.1223V4.12229V4.12227V4.12225V4.12223V4.1222V4.12217V4.12216V4.12214V4.12213V4.12211V4.12209V4.12207V4.12205V4.12204V4.12201V4.12199V4.12197V4.12195V4.12193V4.1219V4.12188V4.12186V4.12183V4.12181V4.12178V4.12175V4.12172V4.1217V4.12167V4.12164V4.12161V4.12158V4.12155V4.12152V4.12148V4.12145V4.12142V4.12138V4.12135V4.12131V4.12128V4.12124V4.1212V4.12117V4.12113V4.12109V4.12105V4.12101V4.12097V4.12093V4.12089V4.12084V4.1208V4.12076V4.12071V4.12067V4.12063V4.12058V4.12053V4.12049V4.12044V4.12039V4.12034V4.1203V4.12025V4.1202V4.12015V4.1201V4.12004V4.11999V4.11994V4.11989V4.11983V4.11978V4.11973V4.11967V4.11962V4.11956V4.1195V4.11945V4.11939V4.11933V4.11927V4.11921V4.11915V4.11909V4.11903V4.11897V4.11891V4.11885V4.11879V4.11872V4.11866V4.1186V4.11853V4.11847V4.1184V4.11834V4.11827V4.1182V4.11814V4.11807V4.118V4.11793V4.11786V4.11779V4.11772V4.11765V4.11758V4.11751V4.11744V4.11737V4.1173V4.11722V4.11715V4.11708V4.117V4.11693V4.11685V4.11678V4.1167V4.11662V4.11655V4.11647V4.11639V4.11631V4.11624V4.11616V4.11608V4.116V4.11592V4.11584V4.11576V4.11567V4.11559V4.11551V4.11543V4.11535V4.11526V4.11518V4.11509V4.11501V4.11493V4.11484V4.11475V4.11467V4.11458V4.1145V4.11441V4.11432V4.11423V4.11414V4.11406V4.11397V4.11388V4.11379V4.1137V4.11361V4.11352V4.11343V4.11334V4.11324V4.11315V4.11306V4.11297V4.11287V4.11278V4.11269V4.11259V4.1125V4.1124V4.11231V4.11221V4.11212V4.11202V4.11192V4.11183V4.11173V4.11163V4.11154V4.11144V4.11134V4.11124V4.11114V4.11104V4.11094V4.11084V4.11074V4.11064V4.11054V4.11044V4.11034V4.11024V4.11014V4.11004V4.10993V4.10983V4.10973V4.10963V4.10952V4.10942V4.10931V4.10921V4.10911V4.109V4.1089V4.10879V4.10869V4.10858V4.10847V4.10837V4.10826V4.10815V4.10805V4.10794V4.10783V4.10773V4.10762V4.10751V4.1074V4.10729V4.10718V4.10707V4.10697V4.10686V4.10675V4.10664V4.10653V4.10642V4.10631V4.10619V4.10608V4.10597V4.10586V4.10575V4.10564V4.10553V4.10541V4.1053V4.10519V4.10508V4.10496V4.10485V4.10474V4.10462V4.10451V4.10439V4.10428V4.10417V4.10405V4.10394V4.10382V4.10371V4.10359V4.10348V4.10336V4.10325V4.10313V4.10301V4.1029V4.10278V4.10267V4.10255V4.10243V4.10232V4.1022V4.10208V4.10197V4.10185V4.10173V4.10161V4.1015V4.10138V4.10126V4.10114V4.10102V4.1009V4.10079V4.10067V4.10055V4.10043V4.10031V4.10019V4.10007V4.09995V4.09983V4.09971V4.0996V4.09948V4.09936V4.09924V4.09912V4.099V4.09888V4.09876V4.09864V4.09852V4.09839V4.09827V4.09815V4.09803V4.09791V4.09779V4.09767V4.09755V4.09743V4.09731V4.09719V4.09707V4.09694V4.09682V4.0967V4.09658V4.09646V4.09634V4.09622V4.09609V4.09597V4.09585V4.09573V4.09561V4.09549V4.09536V4.09524V4.09512V4.095V4.09488V4.09475V4.09463V4.09451V4.09439V4.09427V4.09414V4.09402V4.0939V4.09378V4.09366V4.09353V4.09341V4.09329V4.09317V4.09305V4.09292V4.0928V4.09268V4.09256V4.09244V4.09231V4.09219V4.09207V4.09195V4.09183V4.09171V4.09158V4.09146V4.09134V4.09122V4.0911V4.09098V4.09085V4.09073V4.09061V4.09049V4.09037V4.09025V4.09013V4.09V4.08988V4.08976V4.08964V4.08952V4.0894V4.08928V4.08916V4.08904V4.08892V4.0888V4.08867V4.08855V4.08843V4.08831V4.08819V4.08807V4.08795V4.08783V4.08771V4.08759V4.08747V4.08735V4.08724V4.08712V4.087V4.08688V4.08676V4.08664V4.08652V4.0864V4.08628V4.08617V4.08605V4.08593V4.08581V4.08569V4.08558V4.08546V4.08534V4.08522V4.08511V4.08499V4.08487V4.08475V4.08464V4.08452V4.0844V4.08429V4.08417V4.08406V4.08394V4.08382V4.08371V4.08359V4.08348V4.08336V4.08325V4.08313V4.08302V4.0829V4.08279V4.08268V4.08256V4.08245V4.08234V4.08222V4.08211V4.082V4.08188V4.08177V4.08166V4.08155V4.08143V4.08132V4.08121V4.0811V4.08099V4.08088V4.08077V4.08066V4.08055V4.08044V4.08033V4.08022V4.08011V4.08V4.07989V4.07978V4.07967V4.07956V4.07945V4.07935V4.07924V4.07913V4.07903V4.07892V4.07881V4.07871V4.0786V4.07849V4.07839V4.07828V4.07818V4.07807V4.07797V4.07786V4.07776V4.07765V4.07755V4.07745V4.07735V4.07724V4.07714V4.07704V4.07694V4.07683V4.07673V4.07663V4.07653V4.07643V4.07633V4.07623V4.07613V4.07603V4.07593V4.07583V4.07574V4.07564V4.07554V1.5113C18.9875 1.32803 18.9147 1.15226 18.7852 1.02266C18.6557 0.893055 18.4801 0.820239 18.2969 0.820239H1.64062C1.45745 0.820239 1.28178 0.893055 1.15227 1.02266C1.02275 1.15226 0.95 1.32803 0.95 1.5113V4.07554V4.12234ZM11.2523 38.0018L11.2523 38.0017H11.25L8.6875 38.0017L8.68517 38.0018C8.52176 38.0094 8.35856 37.9828 8.20601 37.9237C8.05346 37.8646 7.91491 37.7743 7.79923 37.6585C7.68356 37.5428 7.59329 37.4041 7.53422 37.2514C7.4809 37.1136 7.45405 36.9671 7.45494 36.8196H12.4826C12.4834 36.9671 12.4566 37.1136 12.4033 37.2514C12.3442 37.4041 12.2539 37.5428 12.1383 37.6585C12.0226 37.7743 11.884 37.8646 11.7315 37.9237C11.5789 37.9828 11.4157 38.0094 11.2523 38.0018ZM15.6845 30.3137L15.6843 30.3137L15.6844 30.3177C15.6892 30.988 15.4289 31.6329 14.9602 32.1117C14.4915 32.5905 13.8527 32.8642 13.183 32.8732C13.1829 32.8732 13.1828 32.8732 13.1827 32.8732H6.75479C6.75469 32.8732 6.7546 32.8732 6.75451 32.8732C6.0841 32.8639 5.44464 32.5893 4.97591 32.1096C4.50712 31.6297 4.24725 30.9837 4.25312 30.3126H4.25329L4.25299 30.3085L2.91845 12.0807C3.47867 11.7977 3.99356 11.4325 4.446 10.9972L4.44612 10.9973L4.44893 10.9941C4.73984 10.6621 5.09565 10.3934 5.49439 10.2043C5.89286 10.0154 6.32576 9.91019 6.76641 9.89508C7.16884 9.89626 7.56522 9.99321 7.92283 10.1779C8.28071 10.3628 8.58949 10.6302 8.82362 10.9582L8.82359 10.9582L8.82484 10.9598C9.18803 11.4268 9.65301 11.8047 10.1843 12.0646C10.7156 12.3244 11.2992 12.4595 11.8906 12.4593L11.8921 12.4593C13.1449 12.4233 14.3359 11.9063 15.2183 11.0156L15.2183 11.0156C15.7542 10.4741 16.435 10.1 17.1781 9.93776L15.6845 30.3137ZM3.52714 9.96929C3.29918 10.1783 3.05893 10.3735 2.80767 10.5537L2.38373 4.7666H17.5538L17.2769 8.54047C16.1642 8.67339 15.1266 9.17257 14.3277 9.96012L14.3277 9.9601L14.3265 9.96138C13.6894 10.6353 12.8157 11.0354 11.8896 11.0772C11.4872 11.076 11.091 10.979 10.7334 10.7943C10.3755 10.6095 10.0668 10.342 9.83263 10.0141L9.83266 10.0141L9.83141 10.0125C9.46822 9.54544 9.00324 9.16758 8.47192 8.90771C7.94061 8.64783 7.357 8.51282 6.76561 8.51295L6.76469 8.51297C6.15437 8.52437 5.5527 8.65943 4.996 8.91C4.43995 9.16028 3.9403 9.52062 3.52714 9.96929ZM12.4812 35.4375H7.45625V34.2554H12.4812V35.4375ZM17.6063 3.38448H2.33125V2.20236H17.6063V3.38448Z" fill="#2C5B5A" stroke="#2C5B5A" stroke-width="0.1"/>
<path d="M9.43964 19.0166L9.43961 19.0166L9.43835 19.0181C9.21135 19.2902 8.53211 20.1244 7.90936 21.0875C7.59799 21.569 7.3001 22.0837 7.07989 22.5773C6.8601 23.0698 6.71562 23.5458 6.71562 23.9484C6.71562 24.8118 7.05836 25.6397 7.66843 26.2502C8.27851 26.8607 9.10596 27.2037 9.96875 27.2037C10.8315 27.2037 11.659 26.8607 12.2691 26.2502C12.8791 25.6397 13.2219 24.8118 13.2219 23.9484C13.2219 23.5458 13.0774 23.0698 12.8576 22.5773C12.6374 22.0837 12.3395 21.569 12.0281 21.0875C11.4054 20.1244 10.7261 19.2902 10.4991 19.0181L10.4992 19.0181L10.4979 19.0166C10.431 18.9426 10.3494 18.8834 10.2582 18.8429C10.1671 18.8024 10.0685 18.7814 9.96875 18.7814C9.86902 18.7814 9.7704 18.8024 9.67926 18.8429C9.58812 18.8834 9.50649 18.9426 9.43964 19.0166ZM9.96875 25.8216C9.47231 25.8216 8.99619 25.6242 8.64515 25.273C8.2941 24.9217 8.09687 24.4452 8.09687 23.9484C8.09687 23.7865 8.1566 23.5666 8.26456 23.3051C8.372 23.0448 8.52517 22.7482 8.7075 22.4345C9.06158 21.8255 9.52371 21.1556 9.96881 20.5692C10.4142 21.1543 10.8763 21.8234 11.2302 22.4324C11.4125 22.746 11.5656 23.0427 11.673 23.3033C11.7809 23.5652 11.8406 23.7857 11.8406 23.9484C11.8406 24.4452 11.6434 24.9217 11.2924 25.273C10.9413 25.6242 10.4652 25.8216 9.96875 25.8216Z" fill="#2C5B5A" stroke="#2C5B5A" stroke-width="0.1"/>
<path d="M4.20312 12.3594H4.15312V12.4094V13.6914V13.7414H4.20312H5.48438H5.53437V13.6914V12.4094V12.3594H5.48438H4.20312Z" fill="#2C5B5A" stroke="#2C5B5A" stroke-width="0.1"/>
<path d="M6.76562 14.2825H6.71562V14.3325V15.6146V15.6646H6.76562H8.04688H8.09687V15.6146V14.3325V14.2825H8.04688H6.76562Z" fill="#2C5B5A" stroke="#2C5B5A" stroke-width="0.1"/>
</svg>
