<svg width="19" height="41" viewBox="0 0 19 41" fill="none" xmlns="http://www.w3.org/2000/svg">
<path d="M15.8661 12.9266C15.5687 12.6428 15.2612 12.3493 14.9275 12.0156L14.8907 11.9788C15.1314 11.8407 15.2935 11.5811 15.2935 11.2838V7.52734C15.2935 7.08515 14.935 6.72656 14.4927 6.72656H14.086V4.16406C14.086 3.72187 13.7275 3.36328 13.2852 3.36328H11.205C10.7061 3.36328 10.3002 2.95745 10.3002 2.45856V0.800781C10.3002 0.35851 9.94173 0 9.49946 0H8.42946C6.49045 0 4.91283 1.57754 4.91283 3.51663V6.72656H4.50611C4.06384 6.72656 3.70533 7.08515 3.70533 7.52734V11.2838C3.70533 11.5811 3.86741 11.8407 4.10804 11.9788L4.07129 12.0156C3.73752 12.3493 3.43002 12.6428 3.13261 12.9266C1.45266 14.5301 0.342773 15.5894 0.342773 18.6146V40.1992C0.342773 40.6414 0.701283 41 1.14355 41H17.855C18.2972 41 18.6557 40.6414 18.6557 40.1992V18.6146C18.656 15.5894 17.5461 14.5301 15.8661 12.9266ZM5.30697 8.32812H13.6919V10.483H5.30697V8.32812ZM6.51447 3.51663C6.51447 2.46064 7.37355 1.60156 8.42954 1.60156H8.69868V2.45856C8.69868 3.84055 9.82298 4.96484 11.205 4.96484H12.4845V6.72656H6.51439V3.51663H6.51447ZM17.0544 39.3984H1.94449V18.6146C1.94449 16.2748 2.61603 15.6337 4.23857 14.0853C4.52845 13.8086 4.85693 13.495 5.20383 13.1481L6.26735 12.0847H12.7316L13.7951 13.1481C14.142 13.495 14.4705 13.8086 14.7603 14.0853C16.3829 15.6338 17.0544 16.2748 17.0544 18.6146V39.3984Z" fill="#2C5B5A"/>
<path d="M13.1612 21.2888H12.4171C11.9905 21.2888 11.5807 21.1247 11.2925 20.8387C11.2907 20.8368 11.2876 20.8338 11.2857 20.8319C10.6617 20.2078 10.3905 19.2966 10.5604 18.3944C10.6093 18.1344 10.5268 17.8671 10.3397 17.68C10.1525 17.4929 9.88501 17.4103 9.62532 17.4593C8.76824 17.6207 7.95961 18.0461 7.34845 18.6573C6.63183 19.3739 6.19901 20.3015 6.10324 21.2887H5.7557C4.27658 21.2887 3.07332 22.492 3.07332 23.971C3.07332 24.6345 3.3154 25.2423 3.71587 25.7111C3.15076 26.2033 2.79297 26.9276 2.79297 27.7341V27.7857C2.79297 27.7866 2.79305 27.7946 2.79305 27.7955C2.79737 29.0386 3.81589 30.05 5.06358 30.05H13.9358C15.1832 30.05 16.2016 29.0386 16.2061 27.7959C16.2061 27.7937 16.2061 27.7878 16.2061 27.7857V27.7341C16.2061 26.9051 15.8281 26.1627 15.2353 25.6703C15.6154 25.2074 15.8438 24.6154 15.8438 23.971C15.8436 22.492 14.6403 21.2888 13.1612 21.2888ZM14.6044 27.7899C14.6031 28.153 14.3032 28.4485 13.9357 28.4485H5.06358C4.70219 28.4485 4.39589 28.1469 4.39461 27.7858V27.7342C4.39461 27.1383 4.87948 26.6535 5.47543 26.6535H5.75578C6.19805 26.6535 6.55656 26.2949 6.55656 25.8527C6.55656 25.4104 6.19805 25.0519 5.75578 25.0519C5.15984 25.0519 4.67496 24.567 4.67496 23.9711C4.67496 23.3752 5.15984 22.8904 5.75578 22.8904H6.90426C7.13144 22.8904 7.34797 22.7939 7.49988 22.6249C7.65171 22.4559 7.72474 22.2303 7.70056 22.0045C7.61255 21.1811 7.89699 20.374 8.48108 19.7899C8.61857 19.6523 8.77216 19.5296 8.93752 19.4241C9.04659 20.3807 9.4682 21.2793 10.1576 21.9687C10.158 21.9691 10.1638 21.9747 10.1642 21.9751C10.7499 22.5568 11.5711 22.8904 12.4172 22.8904H13.1613C13.7573 22.8904 14.2421 23.3753 14.2421 23.9712C14.2421 24.5671 13.7573 25.052 13.1613 25.052C12.7191 25.052 12.3605 25.4105 12.3605 25.8528C12.3605 26.2949 12.7191 26.6535 13.1613 26.6535H13.5237C14.1196 26.6535 14.6045 27.1384 14.6045 27.7343L14.6044 27.7899Z" fill="#2C5B5A"/>
<path d="M14.3479 32.3243H4.65039C4.20812 32.3243 3.84961 32.6828 3.84961 33.1251C3.84961 33.5673 4.20812 33.9259 4.65039 33.9259H14.3479C14.7901 33.9259 15.1486 33.5673 15.1486 33.1251C15.1486 32.6829 14.7901 32.3243 14.3479 32.3243Z" fill="#2C5B5A"/>
</svg>
