<svg width="43" height="43" viewBox="0 0 43 43" fill="none" xmlns="http://www.w3.org/2000/svg">
<path d="M9.22403 23.4916C7.95205 23.4916 6.91758 24.5269 6.91758 25.7996C6.91758 27.0722 7.95205 28.1076 9.22403 28.1076C10.496 28.1076 11.5305 27.0722 11.5305 25.7996C11.5305 24.5269 10.496 23.4916 9.22403 23.4916ZM9.22403 26.7032C8.72627 26.7032 8.3211 26.2978 8.3211 25.7996C8.3211 25.3013 8.72627 24.8959 9.22403 24.8959C9.72179 24.8959 10.127 25.3013 10.127 25.7996C10.127 26.2978 9.72179 26.7032 9.22403 26.7032Z" fill="#2C5B5A" stroke="#2C5B5A" stroke-width="0.2"/>
<path d="M22.0619 23.4916C20.7899 23.4916 19.7555 24.5269 19.7555 25.7996C19.7555 27.0722 20.7899 28.1076 22.0619 28.1076C23.3339 28.1076 24.3684 27.0722 24.3684 25.7996C24.3684 24.5269 23.3339 23.4916 22.0619 23.4916ZM22.0619 26.7032C21.5642 26.7032 21.159 26.2978 21.159 25.7996C21.159 25.3013 21.5642 24.8959 22.0619 24.8959C22.5597 24.8959 22.9649 25.3013 22.9649 25.7996C22.9649 26.2978 22.5597 26.7032 22.0619 26.7032Z" fill="#2C5B5A" stroke="#2C5B5A" stroke-width="0.2"/>
<path d="M12.9736 34.8258L12.9098 34.7487L12.8328 34.8125L11.9059 35.5807L11.829 35.6445L11.8927 35.7215C12.8833 36.9181 14.2149 37.5816 15.6425 37.5816C17.0702 37.5816 18.4018 36.9181 19.3924 35.7215L19.4561 35.6445L19.3792 35.5807L18.4523 34.8125L18.3753 34.7487L18.3115 34.8258C17.5869 35.7009 16.6386 36.1772 15.6425 36.1772C14.6465 36.1772 13.6982 35.7009 12.9736 34.8258ZM15.6425 37.3816C14.3109 37.3816 13.0604 36.7775 12.1112 35.6704L18.4009 35.0297L19.1739 35.6704C18.2247 36.7775 16.9742 37.3816 15.6425 37.3816Z" fill="#2C5B5A" stroke="#2C5B5A" stroke-width="0.2"/>
<path d="M32.5234 23.2727C32.9953 25.9289 31.3519 27.3659 30.8328 27.7468H30.3765C30.3824 27.5782 30.3857 27.4105 30.3857 27.2446V20.8215C30.3857 14.6132 26.5337 9.28891 21.0964 7.11491C21.1377 6.84162 21.1587 6.56553 21.1587 6.28905C21.1587 3.24551 18.6845 0.769507 15.6429 0.769507C12.6012 0.769507 10.127 3.24551 10.127 6.28905C10.127 6.56546 10.148 6.84161 10.1893 7.11492C4.75201 9.28892 0.9 14.6132 0.9 20.8215V27.2446C0.9 35.3794 7.51345 41.9975 15.6429 41.9975C18.9339 41.9975 22.0786 40.9157 24.6497 38.9248C24.6703 40.6227 26.0567 41.9975 27.7583 41.9975H38.9912C40.7056 41.9975 42.1 40.602 42.1 38.8866V33.4671V33.3671H42H40.8965V31.0584V30.9584H40.7965H39.6521C39.5816 30.1291 39.3902 28.6607 38.8715 27.1738C38.3357 25.6378 37.5804 24.4559 36.6272 23.6575C35.6726 22.858 34.5247 22.4477 33.2143 22.4477H32.4961H32.3768L32.3976 22.5652L32.5234 23.2727ZM34.9795 29.1511H35.0794V29.0511V27.8468V27.7468H34.9795H32.8122C33.4659 26.9035 34.0856 25.64 34.0067 23.9254C35.6551 24.243 36.6733 25.5515 37.3027 27.026C37.921 28.4747 38.154 30.0619 38.2403 30.9584H28.4601V30.8576C28.4601 29.9167 29.2252 29.1511 30.1654 29.1511H34.9795ZM18.2209 13.7228C14.837 18.0193 9.91807 20.1722 2.30548 20.6415C2.40209 13.3639 8.34779 7.47296 15.6429 7.47296C22.8816 7.47296 28.7914 13.2734 28.9767 20.4733C26.2948 19.7345 24.3787 18.8222 22.8966 17.7254C21.3912 16.6114 20.3284 15.3032 19.3649 13.7816L18.91 13.0632L18.8344 12.9438L18.747 13.0548L18.2209 13.7228ZM24.7495 33.3671H24.6495V33.4671V37.0898C22.1838 39.351 18.9977 40.5931 15.6429 40.5931C8.28766 40.5931 2.30352 34.6049 2.30352 27.2446V22.0486C5.79331 21.8398 8.71692 21.2905 11.2187 20.371C14.2601 19.253 16.7205 17.5999 18.7085 15.3319C20.718 18.2214 23.4159 20.462 28.9822 21.9288V27.2446C28.9822 27.4895 28.9745 27.7393 28.9602 27.991C27.8432 28.4629 27.0566 29.5695 27.0566 30.8576V30.9584H25.953H25.853V31.0584V33.3671H24.7495ZM39.493 32.3627V33.3671H27.2566V32.3627H39.493ZM15.6429 2.17385C17.9103 2.17385 19.7552 4.01999 19.7552 6.28905C19.7552 6.40909 19.7496 6.52913 19.7389 6.64893C18.4378 6.2718 17.0637 6.06862 15.6429 6.06862C14.2221 6.06862 12.8479 6.2718 11.5469 6.64894C11.5361 6.52911 11.5305 6.40903 11.5305 6.28905C11.5305 4.01999 13.3754 2.17385 15.6429 2.17385ZM40.6965 38.8866C40.6965 39.8275 39.9314 40.5931 38.9912 40.5931H27.7583C26.8181 40.5931 26.053 39.8275 26.053 38.8866V34.7714H40.6965V38.8866Z" fill="#2C5B5A" stroke="#2C5B5A" stroke-width="0.2"/>
</svg>
