<svg width="41" height="41" viewBox="0 0 41 41" fill="none" xmlns="http://www.w3.org/2000/svg">
<path d="M15.7371 28.3642H14.4767L15.5044 24.9062C15.6304 24.4823 15.3888 24.0365 14.9649 23.9105C14.5409 23.7847 14.0951 24.026 13.9692 24.4499L12.6357 28.9368C12.5637 29.179 12.6103 29.4411 12.7614 29.6437C12.9125 29.8463 13.1505 29.9657 13.4033 29.9657H15.7371C16.1793 29.9657 16.5378 29.6071 16.5378 29.1649C16.5378 28.7227 16.1793 28.3642 15.7371 28.3642Z" fill="#2C5B5A"/>
<path d="M38.6711 27.9307L30.0568 27.315C30.0483 27.3144 30.0399 27.3149 30.0314 27.3146C30.0208 27.3142 30.0104 27.313 29.9997 27.313H25.8009C26.0422 26.5891 26.2498 25.8523 26.421 25.1108C26.8224 24.3768 28.9215 20.3324 28.9215 16.0286C28.9215 15.0369 28.773 14.0196 28.4802 13.0051C28.3575 12.5802 27.9133 12.335 27.4887 12.4579C27.0638 12.5805 26.8188 13.0244 26.9415 13.4493C27.1891 14.3071 27.32 15.1991 27.32 16.0286C27.32 18.5662 26.4794 21.0719 25.8032 22.6769C25.0639 21.0983 23.719 19.823 21.8914 19.823C19.0305 19.823 15.3733 18.3819 15.3733 15.0082V7.89521C15.3733 7.01707 15.9135 6.20572 16.7243 5.86891C17.3852 5.59441 18.0091 5.73382 18.6725 5.90111C20.4491 6.36852 22.0019 7.11012 23.2942 8.11174C23.6439 8.38264 24.1468 8.31898 24.4177 7.96936C24.6886 7.61982 24.6249 7.11677 24.2753 6.84586C22.9488 5.81782 21.3917 5.0337 19.6335 4.50687C19.3401 1.97352 17.1829 0 14.5722 0C11.9618 0 9.80463 1.97328 9.51122 4.50631C6.60231 5.38068 4.22351 6.97231 2.58184 9.15587C1.07941 11.1541 0.217773 13.6591 0.217773 16.0286C0.217773 20.3344 2.43585 24.3784 2.86731 25.1241C3.76282 29.2196 5.51485 33.4762 8.75905 36.2819L8.28971 40.1015C8.23574 40.5404 8.54788 40.9401 8.98687 40.9941C9.02002 40.9982 9.05293 41.0001 9.08553 41.0001C9.48423 41.0001 9.82945 40.7027 9.87934 40.2969L10.2415 37.3496C12.9539 38.9351 16.1623 38.9476 18.9057 37.4118L19.2596 40.2968C19.3135 40.7357 19.7125 41.0476 20.152 40.9941C20.5909 40.9402 20.9031 40.5407 20.8493 40.1017L20.3938 36.3885C21.4761 35.4805 22.2869 34.2443 23.0365 33.0616H29.9998H29.9999C30.0181 33.0616 30.0366 33.061 30.0549 33.0598L38.6655 32.4662C39.8526 32.3844 40.7825 31.3882 40.7825 30.1984C40.7823 29.0114 39.855 28.0154 38.6711 27.9307ZM24.9675 31.46H23.0213C21.854 31.46 20.8551 30.47 20.8551 29.2938V27.8393C22.143 28.4403 23.5505 28.792 24.9675 28.8876V31.46ZM14.5722 1.60156C16.1571 1.60156 17.4989 2.66211 17.9254 4.11072C16.6451 3.98796 15.3596 4.54803 14.5697 5.56278C13.78 4.54931 12.498 3.98932 11.2191 4.11032C11.6458 2.66187 12.9876 1.60156 14.5722 1.60156ZM3.86196 10.1183C5.38697 8.0898 7.6639 6.63958 10.4734 5.89902C11.9727 5.51841 13.7659 5.96204 13.7659 7.89521V15.0066C13.7659 16.2719 13.1802 17.5163 12.18 18.2968C10.882 19.3094 9.22254 19.8231 7.24782 19.8231C5.43709 19.8231 4.11853 21.0828 3.42281 22.6664C2.70796 21.0667 1.81925 18.5677 1.81925 16.0286C1.81933 13.9991 2.56382 11.8449 3.86196 10.1183ZM19.7112 34.8465C16.8506 37.8629 12.1661 37.436 9.37437 34.6703C6.74525 31.9127 5.24667 28.4985 4.43604 24.8029C4.69365 23.3515 5.51413 21.4248 7.2483 21.4248C9.58874 21.4248 11.5796 20.7971 13.1653 19.5594C13.7302 19.1185 14.2083 18.5654 14.5696 17.9469C16.0308 20.4429 19.1541 21.4248 21.8914 21.4248C23.644 21.4248 24.5212 23.3548 24.8454 24.819C24.6585 25.6171 24.4265 26.4093 24.1533 27.1831C21.93 26.8245 20.5527 25.8434 20.5283 25.8258C20.0001 25.4379 19.271 25.8369 19.2537 26.4714V29.2938C19.2588 30.7185 20.0911 32.0558 21.3745 32.6818C20.8713 33.4426 20.335 34.1793 19.7112 34.8465ZM26.569 28.9145H29.1989V31.46H26.569V28.9145ZM38.5553 30.8684L30.8005 31.403V28.9738L38.5569 29.5283C38.9067 29.5533 39.1807 29.8476 39.1807 30.1983C39.1807 30.5498 38.906 30.8442 38.5553 30.8684Z" fill="#2C5B5A"/>
<path d="M25.7482 10.6856C26.0497 10.887 26.4613 10.8566 26.7303 10.6134C26.9688 10.3976 27.0546 10.0482 26.9445 9.74643C26.7029 9.08459 25.747 9.04951 25.4606 9.69558C25.3057 10.045 25.4263 10.4755 25.7482 10.6856Z" fill="#2C5B5A"/>
</svg>
