<svg width="41" height="41" viewBox="0 0 41 41" fill="none" xmlns="http://www.w3.org/2000/svg">
<path d="M7.35625 21.0245C7.35625 27.5449 11.0571 33.3463 16.8716 36.1123C16.5344 36.5517 16.325 37.0952 16.325 37.6921V37.7421H16.375H17.6562H17.7062V37.6921C17.7062 37.0126 18.2585 36.46 18.9375 36.46C19.6165 36.46 20.1688 37.0126 20.1688 37.6921C20.1688 38.3716 19.6165 38.9242 18.9375 38.9242C17.1128 38.9242 13.8264 38.1441 11.0219 37.0669C11.1972 36.6683 11.3 36.2317 11.3 35.7689C11.3 35.0308 11.0554 34.3306 10.6046 33.759C10.6412 33.5681 10.6594 33.385 10.6594 33.2047C10.6594 31.7947 9.75311 30.6041 8.49812 30.153C8.46417 27.743 7.37663 25.4312 6.6906 24.2212C6.22751 23.4042 5.35693 22.8977 4.41773 22.8977H4.20312C2.76226 22.8977 1.59062 24.0702 1.59062 25.512C1.59062 26.9537 2.76226 28.1262 4.20312 28.1262H5.48438H5.53438V28.0762V26.7941V26.7441H5.48438H4.20312C3.52416 26.7441 2.97187 26.1915 2.97187 25.512C2.97187 24.8325 3.52416 24.2798 4.20312 24.2798H4.41773C4.86102 24.2798 5.27103 24.5189 5.48827 24.9026L5.48828 24.9026C6.09035 25.9647 7.03126 27.9457 7.11613 29.974C6.65129 30.0157 6.20056 30.152 5.79567 30.3828C5.3235 30.1143 4.78498 29.9494 4.20312 29.9494C2.40928 29.9494 0.95 31.4097 0.95 33.2047C0.95 34.1016 1.33131 34.9525 1.96878 35.5606C1.73509 36.0083 1.59062 36.5105 1.59062 37.051C1.59062 38.846 3.0499 40.3063 4.84375 40.3063C5.91992 40.3063 6.86953 39.7757 7.46204 38.9683C7.65385 39.0037 7.849 39.0242 8.04688 39.0242C8.86199 39.0242 9.59939 38.7134 10.1702 38.2166C13.2235 39.4355 16.8459 40.3063 18.9375 40.3063C20.3784 40.3063 21.55 39.1339 21.55 37.6921C21.55 37.6537 21.5458 37.6172 21.5412 37.5832C21.5396 37.5711 21.538 37.5596 21.5365 37.5482C22.37 37.6749 23.215 37.7421 24.0625 37.7421C33.2748 37.7421 40.7687 30.243 40.7687 21.0245V17.1782C40.7687 7.96036 33.2748 0.46062 24.0625 0.46062C14.8502 0.46062 7.35625 7.96036 7.35625 17.1782V21.0245ZM9.07339 34.1145L9.06454 34.1434L9.08604 34.1646L9.36149 34.4371C9.3615 34.4371 9.3615 34.4371 9.36151 34.4371C9.72107 34.7932 9.91875 35.2657 9.91875 35.7689C9.91875 36.8017 9.07882 37.6421 8.04688 37.6421C8.0454 37.6421 8.0439 37.6421 8.04235 37.642C8.07787 37.4505 8.09688 37.2527 8.09688 37.051C8.09688 36.6728 8.03295 36.3058 7.90751 35.9561C8.02541 35.7039 8.09688 35.4255 8.09688 35.1279C8.09688 34.5393 7.83271 34.0175 7.42439 33.6561C7.44526 33.5074 7.45625 33.357 7.45625 33.2047C7.45625 32.5371 7.25103 31.9192 6.90568 31.4027C7.06672 31.3572 7.23397 31.3315 7.40625 31.3315C8.4382 31.3315 9.27812 32.172 9.27812 33.2047C9.27812 33.3658 9.24918 33.5371 9.18672 33.7441L9.07339 34.1145ZM33.1836 27.2827L36.2309 30.332C33.4275 33.9936 29.0165 36.36 24.0625 36.36C23.0117 36.36 21.9646 36.2488 20.9445 36.0377C20.4656 35.4572 19.7488 35.0779 18.9375 35.0779C18.6811 35.0779 18.4395 35.1261 18.208 35.1941C15.6418 34.1324 13.4855 32.4444 11.8806 30.3455L14.9414 27.2827L14.9767 27.2473L14.9414 27.212L14.0356 26.3055L14.0002 26.2701L13.9648 26.3055L11.0815 29.1909C9.58378 26.8035 8.7375 23.9975 8.7375 21.0245V17.1782C8.7375 14.8557 9.25743 12.6534 10.1848 10.6788L11.4036 11.8979L11.439 11.9332L11.4744 11.8979L12.3802 10.9914L12.4155 10.9561L12.3802 10.9207L10.8624 9.40184C13.531 4.88261 18.4477 1.84274 24.0625 1.84274C29.6773 1.84274 34.594 4.88261 37.2626 9.40184L35.7448 10.9207L35.7095 10.9561L35.7448 10.9914L36.6507 11.8979L36.686 11.9332L36.7214 11.8979L37.9402 10.6782C38.8676 12.6534 39.3875 14.8557 39.3875 17.1782V21.0245C39.3875 24.0201 38.5212 26.8148 37.0315 29.1788L34.1602 26.3055L34.1248 26.2701L34.0894 26.3055L33.1836 27.212L33.1483 27.2473L33.1836 27.2827ZM6.125 34.5368C6.45098 34.5368 6.71562 34.8016 6.71562 35.1279C6.71562 35.4541 6.45098 35.7189 6.125 35.7189C5.79902 35.7189 5.53438 35.4541 5.53438 35.1279C5.53438 34.8016 5.79902 34.5368 6.125 34.5368ZM4.20312 31.3315C5.21859 31.3315 6.04812 32.1453 6.07436 33.1553C5.51439 33.1698 5.01659 33.4237 4.66657 33.8123C3.98221 33.85 3.35928 34.0992 2.85163 34.4973C2.52136 34.154 2.33125 33.6977 2.33125 33.2047C2.33125 32.172 3.17118 31.3315 4.20312 31.3315ZM4.84375 38.9242C3.8118 38.9242 2.97187 38.0838 2.97187 37.051C2.97187 36.2572 3.47072 35.5842 4.16991 35.3124C4.26412 36.3126 5.10018 37.101 6.125 37.101C6.33104 37.101 6.52613 37.0632 6.71089 37.0038C6.71367 37.0216 6.71562 37.0364 6.71562 37.051C6.71562 38.0838 5.8757 38.9242 4.84375 38.9242Z" fill="#2C5B5A" stroke="#2C5B5A" stroke-width="0.1"/>
<path d="M24.0625 26.103C22.2593 26.103 20.6484 26.527 19.4866 27.2246C18.3255 27.9218 17.6062 28.8971 17.6062 29.9993C17.6062 31.1016 18.3255 32.0769 19.4866 32.7741C20.6484 33.4716 22.2593 33.8957 24.0625 33.8957C25.8657 33.8957 27.4766 33.4716 28.6384 32.7741C29.7995 32.0769 30.5188 31.1016 30.5188 29.9993C30.5188 28.8971 29.7995 27.9218 28.6384 27.2246C27.4766 26.527 25.8657 26.103 24.0625 26.103ZM24.0625 32.5136C22.5592 32.5136 21.2864 32.1772 20.3911 31.6923C19.492 31.2053 18.9875 30.5772 18.9875 29.9993C18.9875 29.4214 19.492 28.7933 20.3911 28.3063C21.2864 27.8214 22.5592 27.4851 24.0625 27.4851C25.5658 27.4851 26.8386 27.8214 27.7339 28.3063C28.633 28.7933 29.1375 29.4214 29.1375 29.9993C29.1375 30.5772 28.633 31.2053 27.7339 31.6923C26.8386 32.1772 25.5658 32.5136 24.0625 32.5136Z" fill="#2C5B5A" stroke="#2C5B5A" stroke-width="0.1"/>
<path d="M22.8313 12.6907C22.8313 11.6108 22.2459 10.6356 21.3084 9.93208C20.371 9.22857 19.079 8.79436 17.6562 8.79436C16.2335 8.79436 14.9415 9.22857 14.0041 9.93208C13.0666 10.6356 12.4812 11.6108 12.4812 12.6907C12.4812 13.7707 13.0666 14.7459 14.0041 15.4494C14.9415 16.1529 16.2335 16.5871 17.6562 16.5871C19.079 16.5871 20.371 16.1529 21.3084 15.4494C22.2459 14.7459 22.8313 13.7707 22.8313 12.6907ZM13.8625 12.6907C13.8625 12.0183 14.2887 11.3908 14.9809 10.929C15.6724 10.4677 16.6235 10.1765 17.6562 10.1765C18.689 10.1765 19.6401 10.4677 20.3316 10.929C21.0238 11.3908 21.45 12.0183 21.45 12.6907C21.45 13.3632 21.0238 13.9907 20.3316 14.4524C19.6401 14.9138 18.689 15.205 17.6562 15.205C16.6235 15.205 15.6724 14.9138 14.9809 14.4524C14.2887 13.9907 13.8625 13.3632 13.8625 12.6907Z" fill="#2C5B5A" stroke="#2C5B5A" stroke-width="0.1"/>
<path d="M30.4688 8.79436C29.046 8.79436 27.754 9.22857 26.8166 9.93208C25.8791 10.6356 25.2937 11.6108 25.2937 12.6907C25.2937 13.7707 25.8791 14.7459 26.8166 15.4494C27.754 16.1529 29.046 16.5871 30.4688 16.5871C31.8915 16.5871 33.1835 16.1529 34.1209 15.4494C35.0584 14.7459 35.6438 13.7707 35.6438 12.6907C35.6438 11.6108 35.0584 10.6356 34.1209 9.93208C33.1835 9.22857 31.8915 8.79436 30.4688 8.79436ZM30.4688 15.205C29.436 15.205 28.4849 14.9138 27.7934 14.4524C27.1012 13.9907 26.675 13.3632 26.675 12.6907C26.675 12.0183 27.1012 11.3908 27.7934 10.929C28.4849 10.4677 29.436 10.1765 30.4688 10.1765C31.5015 10.1765 32.4526 10.4677 33.1441 10.929C33.8363 11.3908 34.2625 12.0183 34.2625 12.6907C34.2625 13.3632 33.8363 13.9907 33.1441 14.4524C32.4526 14.9138 31.5015 15.205 30.4688 15.205Z" fill="#2C5B5A" stroke="#2C5B5A" stroke-width="0.1"/>
<path d="M25.6255 18.0134L25.6256 18.0135L27.0028 20.3109C27.0029 20.311 27.0029 20.311 27.0029 20.311L27.0029 20.311L26.96 20.3367L25.6255 18.0134ZM25.6255 18.0134C25.2975 17.4676 24.6989 17.1282 24.0625 17.1282C23.4261 17.1282 22.8275 17.4676 22.5001 18.0135L22.5 18.0135M25.6255 18.0134L22.5 18.0135M22.5 18.0135L21.1234 20.3103C21.1234 20.3103 21.1234 20.3103 21.1234 20.3103L22.5 18.0135ZM23.6845 18.7245L23.6845 18.7245C23.7616 18.5957 23.9096 18.5281 24.0625 18.5281C24.2154 18.5281 24.3633 18.5957 24.4405 18.7245L24.4405 18.7245L25.8185 21.0228L25.8185 21.0228C25.8945 21.149 25.9344 21.2932 25.9344 21.4413C25.9344 21.8907 25.5691 22.2567 25.1195 22.2567H23.0055C22.5558 22.2567 22.1906 21.8913 22.1906 21.4413C22.1906 21.2933 22.2305 21.1489 22.3065 21.0221C22.3065 21.0221 22.3065 21.0221 22.3065 21.0221L23.6845 18.7245Z" fill="#2C5B5A" stroke="#2C5B5A" stroke-width="0.1"/>
</svg>
