<svg width="26" height="24" viewBox="0 0 26 24" fill="none" xmlns="http://www.w3.org/2000/svg">
<path d="M13 23.4327C12.6299 23.4327 12.273 23.2986 11.9949 23.0548C10.9445 22.1357 9.9319 21.2721 9.03847 20.5102L9.03391 20.5063C6.41451 18.2725 4.15256 16.3435 2.57874 14.4433C0.819443 12.3189 0 10.3048 0 8.10438C0 5.96654 0.732559 3.99425 2.06259 2.55056C3.40849 1.0898 5.25526 0.285278 7.26331 0.285278C8.76413 0.285278 10.1386 0.76009 11.3484 1.69641C11.959 2.16904 12.5124 2.74747 13 3.42217C13.4878 2.74747 14.041 2.16904 14.6518 1.69641C15.8616 0.76009 17.2361 0.285278 18.7369 0.285278C20.7447 0.285278 22.5917 1.0898 23.9376 2.55056C25.2676 3.99425 26 5.96654 26 8.10438C26 10.3048 25.1808 12.3189 23.4215 14.4431C21.8476 16.3435 19.5859 18.2723 16.9669 20.5059C16.0719 21.2689 15.0576 22.134 14.0049 23.0552C13.727 23.2986 13.3699 23.4327 13 23.4327ZM7.26331 1.80936C5.68571 1.80936 4.23647 2.4394 3.18216 3.58355C2.11218 4.74497 1.52284 6.35044 1.52284 8.10438C1.52284 9.955 2.21017 11.6101 3.75127 13.4708C5.24078 15.2694 7.45631 17.1588 10.0216 19.3464L10.0263 19.3504C10.9231 20.1152 11.9397 20.9823 12.9978 21.9081C14.0622 20.9805 15.0804 20.112 15.979 19.346C18.5441 17.1584 20.7594 15.2694 22.2489 13.4708C23.7898 11.6101 24.4772 9.955 24.4772 8.10438C24.4772 6.35044 23.8878 4.74497 22.8178 3.58355C21.7637 2.4394 20.3143 1.80936 18.7369 1.80936C17.5812 1.80936 16.5202 2.17698 15.5833 2.9019C14.7484 3.54822 14.1668 4.36524 13.8258 4.93692C13.6504 5.2309 13.3418 5.40638 13 5.40638C12.6582 5.40638 12.3496 5.2309 12.1742 4.93692C11.8334 4.36524 11.2518 3.54822 10.4167 2.9019C9.47983 2.17698 8.41878 1.80936 7.26331 1.80936Z" fill="#363B46"/>
</svg>
