<svg width="45" height="45" viewBox="0 0 45 45" fill="none" xmlns="http://www.w3.org/2000/svg">
<circle cx="22.5" cy="22.5" r="22.5" fill="#E1F2F2"/>
<path d="M31.959 14.0652C31.6365 13.7425 31.1148 13.7425 30.7923 14.0652L12.0506 32.8196C11.7282 33.1423 11.7282 33.6641 12.0506 33.9867C12.2114 34.1476 12.4229 34.2286 12.6339 34.2286C12.8448 34.2286 13.0557 34.1483 13.2172 33.9867L31.959 15.2323C32.2814 14.9097 32.2814 14.3878 31.959 14.0652Z" fill="#6C8685" stroke="#6C8685" stroke-width="0.4"/>
<path d="M16.3804 13.8316C13.8551 13.8316 11.8 15.8868 11.8 18.4132C11.8 20.9401 13.855 22.996 16.3804 22.996C18.9053 22.996 20.9596 20.9407 20.9596 18.4132C20.9596 15.8869 18.9053 13.8316 16.3804 13.8316ZM16.3804 21.3458C14.7648 21.3458 13.4499 20.0308 13.4499 18.4138C13.4499 16.7981 14.7647 15.483 16.3804 15.483C17.9954 15.483 19.3097 16.7981 19.3097 18.4138C19.3097 20.0309 17.9954 21.3458 16.3804 21.3458Z" fill="#6C8685" stroke="#6C8685" stroke-width="0.4"/>
<path d="M27.6126 25.0703C25.0877 25.0703 23.0334 27.1262 23.0334 29.6525C23.0334 32.1793 25.0877 34.2359 27.6126 34.2359C30.1382 34.2359 32.1918 32.1793 32.1918 29.6525C32.1918 27.1262 30.1375 25.0703 27.6126 25.0703ZM27.6126 32.5851C25.9977 32.5851 24.6833 31.2696 24.6833 29.6525C24.6833 28.036 25.9976 26.7211 27.6126 26.7211C29.2276 26.7211 30.5418 28.036 30.5418 29.6525C30.5418 31.2696 29.2275 32.5851 27.6126 32.5851Z" fill="#6C8685" stroke="#6C8685" stroke-width="0.4"/>
</svg>
