<svg width="15" height="11" viewBox="0 0 15 11" fill="none" xmlns="http://www.w3.org/2000/svg">
<path d="M4.89998 0.267939C4.94851 0.215797 5.00701 0.173932 5.07202 0.144827C5.13704 0.115721 5.20723 0.0999682 5.27845 0.0985015C5.34967 0.0970348 5.42045 0.109884 5.48661 0.136288C5.55276 0.162692 5.61294 0.202113 5.66358 0.252212C5.71421 0.302312 5.75427 0.362069 5.78138 0.427941C5.80849 0.493812 5.82209 0.564457 5.82138 0.635684C5.82067 0.706912 5.80566 0.777271 5.77725 0.84259C5.74884 0.907909 5.7076 0.966857 5.65598 1.01594L1.82298 4.84894H14.471C14.5406 4.84867 14.6096 4.86221 14.674 4.88876C14.7383 4.91532 14.7968 4.95436 14.846 5.00364C14.8952 5.05292 14.9341 5.11146 14.9605 5.17588C14.987 5.2403 15.0004 5.30931 15 5.37894C15.0006 5.44897 14.9875 5.51844 14.9612 5.58337C14.935 5.6483 14.8961 5.7074 14.847 5.75729C14.7978 5.80719 14.7393 5.84688 14.6748 5.87411C14.6103 5.90133 14.541 5.91555 14.471 5.91594H1.82198L5.65498 9.74194C5.75321 9.84325 5.80815 9.97882 5.80815 10.1199C5.80815 10.2611 5.75321 10.3966 5.65498 10.4979C5.60565 10.5481 5.54682 10.588 5.48192 10.6152C5.41702 10.6424 5.34735 10.6564 5.27698 10.6564C5.2066 10.6564 5.13693 10.6424 5.07203 10.6152C5.00713 10.588 4.94831 10.5481 4.89898 10.4979L0.157976 5.75694C0.107898 5.70837 0.0680838 5.65024 0.0408945 5.586C0.0137053 5.52175 -0.000305176 5.4527 -0.000305176 5.38294C-0.000305176 5.31318 0.0137053 5.24413 0.0408945 5.17988C0.0680838 5.11564 0.107898 5.05751 0.157976 5.00894L4.89998 0.267939Z" fill="#6C8685"/>
</svg>
