<svg width="18" height="18" viewBox="0 0 18 18" fill="none" xmlns="http://www.w3.org/2000/svg">
<path d="M9.48874 8.54907L16.8921 1.14573C16.9987 1.01783 17.0537 0.854666 17.0462 0.688298C17.0387 0.52193 16.9692 0.364388 16.8515 0.246628C16.7337 0.128869 16.5762 0.0594055 16.4098 0.0518883C16.2434 0.0443711 16.0803 0.0993433 15.9524 0.206003L8.54901 7.60934L1.14481 0.202586C1.01691 0.0959261 0.85375 0.0409539 0.687382 0.0484711C0.521015 0.0559884 0.363473 0.125451 0.245713 0.243211C0.127953 0.360971 0.05849 0.518513 0.0509728 0.684881C0.0434555 0.851248 0.0984277 1.01441 0.205087 1.14231L7.60501 8.54907L0.20167 15.9533C0.0950105 16.0812 0.0400384 16.2443 0.0475556 16.4107C0.0550728 16.5771 0.124536 16.7346 0.242296 16.8524C0.360055 16.9701 0.517597 17.0396 0.683965 17.0471C0.850333 17.0546 1.0135 16.9997 1.1414 16.893L8.54901 9.49392L15.9524 16.8973C16.0803 17.0039 16.2434 17.0589 16.4098 17.0514C16.5762 17.0439 16.7337 16.9744 16.8515 16.8566C16.9692 16.7389 17.0387 16.5813 17.0462 16.415C17.0537 16.2486 16.9987 16.0854 16.8921 15.9575L9.48874 8.54907Z" fill="#363B46"/>
</svg>
