<svg width="17" height="17" viewBox="0 0 17 17" fill="none" xmlns="http://www.w3.org/2000/svg">
<path d="M8.5 1C7.01664 1 5.5666 1.43987 4.33323 2.26398C3.09986 3.08809 2.13856 4.25943 1.57091 5.62987C1.00325 7.00032 0.854725 8.50832 1.14411 9.96318C1.4335 11.418 2.14781 12.7544 3.1967 13.8033C4.2456 14.8522 5.58197 15.5665 7.03683 15.8559C8.49168 16.1453 9.99968 15.9968 11.3701 15.4291C12.7406 14.8614 13.9119 13.9001 14.736 12.6668C15.5601 11.4334 16 9.98336 16 8.5C16 6.51088 15.2098 4.60322 13.8033 3.1967C12.3968 1.79018 10.4891 1 8.5 1V1ZM8.5 15.5C7.11553 15.5 5.76216 15.0895 4.61101 14.3203C3.45987 13.5511 2.56266 12.4579 2.03285 11.1788C1.50303 9.8997 1.36441 8.49224 1.63451 7.13437C1.9046 5.7765 2.57129 4.52922 3.55026 3.55025C4.52922 2.57128 5.7765 1.9046 7.13437 1.6345C8.49224 1.36441 9.89971 1.50303 11.1788 2.03284C12.4579 2.56266 13.5511 3.45986 14.3203 4.61101C15.0895 5.76215 15.5 7.11553 15.5 8.5C15.5 10.3565 14.7625 12.137 13.4498 13.4497C12.137 14.7625 10.3565 15.5 8.5 15.5Z" fill="#F57272" stroke="#F57272" stroke-width="0.7"/>
<path d="M11.5 8.25H5.5C5.4337 8.25 5.37011 8.27634 5.32323 8.32323C5.27634 8.37011 5.25 8.4337 5.25 8.5C5.25 8.5663 5.27634 8.62989 5.32323 8.67677C5.37011 8.72366 5.4337 8.75 5.5 8.75H11.5C11.5663 8.75 11.6299 8.72366 11.6768 8.67677C11.7237 8.62989 11.75 8.5663 11.75 8.5C11.75 8.4337 11.7237 8.37011 11.6768 8.32323C11.6299 8.27634 11.5663 8.25 11.5 8.25Z" fill="#F57272" stroke="#F57272" stroke-width="0.7"/>
</svg>
