<svg width="19" height="12" viewBox="0 0 19 12" fill="none" xmlns="http://www.w3.org/2000/svg">
<path d="M18.7087 5.634C18.5407 5.404 14.5327 0 9.41468 0C4.29668 0 0.287683 5.404 0.119683 5.634C0.0419151 5.74038 0 5.86873 0 6.0005C0 6.13227 0.0419151 6.26063 0.119683 6.367C0.287683 6.597 4.29568 12.001 9.41368 12.001C14.5317 12.001 18.5397 6.601 18.7077 6.367C18.7856 6.26074 18.8277 6.13243 18.8279 6.00066C18.828 5.86889 18.7863 5.74048 18.7087 5.634ZM9.41468 10.759C5.64468 10.759 2.37868 7.172 1.41468 6C2.37968 4.826 5.63868 1.242 9.41468 1.242C13.1907 1.242 16.4497 4.828 17.4147 6.001C16.4517 7.174 13.1927 10.759 9.41468 10.759Z" fill="#363B46"/>
<path d="M9.41541 2.276C8.67887 2.276 7.95888 2.4944 7.34647 2.90359C6.73406 3.31279 6.25675 3.8944 5.97489 4.57487C5.69303 5.25535 5.61927 6.00413 5.76296 6.72652C5.90665 7.4489 6.26133 8.11244 6.78214 8.63326C7.30295 9.15407 7.96651 9.50874 8.68889 9.65244C9.41128 9.79613 10.16 9.72238 10.8405 9.44052C11.521 9.15866 12.1026 8.68135 12.5118 8.06894C12.921 7.45653 13.1394 6.73654 13.1394 6C13.1384 5.01266 12.7457 4.06606 12.0475 3.3679C11.3494 2.66975 10.4028 2.27706 9.41541 2.276ZM9.41541 8.483C8.92432 8.483 8.44425 8.33737 8.03592 8.06453C7.6276 7.79169 7.30935 7.4039 7.12142 6.9502C6.93349 6.49649 6.88432 5.99723 6.98012 5.51558C7.07593 5.03392 7.3124 4.5915 7.65966 4.24425C8.00691 3.89699 8.44935 3.66052 8.93101 3.56471C9.41266 3.46891 9.91191 3.51808 10.3656 3.70601C10.8193 3.89394 11.2071 4.21219 11.48 4.62051C11.7528 5.02884 11.8984 5.50891 11.8984 6C11.8976 6.65829 11.6358 7.28939 11.1703 7.75487C10.7048 8.22035 10.0737 8.48221 9.41541 8.483Z" fill="#363B46"/>
</svg>
