<svg width="16" height="16" viewBox="0 0 16 16" fill="none" xmlns="http://www.w3.org/2000/svg">
<path d="M11.6162 1.79683C11.8017 1.61139 12.0218 1.46429 12.2641 1.36393C12.5064 1.26357 12.7661 1.21191 13.0284 1.21191C13.2906 1.21191 13.5503 1.26357 13.7926 1.36393C14.0349 1.46429 14.255 1.61139 14.4405 1.79683C14.6259 1.98227 14.773 2.20242 14.8734 2.44471C14.9737 2.68701 15.0254 2.94669 15.0254 3.20894C15.0254 3.4712 14.9737 3.73088 14.8734 3.97318C14.773 4.21547 14.6259 4.43562 14.4405 4.62106L4.9087 14.1528L1.02539 15.2119L2.08448 11.3286L11.6162 1.79683Z" stroke="#6C8685" stroke-linecap="round" stroke-linejoin="round"/>
</svg>
