<svg width="17" height="18" viewBox="0 0 17 18" fill="none" xmlns="http://www.w3.org/2000/svg">
<path d="M15.373 4.635H7.785V4.111C7.78344 3.75058 7.64012 3.40524 7.38601 3.14963C7.1319 2.89402 6.78741 2.74867 6.427 2.745H4.185V0.45C4.185 0.330653 4.13759 0.216193 4.0532 0.131802C3.96881 0.0474106 3.85435 0 3.735 0C3.61565 0 3.50119 0.0474106 3.4168 0.131802C3.33241 0.216193 3.285 0.330653 3.285 0.45V2.767C2.95205 2.80091 2.64351 2.95711 2.41907 3.20538C2.19464 3.45364 2.07026 3.77633 2.07 4.111V4.635H1.37C1.00932 4.63524 0.663256 4.7776 0.406814 5.03123C0.150373 5.28487 0.00420921 5.62934 0 5.99V14.77C0.00448385 15.1287 0.150804 15.471 0.406968 15.7221C0.663132 15.9732 1.0083 16.1127 1.367 16.11H2.067V16.65C2.06674 16.8272 2.10141 17.0027 2.16904 17.1665C2.23666 17.3302 2.33591 17.4791 2.46111 17.6045C2.58631 17.7299 2.735 17.8293 2.89868 17.8972C3.06236 17.9651 3.23781 18 3.415 18H6.427C6.78578 18 7.12999 17.858 7.38443 17.6051C7.63888 17.3521 7.78289 17.0088 7.785 16.65V16.11H15.373C15.7317 16.1127 16.0769 15.9732 16.333 15.7221C16.5892 15.471 16.7355 15.1287 16.74 14.77V5.99C16.7358 5.62986 16.59 5.28584 16.3343 5.03229C16.0785 4.77874 15.7332 4.63603 15.373 4.635ZM1.367 15.21C1.24689 15.213 1.13047 15.1684 1.04302 15.086C0.955575 15.0036 0.904179 14.8901 0.9 14.77V5.99C0.903878 5.86848 0.954694 5.7532 1.04177 5.66835C1.12885 5.58351 1.24542 5.53571 1.367 5.535H2.067V15.21H1.367ZM6.885 16.65C6.885 16.7693 6.83759 16.8838 6.7532 16.9682C6.66881 17.0526 6.55435 17.1 6.435 17.1H3.42C3.30065 17.1 3.18619 17.0526 3.1018 16.9682C3.01741 16.8838 2.97 16.7693 2.97 16.65V4.095C2.97 3.97565 3.01741 3.86119 3.1018 3.7768C3.18619 3.69241 3.30065 3.645 3.42 3.645H6.435C6.55435 3.645 6.66881 3.69241 6.7532 3.7768C6.83759 3.86119 6.885 3.97565 6.885 4.095V16.65ZM15.84 14.77C15.8358 14.8901 15.7844 15.0036 15.697 15.086C15.6095 15.1684 15.4931 15.213 15.373 15.21H7.785V5.535H15.373C15.4946 5.53571 15.6111 5.58351 15.6982 5.66835C15.7853 5.7532 15.8361 5.86848 15.84 5.99V14.77Z" fill="#363B46"/>
<path d="M14.5351 7.29002C14.5351 7.17068 14.4877 7.05622 14.4033 6.97183C14.3189 6.88744 14.2044 6.84003 14.0851 6.84003H9.40508C9.28573 6.84003 9.17127 6.88744 9.08688 6.97183C9.00249 7.05622 8.95508 7.17068 8.95508 7.29002V9.18002C8.95508 9.29937 9.00249 9.41384 9.08688 9.49823C9.17127 9.58262 9.28573 9.63002 9.40508 9.63002H14.0851C14.2044 9.63002 14.3189 9.58262 14.4033 9.49823C14.4877 9.41384 14.5351 9.29937 14.5351 9.18002V7.29002ZM13.6801 8.73003H9.85507V7.74002H13.6801V8.73003Z" fill="#363B46"/>
<path d="M14.1167 10.98H9.42267C9.36357 10.98 9.30505 10.9916 9.25046 11.0142C9.19586 11.0368 9.14625 11.07 9.10446 11.1118C9.06268 11.1536 9.02953 11.2032 9.00691 11.2578C8.9843 11.3124 8.97266 11.3709 8.97266 11.43C8.97266 11.4891 8.9843 11.5476 9.00691 11.6022C9.02953 11.6568 9.06268 11.7064 9.10446 11.7482C9.14625 11.79 9.19586 11.8231 9.25046 11.8457C9.30505 11.8683 9.36357 11.88 9.42267 11.88H14.1167C14.1758 11.88 14.2343 11.8683 14.2889 11.8457C14.3435 11.8231 14.3931 11.79 14.4349 11.7482C14.4766 11.7064 14.5098 11.6568 14.5324 11.6022C14.555 11.5476 14.5667 11.4891 14.5667 11.43C14.5667 11.3709 14.555 11.3124 14.5324 11.2578C14.5098 11.2032 14.4766 11.1536 14.4349 11.1118C14.3931 11.07 14.3435 11.0368 14.2889 11.0142C14.2343 10.9916 14.1758 10.98 14.1167 10.98Z" fill="#363B46"/>
<path d="M14.1167 12.825H9.42267C9.36357 12.825 9.30505 12.8366 9.25046 12.8593C9.19586 12.8819 9.14625 12.915 9.10446 12.9568C9.06268 12.9986 9.02953 13.0482 9.00691 13.1028C8.9843 13.1574 8.97266 13.2159 8.97266 13.275C8.97266 13.3341 8.9843 13.3926 9.00691 13.4472C9.02953 13.5018 9.06268 13.5514 9.10446 13.5932C9.14625 13.635 9.19586 13.6682 9.25046 13.6908C9.30505 13.7134 9.36357 13.725 9.42267 13.725H14.1167C14.1758 13.725 14.2343 13.7134 14.2889 13.6908C14.3435 13.6682 14.3931 13.635 14.4349 13.5932C14.4766 13.5514 14.5098 13.5018 14.5324 13.4472C14.555 13.3926 14.5667 13.3341 14.5667 13.275C14.5667 13.2159 14.555 13.1574 14.5324 13.1028C14.5098 13.0482 14.4766 12.9986 14.4349 12.9568C14.3931 12.915 14.3435 12.8819 14.2889 12.8593C14.2343 12.8366 14.1758 12.825 14.1167 12.825Z" fill="#363B46"/>
</svg>
