<svg width="20" height="23" viewBox="0 0 20 23" fill="none" xmlns="http://www.w3.org/2000/svg">
<path d="M19.393 3.244H14.703V2.479C14.7022 1.8216 14.4406 1.19137 13.9757 0.726606C13.5107 0.261847 12.8804 0.000529255 12.223 0L7.76999 0C7.11276 0.000793914 6.48268 0.262228 6.01794 0.726959C5.55321 1.19169 5.29178 1.82177 5.29099 2.479V3.244H0.600985C0.439419 3.25046 0.286621 3.31919 0.174593 3.43579C0.0625654 3.55238 0 3.70781 0 3.8695C0 4.03119 0.0625654 4.18662 0.174593 4.30321C0.286621 4.41981 0.439419 4.48854 0.600985 4.495H1.73199V19.2C1.73409 20.085 2.08632 20.9332 2.71175 21.5594C3.33718 22.1856 4.18497 22.5388 5.06998 22.542H14.913C15.7999 22.5417 16.6505 22.1898 17.2783 21.5633C17.9061 20.9368 18.2599 20.0869 18.262 19.2V4.5H19.393C19.5546 4.49354 19.7073 4.42481 19.8194 4.30821C19.9314 4.19162 19.994 4.03619 19.994 3.8745C19.994 3.71281 19.9314 3.55738 19.8194 3.44079C19.7073 3.32419 19.5546 3.25546 19.393 3.249V3.244ZM6.53698 2.479C6.53725 2.31739 6.56936 2.15742 6.63147 2.00822C6.69359 1.85902 6.7845 1.72353 6.89901 1.60949C7.01352 1.49545 7.14938 1.40509 7.29882 1.34357C7.44827 1.28206 7.60838 1.25061 7.76999 1.251H12.228C12.5535 1.25153 12.8655 1.38108 13.0957 1.61126C13.3259 1.84144 13.4555 2.15348 13.456 2.479V3.244H6.53698V2.479ZM17.011 19.2C17.0097 19.7552 16.7885 20.2873 16.3959 20.6799C16.0033 21.0725 15.4712 21.2937 14.916 21.295H5.06998C4.51528 21.2929 3.98395 21.0714 3.59199 20.6789C3.20004 20.2864 2.9793 19.7547 2.97799 19.2V4.5H17.015V19.2H17.011Z" fill="#F57272"/>
<path d="M9.99415 19.047C10.0765 19.0474 10.158 19.0315 10.2342 19.0001C10.3103 18.9688 10.3795 18.9227 10.4377 18.8645C10.4959 18.8063 10.542 18.7371 10.5733 18.661C10.6046 18.5849 10.6205 18.5033 10.6201 18.421V7.36398C10.6137 7.20242 10.5449 7.04962 10.4284 6.93759C10.3118 6.82556 10.1563 6.763 9.99465 6.763C9.83296 6.763 9.67753 6.82556 9.56094 6.93759C9.44434 7.04962 9.37561 7.20242 9.36915 7.36398V18.417C9.36875 18.4994 9.38462 18.5811 9.41582 18.6574C9.44703 18.7337 9.49297 18.8031 9.55102 18.8616C9.60907 18.9201 9.67809 18.9666 9.75413 18.9984C9.83016 19.0302 9.91172 19.0467 9.99415 19.047Z" fill="#F57272"/>
<path d="M5.91261 18.356C5.99493 18.3564 6.07652 18.3405 6.15265 18.3092C6.22877 18.2779 6.29794 18.2318 6.35615 18.1736C6.41436 18.1154 6.46045 18.0462 6.49177 17.9701C6.52309 17.8939 6.53901 17.8123 6.53862 17.73V8.04903C6.54199 7.96478 6.52829 7.88072 6.49838 7.8019C6.46846 7.72307 6.42293 7.6511 6.36451 7.5903C6.3061 7.5295 6.23601 7.48113 6.15844 7.44809C6.08087 7.41505 5.99743 7.39801 5.91311 7.39801C5.8288 7.39801 5.74535 7.41505 5.66778 7.44809C5.59021 7.48113 5.52013 7.5295 5.46171 7.5903C5.4033 7.6511 5.35776 7.72307 5.32785 7.8019C5.29793 7.88072 5.28424 7.96478 5.28761 8.04903V17.73C5.28761 17.8959 5.35343 18.055 5.47061 18.1723C5.58779 18.2897 5.74676 18.3558 5.91261 18.356Z" fill="#F57272"/>
<path d="M14.0767 18.356C14.159 18.3564 14.2406 18.3405 14.3167 18.3092C14.3928 18.2779 14.462 18.2318 14.5202 18.1736C14.5784 18.1154 14.6245 18.0462 14.6558 17.9701C14.6872 17.8939 14.7031 17.8123 14.7027 17.73V8.04903C14.706 7.96478 14.6924 7.88072 14.6625 7.8019C14.6325 7.72307 14.587 7.6511 14.5286 7.5903C14.4702 7.5295 14.4001 7.48113 14.3225 7.44809C14.2449 7.41505 14.1615 7.39801 14.0772 7.39801C13.9929 7.39801 13.9094 7.41505 13.8319 7.44809C13.7543 7.48113 13.6842 7.5295 13.6258 7.5903C13.5674 7.6511 13.5218 7.72307 13.4919 7.8019C13.462 7.88072 13.4483 7.96478 13.4517 8.04903V17.73C13.4513 17.8123 13.4672 17.8938 13.4984 17.9698C13.5297 18.0459 13.5757 18.115 13.6338 18.1732C13.6919 18.2314 13.7609 18.2775 13.837 18.3089C13.913 18.3403 13.9944 18.3563 14.0767 18.356Z" fill="#F57272"/>
</svg>
