<svg width="42" height="42" viewBox="0 0 42 42" fill="none" xmlns="http://www.w3.org/2000/svg">
<rect x="0.5" y="0.5" width="41" height="41" rx="20.5" stroke="#D8DDE7"/>
<g clip-path="url(#clip0)">
<path d="M15.4321 23.086L14.7321 25.686L12.1881 25.74C11.4183 24.3065 11.0093 22.7071 10.9964 21.0801C10.9835 19.4531 11.3671 17.8474 12.1141 16.402L14.3791 16.817L15.3711 19.069C14.9248 20.3745 14.9446 21.7944 15.4271 23.087L15.4321 23.086Z" fill="#FBBB00"/>
<path d="M30.8237 19.132C31.1625 20.915 31.0098 22.7566 30.3817 24.4594C29.7537 26.1622 28.6741 27.662 27.2587 28.798L24.4057 28.652L24.0057 26.131C25.1837 25.4403 26.0889 24.3661 26.5697 23.088H21.2227V19.132H30.8277H30.8237Z" fill="#518EF8"/>
<path d="M27.2604 28.797C26.1163 29.716 24.7839 30.3719 23.3578 30.7182C21.9317 31.0645 20.4469 31.0927 19.0087 30.8007C17.5705 30.5088 16.2141 29.9039 15.036 29.0289C13.8578 28.1539 12.8866 27.0304 12.1914 25.738L15.4324 23.085C15.7367 23.896 16.2144 24.6308 16.8323 25.238C17.4501 25.8451 18.1932 26.31 19.0094 26.6C19.8257 26.89 20.6955 26.9982 21.5579 26.917C22.4203 26.8358 23.2546 26.5672 24.0024 26.13L27.2604 28.797Z" fill="#28B446"/>
<path d="M27.3812 13.3L24.1412 15.952C23.3822 15.4794 22.5265 15.1841 21.6377 15.0879C20.7488 14.9917 19.8498 15.0971 19.0073 15.3963C18.1648 15.6956 17.4007 16.1809 16.7717 16.8163C16.1427 17.4516 15.665 18.2206 15.3742 19.066L12.1172 16.4C12.8041 15.0732 13.7796 13.9171 14.9719 13.0168C16.1643 12.1165 17.5432 11.4949 19.0074 11.1975C20.4716 10.9001 21.9838 10.9346 23.4329 11.2985C24.882 11.6623 26.2311 12.3462 27.3812 13.3Z" fill="#F14336"/>
</g>
<defs>
<clipPath id="clip0">
<rect width="20" height="20" fill="white" transform="translate(11 11)"/>
</clipPath>
</defs>
</svg>
