<svg width="13" height="13" viewBox="0 0 13 13" fill="none" xmlns="http://www.w3.org/2000/svg">
<path d="M1.354 5.41699C0.995059 5.41752 0.650971 5.56034 0.397162 5.81415C0.143352 6.06796 0.000529022 6.41206 0 6.771L0 11.104C0.000529022 11.4629 0.143352 11.807 0.397162 12.0608C0.650971 12.3146 0.995059 12.4575 1.354 12.458H2.979C3.27231 12.4577 3.55748 12.3615 3.791 12.184V5.41699H1.354Z" fill="white"/>
<path d="M13 7.448C13.0004 7.28955 12.9694 7.1326 12.9088 6.9862C12.8482 6.83979 12.7592 6.70684 12.647 6.595C12.7738 6.45644 12.8702 6.29284 12.93 6.11475C12.9898 5.93666 13.0116 5.74803 12.994 5.561C12.9516 5.218 12.7838 4.90281 12.5229 4.6761C12.2621 4.44938 11.9265 4.32718 11.581 4.333H8.23499C8.48081 3.63514 8.62594 2.90581 8.66599 2.167C8.67323 1.67687 8.51761 1.19819 8.22353 0.806013C7.92944 0.413841 7.51352 0.130353 7.04099 0C6.68729 0.00515499 6.34402 0.120513 6.05899 0.33C6.02757 0.355646 6.00227 0.387994 5.98497 0.424675C5.96767 0.461356 5.95879 0.501443 5.95898 0.542V2.379L4.39899 5.758L4.33398 5.791V11.597C4.75978 11.792 5.21996 11.9007 5.68799 11.917H10.66C10.9413 11.921 11.2156 11.8297 11.4384 11.6579C11.6612 11.4861 11.8193 11.244 11.887 10.971C11.9487 10.6963 11.9133 10.4086 11.787 10.157C12.0743 10.013 12.2927 9.76097 12.3943 9.45611C12.496 9.15126 12.4724 8.81854 12.329 8.531C12.5303 8.43047 12.6996 8.27594 12.8181 8.08469C12.9366 7.89343 12.9996 7.67299 13 7.448Z" fill="white"/>
</svg>
