<svg width="19" height="19" viewBox="0 0 19 19" fill="none" xmlns="http://www.w3.org/2000/svg">
<path d="M15.2385 11.2432C15.0664 11.051 14.8565 10.8963 14.622 10.7888C14.3875 10.6813 14.1334 10.6232 13.8755 10.6182C13.6158 10.6242 13.3599 10.6823 13.1231 10.789C12.8862 10.8956 12.6731 11.0487 12.4965 11.2392L11.2215 12.5072C11.1215 12.4512 11.0115 12.3982 10.9115 12.3462C10.7665 12.2732 10.6295 12.2052 10.5115 12.1322C9.2483 11.311 8.12757 10.2893 7.19348 9.10716C6.76194 8.58281 6.39746 8.0067 6.10848 7.39216C6.43948 7.09216 6.74548 6.77516 7.04348 6.47316C7.15648 6.36016 7.26948 6.24316 7.38248 6.13016C7.58184 5.95651 7.74167 5.74214 7.85119 5.5015C7.9607 5.26086 8.01737 4.99955 8.01737 4.73516C8.01737 4.47077 7.9607 4.20946 7.85119 3.96882C7.74167 3.72818 7.58184 3.51381 7.38248 3.34016L6.28248 2.24016C6.15748 2.11516 6.02848 1.98616 5.90748 1.85716C5.66548 1.60716 5.40748 1.34916 5.14948 1.10716C4.97489 0.923628 4.76553 0.776677 4.53358 0.674868C4.30164 0.573059 4.05175 0.518428 3.79848 0.51416C3.28007 0.523676 2.7862 0.736669 2.42348 1.10716L2.41548 1.11516L1.04448 2.49716C0.536001 2.99602 0.225203 3.66202 0.169477 4.37216C0.122739 5.39509 0.298799 6.41597 0.685477 7.36416C1.40768 9.24448 2.45158 10.9848 3.77048 12.5072C5.49943 14.5888 7.65361 16.2765 10.0885 17.4572C11.1944 18.0284 12.3987 18.3847 13.6375 18.5072C13.7225 18.5072 13.8105 18.5152 13.8915 18.5152C14.3285 18.5257 14.7626 18.4418 15.1642 18.2692C15.5658 18.0966 15.9254 17.8394 16.2185 17.5152C16.2185 17.5072 16.2305 17.5032 16.2345 17.4952C16.4561 17.239 16.6918 16.9953 16.9405 16.7652C17.1135 16.6002 17.2915 16.4262 17.4645 16.2452C17.8435 15.8766 18.0623 15.3737 18.0735 14.8452C18.0682 14.5847 18.0105 14.328 17.9038 14.0904C17.7971 13.8528 17.6436 13.6391 17.4525 13.4622L15.2385 11.2432ZM16.6825 15.4892C16.5255 15.6582 16.3635 15.8122 16.1905 15.9812C15.9171 16.2359 15.6574 16.505 15.4125 16.7872C15.2221 16.9984 14.9876 17.1653 14.7257 17.276C14.4637 17.3868 14.1807 17.4387 13.8965 17.4282C13.8365 17.4282 13.7715 17.4282 13.7115 17.4282C12.6129 17.3149 11.5458 16.9946 10.5665 16.4842C8.27093 15.3712 6.23961 13.7807 4.60848 11.8192C3.36946 10.3873 2.38824 8.75142 1.70848 6.98416C1.36998 6.1875 1.21548 5.32478 1.25648 4.46016C1.28771 4.00534 1.48569 3.57804 1.81248 3.26016L3.18748 1.88516C3.3479 1.71519 3.56716 1.61289 3.80048 1.59916C4.0262 1.61228 4.23773 1.71355 4.38948 1.88116L4.40148 1.89316C4.64748 2.12316 4.88148 2.36116 5.12748 2.61516C5.25248 2.74416 5.38148 2.87316 5.51048 3.00616L6.60848 4.10716C6.70759 4.17848 6.78832 4.27235 6.844 4.38103C6.89969 4.4897 6.92873 4.61005 6.92873 4.73216C6.92873 4.85427 6.89969 4.97462 6.844 5.0833C6.78832 5.19197 6.70759 5.28584 6.60848 5.35716C6.49148 5.47416 6.37848 5.59116 6.26148 5.70416C5.92248 6.05116 5.60048 6.37316 5.24948 6.68816C5.24148 6.69616 5.23348 6.70016 5.22948 6.70816C5.10525 6.821 5.01855 6.96916 4.98101 7.13273C4.94346 7.2963 4.95689 7.46744 5.01948 7.62316L5.03148 7.65916C5.36231 8.42532 5.79999 9.14075 6.33148 9.78416C7.33822 11.0594 8.54807 12.1601 9.91248 13.0422C10.0744 13.1407 10.2413 13.2308 10.4125 13.3122C10.5575 13.3852 10.6945 13.4532 10.8125 13.5262C10.8285 13.5342 10.8445 13.5462 10.8605 13.5542C10.9839 13.6189 11.1211 13.6532 11.2605 13.6542C11.3761 13.6513 11.4899 13.6252 11.5952 13.5775C11.7005 13.5297 11.7952 13.4612 11.8735 13.3762L13.2585 12.0072C13.4153 11.8325 13.6334 11.7251 13.8675 11.7072C13.9792 11.714 14.0885 11.7435 14.1884 11.7941C14.2883 11.8447 14.3768 11.9151 14.4485 12.0012L14.4565 12.0092L16.6785 14.2312C16.7739 14.3058 16.8511 14.4011 16.9044 14.51C16.9576 14.6188 16.9854 14.7383 16.9857 14.8594C16.9859 14.9806 16.9587 15.1002 16.906 15.2093C16.8533 15.3184 16.7765 15.4141 16.6815 15.4892H16.6825Z" fill="#363B46"/>
</svg>
