<svg width="10" height="10" viewBox="0 0 10 10" fill="none" xmlns="http://www.w3.org/2000/svg">
<path d="M9.5 4.5H5.5V0.5C5.5 0.367392 5.44732 0.240215 5.35355 0.146447C5.25979 0.0526784 5.13261 0 5 0C4.86739 0 4.74021 0.0526784 4.64645 0.146447C4.55268 0.240215 4.5 0.367392 4.5 0.5V4.5H0.5C0.367392 4.5 0.240215 4.55268 0.146447 4.64645C0.0526784 4.74021 0 4.86739 0 5C0 5.13261 0.0526784 5.25979 0.146447 5.35355C0.240215 5.44732 0.367392 5.5 0.5 5.5H4.5V9.5C4.5 9.63261 4.55268 9.75979 4.64645 9.85355C4.74021 9.94732 4.86739 10 5 10C5.13261 10 5.25979 9.94732 5.35355 9.85355C5.44732 9.75979 5.5 9.63261 5.5 9.5V5.5H9.5C9.63261 5.5 9.75979 5.44732 9.85355 5.35355C9.94732 5.25979 10 5.13261 10 5C10 4.86739 9.94732 4.74021 9.85355 4.64645C9.75979 4.55268 9.63261 4.5 9.5 4.5Z" fill="#363B46"/>
</svg>
