<svg width="14" height="12" viewBox="0 0 14 12" fill="none" xmlns="http://www.w3.org/2000/svg">
<path d="M12.8647 3.84881L9.15068 0.134814C9.0858 0.0703621 9.00331 0.0265209 8.9136 0.00879724C8.82388 -0.00892639 8.73092 0.000257947 8.64641 0.0351969C8.56189 0.0701358 8.48958 0.129271 8.43857 0.205174C8.38756 0.281077 8.36011 0.370362 8.35968 0.461814V2.31881H6.73468C3.28601 2.31881 1.17001 3.29348 0.386678 5.24281C0.109501 6.0169 -0.0207294 6.83593 0.00267751 7.65781C0.0918379 8.79838 0.404795 9.91021 0.923678 10.9298L1.00268 11.1038C1.03868 11.1858 1.07201 11.2585 1.10268 11.3218C1.12795 11.3782 1.15948 11.4315 1.19668 11.4808C1.21726 11.5162 1.2463 11.546 1.2812 11.5675C1.3161 11.5889 1.35577 11.6014 1.39668 11.6038C1.42885 11.6054 1.46098 11.5997 1.49061 11.5871C1.52024 11.5744 1.5466 11.5552 1.56768 11.5308C1.60974 11.4801 1.6318 11.4157 1.62968 11.3498C1.62787 11.2855 1.62185 11.2214 1.61168 11.1578C1.60245 11.1015 1.59644 11.0448 1.59368 10.9878C1.56968 10.6591 1.55768 10.3618 1.55768 10.0958C1.55301 9.65487 1.59558 9.21469 1.68468 8.78281C1.75646 8.43516 1.87486 8.09878 2.03668 7.78281C2.18269 7.5045 2.37939 7.2559 2.61668 7.04981C2.84806 6.84954 3.10537 6.68136 3.38168 6.54981C3.68956 6.40812 4.01364 6.30468 4.34668 6.24181C4.71547 6.16702 5.0885 6.11492 5.46368 6.08582C5.83834 6.05648 6.26268 6.04215 6.73668 6.04281H8.35968V7.88881C8.35935 7.98061 8.38637 8.07042 8.4373 8.14679C8.48823 8.22317 8.56076 8.28263 8.64563 8.31761C8.7305 8.35259 8.82387 8.3615 8.91382 8.34319C9.00377 8.32488 9.08623 8.28018 9.15068 8.21481L12.8647 4.50081C12.9083 4.45833 12.9429 4.40756 12.9665 4.35148C12.9902 4.29541 13.0023 4.23517 13.0023 4.17431C13.0023 4.11346 12.9902 4.05322 12.9665 3.99715C12.9429 3.94107 12.9083 3.8903 12.8647 3.84782V3.84881Z" fill="white"/>
</svg>
