<svg width="14" height="12" viewBox="0 0 14 12" fill="none" xmlns="http://www.w3.org/2000/svg">
<path d="M14 1.3464C13.4733 1.57603 12.9162 1.72859 12.346 1.7994C12.9469 1.44313 13.3963 0.878828 13.609 0.213402C13.0464 0.547152 12.4309 0.782208 11.789 0.908402C11.3955 0.488095 10.8846 0.195879 10.3228 0.0697289C9.76099 -0.0564211 9.17423 -0.0106719 8.63878 0.201031C8.10332 0.412734 7.64392 0.7806 7.32028 1.25682C6.99663 1.73305 6.82372 2.29561 6.824 2.8714C6.82194 3.09122 6.84441 3.31057 6.891 3.5254C5.74935 3.46967 4.6323 3.17365 3.61287 2.6567C2.59344 2.13975 1.69457 1.41349 0.975 0.525402C0.605649 1.15683 0.491254 1.90542 0.655172 2.61834C0.81909 3.33125 1.24896 3.95471 1.857 4.3614C1.40151 4.34962 0.955575 4.22819 0.557 4.0074V4.0384C0.55779 4.70121 0.786937 5.3435 1.20586 5.85714C1.62478 6.37077 2.20789 6.72437 2.857 6.8584C2.6116 6.9229 2.35872 6.9545 2.105 6.9524C1.92277 6.95561 1.74072 6.93918 1.562 6.9034C1.74772 7.47296 2.10527 7.97103 2.58551 8.32915C3.06576 8.68728 3.64513 8.88788 4.244 8.9034C3.2282 9.69678 1.97591 10.127 0.687 10.1254C0.457402 10.1271 0.227932 10.1141 0 10.0864C1.31155 10.9316 2.83974 11.3789 4.4 11.3744C5.47468 11.3818 6.54012 11.1757 7.53446 10.7679C8.5288 10.3602 9.43221 9.75889 10.1922 8.99905C10.9523 8.23922 11.5537 7.33595 11.9618 6.34171C12.3698 5.34747 12.5762 4.28208 12.569 3.2074C12.569 3.0804 12.569 2.9584 12.558 2.8364C13.1253 2.43163 13.614 1.92668 14 1.3464Z" fill="white"/>
</svg>
