<svg width="32" height="32" viewBox="0 0 32 32" fill="none" xmlns="http://www.w3.org/2000/svg">
<path d="M2 8.96164V23.0384C2 23.7165 2.37413 24.3478 2.95871 24.6986L15.1414 31.7369C15.726 32.0877 16.4742 32.0877 17.0588 31.7369L29.2415 24.6986C29.8261 24.3478 30.2002 23.7165 30.2002 23.0384V8.96164C30.2002 8.28352 29.8261 7.65217 29.2415 7.30143L17.0588 0.263062C16.4742 -0.0876873 15.726 -0.0876873 15.1414 0.263062L2.95871 7.30143C2.35075 7.65217 2 8.28352 2 8.96164Z" fill="black"/>
<path d="M20.3795 20.6065L11.7978 9.78003H10.9326V22.2199H11.8212V11.183L20.5665 22.2199H21.268V9.78003H20.3795V20.6065Z" fill="white"/>
</svg>
