<svg xmlns="http://www.w3.org/2000/svg" width="190" height="47.458" viewBox="0 0 190 47.458">
  <g id="Group_7230" data-name="Group 7230" transform="translate(-303.785 -347.72)">
    <rect id="Rectangle_7779" data-name="Rectangle 7779" width="32.546" height="47.05" transform="translate(303.785 348.128)" fill="#6f50dc"/>
    <path id="Path_26582" data-name="Path 26582" d="M340.13,395.771a12.1,12.1,0,0,1,4.85.97,12.9,12.9,0,0,1,3.963,2.66,12.34,12.34,0,0,1,2.688,3.935,12.109,12.109,0,0,1,.97,4.849v12.47h-4.933v-12.47a7.313,7.313,0,0,0-.582-2.91,7.55,7.55,0,0,0-1.607-2.383,7.559,7.559,0,0,0-5.349-2.189,7.305,7.305,0,0,0-2.91.582,7.529,7.529,0,0,0-3.991,3.99,7.312,7.312,0,0,0-.582,2.91v12.47h-4.933V385.794h4.933V398.32a11.884,11.884,0,0,1,3.464-1.885A12.137,12.137,0,0,1,340.13,395.771Z" transform="translate(-20.1 -31.98)" fill="#fff"/>
    <rect id="Rectangle_7780" data-name="Rectangle 7780" width="32.546" height="47.05" transform="translate(338.575 348.128)" fill="#e6007d"/>
    <path id="Path_26583" data-name="Path 26583" d="M545.082,461.233a12.1,12.1,0,0,1,.97-4.85,12.442,12.442,0,0,1,6.623-6.6,12.54,12.54,0,0,1,9.672,0,12.9,12.9,0,0,1,3.963,2.66A12.344,12.344,0,0,1,569,456.383a12.543,12.543,0,0,1,0,9.672,12.644,12.644,0,0,1-6.651,6.678,12.538,12.538,0,0,1-9.672,0,12.213,12.213,0,0,1-3.963-2.688,12.763,12.763,0,0,1-2.66-3.99A12.151,12.151,0,0,1,545.082,461.233Zm4.877,0a7.538,7.538,0,1,0,15.076,0,7.314,7.314,0,0,0-.582-2.91,7.55,7.55,0,0,0-1.607-2.383,7.558,7.558,0,0,0-12.3,2.383A7.312,7.312,0,0,0,549.959,461.233Z" transform="translate(-202.676 -84.917)" fill="#fff"/>
    <rect id="Rectangle_7781" data-name="Rectangle 7781" width="50.838" height="47.05" transform="translate(373.366 348.128)" fill="#faaa32"/>
    <path id="Path_26584" data-name="Path 26584" d="M789.628,438.192a12.1,12.1,0,0,1,4.849.97,12.9,12.9,0,0,1,3.963,2.66,12.348,12.348,0,0,1,2.688,3.935,12.11,12.11,0,0,1,.97,4.849v12.47h-4.933v-12.47a7.315,7.315,0,0,0-.582-2.91,7.55,7.55,0,0,0-1.607-2.383,7.558,7.558,0,0,0-5.348-2.189,7.307,7.307,0,0,0-2.91.582,7.531,7.531,0,0,0-3.99,3.99,7.315,7.315,0,0,0-.582,2.91v12.47h-4.933v-12.47a7.312,7.312,0,0,0-.582-2.91,7.553,7.553,0,0,0-1.607-2.383,7.559,7.559,0,0,0-5.349-2.189,7.307,7.307,0,0,0-2.91.582,7.529,7.529,0,0,0-3.99,3.99,7.312,7.312,0,0,0-.582,2.91v12.47H757.26v-12.47a12.088,12.088,0,0,1,.97-4.849,12.44,12.44,0,0,1,6.623-6.6,12.161,12.161,0,0,1,4.822-.97,12,12,0,0,1,5.681,1.358,12.535,12.535,0,0,1,4.3,3.686,12.444,12.444,0,0,1,4.323-3.686A12.046,12.046,0,0,1,789.628,438.192Z" transform="translate(-380.894 -75.992)" fill="#fff"/>
    <rect id="Rectangle_7782" data-name="Rectangle 7782" width="32.546" height="47.05" transform="translate(426.449 347.72)" fill="#00af9b"/>
    <path id="Path_26585" data-name="Path 26585" d="M1113.852,455.895l2.469,4.277-2.1,1.215a12.423,12.423,0,0,1-17.025-4.562,11.792,11.792,0,0,1-1.554-4.691,12.9,12.9,0,0,1,.356-4.753,12.7,12.7,0,0,1,2.061-4.268,11.864,11.864,0,0,1,3.685-3.259,12.144,12.144,0,0,1,4.7-1.581,12.447,12.447,0,0,1,9.047,2.424,12.15,12.15,0,0,1,3.278,3.719l1.215,2.1-16.9,9.759a7.383,7.383,0,0,0,8.671.831Zm-9.629-11.818a7.416,7.416,0,0,0-3.616,7.925l2.478-1.43,3.53-2.038q1.866-1.077,3.59-2.051t2.674-1.521a7.437,7.437,0,0,0-4.123-1.851A7.13,7.13,0,0,0,1104.223,444.077Z" transform="translate(-665.048 -75.982)" fill="#fff"/>
    <rect id="Rectangle_7783" data-name="Rectangle 7783" width="32.546" height="47.05" transform="translate(461.239 347.72)" fill="#282828"/>
    <path id="Path_26586" data-name="Path 26586" d="M1332.165,438.018,1319.2,462.959l-12.914-24.941h5.542q.775,1.5,1.773,3.408t2,3.88q1,1.968,1.968,3.8t1.635,3.159q.831-1.607,1.912-3.686t2.134-4.129q1.053-2.05,1.94-3.8t1.386-2.633Z" transform="translate(-842.043 -75.846)" fill="#fff"/>
  </g>
</svg>
