<svg xmlns="http://www.w3.org/2000/svg" width="8.083" height="14.5" viewBox="0 0 8.083 14.5">
  <g data-name="Group 8004">
    <g data-name="Group 8003">
      <path data-name="Path 27030" d="M4.042.25a.292.292 0 00-.292.292v13.416a.292.292 0 10.583 0V.542A.292.292 0 004.042.25z" fill="#ffffff" stroke="#ffffff" stroke-width="0.5"/>
    </g>
  </g>
  <g data-name="Group 8006">
    <g data-name="Group 8005">
      <path data-name="Path 27031" d="M4.042 1.417C1.951 1.417.25 2.725.25 4.334A2.925 2.925 0 002.333 6.94a.292.292 0 00.211-.544A2.364 2.364 0 01.833 4.333C.833 3.046 2.273 2 4.041 2s3.208 1.046 3.208 2.333a.292.292 0 10.583 0c.001-1.608-1.7-2.916-3.79-2.916z" fill="#ffffff" stroke="#ffffff" stroke-width="0.5"/>
    </g>
  </g>
  <g data-name="Group 8008">
    <g data-name="Group 8007">
      <path data-name="Path 27032" d="M5.75 7.561a.291.291 0 10-.211.543 2.364 2.364 0 011.711 2.063c0 1.287-1.44 2.333-3.208 2.333S.834 11.454.834 10.167a.292.292 0 10-.583 0c0 1.608 1.7 2.917 3.792 2.917s3.792-1.308 3.792-2.917A2.924 2.924 0 005.75 7.561z" fill="#ffffff" stroke="#ffffff" stroke-width="0.5"/>
    </g>
  </g>
  <g data-name="Group 8010">
    <g data-name="Group 8009">
      <path data-name="Path 27033" d="M5.75 7.563a23.463 23.463 0 00-1.686-.619c-.38-.125-.772-.256-1.523-.547a.291.291 0 00-.212.543c.765.3 1.165.429 1.552.557.419.138.814.269 1.651.606a.3.3 0 00.109.021.291.291 0 00.109-.561z" fill="#ffffff" stroke="#ffffff" stroke-width="0.5"/>
    </g>
  </g>
</svg>