<svg xmlns="http://www.w3.org/2000/svg" width="40" height="40" viewBox="0 0 40 40">
  <g id="Group_8097" data-name="Group 8097" transform="translate(22916 -1824)">
    <rect id="Rectangle_8498" data-name="Rectangle 8498" width="40" height="40" rx="3" transform="translate(-22916 1824)" fill="#bfebe6"/>
    <g id="package" transform="translate(-22914.547 1835)">
      <g id="Group_8094" data-name="Group 8094" transform="translate(9.546 0)">
        <path id="Path_27083" data-name="Path 27083" d="M27.668,4.917,23.938.187A.486.486,0,0,0,23.556,0H13.763a.486.486,0,0,0-.382.187L9.652,4.917a.476.476,0,0,0-.106.3V18.512a.489.489,0,0,0,.488.488H27.281a.489.489,0,0,0,.488-.488V5.218A.45.45,0,0,0,27.668,4.917Zm-1.326-.106H19.148V.976H23.32ZM14,.976h4.173V4.811H10.977ZM10.522,18.024V5.787H26.793V18.024Z" transform="translate(-9.546 0)" fill="#00af9b" stroke="#00af9b" stroke-width="1"/>
        <path id="Path_27084" data-name="Path 27084" d="M161.684,235.53l-3.27,3.27-1.358-1.358a.489.489,0,0,0-.691.691l1.7,1.7a.49.49,0,0,0,.346.142.5.5,0,0,0,.346-.142l3.611-3.611a.488.488,0,0,0,0-.691A.48.48,0,0,0,161.684,235.53Z" transform="translate(-150.256 -225.815)" fill="#00af9b" stroke="#00af9b" stroke-width="1"/>
      </g>
    </g>
  </g>
</svg>
