<svg xmlns="http://www.w3.org/2000/svg" width="50" height="30" viewBox="0 0 50 30">
  <g id="Group_6927" data-name="Group 6927" transform="translate(-1448 -4280)">
    <path id="Path_25197" data-name="Path 25197" d="M5,0H45a5,5,0,0,1,5,5V25a5,5,0,0,1-5,5H5a5,5,0,0,1-5-5V5A5,5,0,0,1,5,0Z" transform="translate(1448 4280)" fill="#fff"/>
    <g id="mastercard-2" transform="translate(1460 4285.001)">
      <path id="Path_821" data-name="Path 821" d="M127.857,1319.95V1320h.049a.05.05,0,0,0,.026-.007.023.023,0,0,0,.01-.02.022.022,0,0,0-.01-.02.047.047,0,0,0-.026-.007h-.049Zm.049-.037a.09.09,0,0,1,.059.017.056.056,0,0,1,.021.046.053.053,0,0,1-.016.041.079.079,0,0,1-.047.02l.065.075h-.05l-.06-.074h-.019v.074h-.042v-.2h.092Zm-.013.266a.155.155,0,0,0,.064-.013.168.168,0,0,0,.052-.035.166.166,0,0,0,.035-.052.165.165,0,0,0-.035-.182.159.159,0,0,0-.117-.048.171.171,0,0,0-.065.012.167.167,0,0,0-.054.036.169.169,0,0,0-.035.183.156.156,0,0,0,.035.052.171.171,0,0,0,.054.035.161.161,0,0,0,.065.013m0-.379a.219.219,0,0,1,.154.063.211.211,0,0,1,.046.234.222.222,0,0,1-.046.068.234.234,0,0,1-.069.046.215.215,0,0,1-.085.017.218.218,0,0,1-.086-.017.2.2,0,0,1-.115-.116.211.211,0,0,1,.046-.233.207.207,0,0,1,.069-.046.216.216,0,0,1,.086-.017m-20.035-.762a.65.65,0,1,1,.651.688.644.644,0,0,1-.651-.688m1.739,0v-1.074h-.467v.262a.814.814,0,0,0-.678-.315,1.129,1.129,0,0,0,0,2.255.814.814,0,0,0,.678-.315v.261h.466v-1.074Zm15.778,0a.65.65,0,1,1,.652.688.645.645,0,0,1-.652-.688m1.739,0V1317.1h-.467v1.124a.814.814,0,0,0-.678-.315,1.129,1.129,0,0,0,0,2.255.814.814,0,0,0,.678-.315v.261h.467Zm-11.722-.71a.533.533,0,0,1,.544.521h-1.114a.553.553,0,0,1,.571-.521m.009-.419a1.129,1.129,0,0,0,.031,2.255,1.3,1.3,0,0,0,.88-.3l-.229-.346a1.024,1.024,0,0,1-.625.225.6.6,0,0,1-.642-.526h1.595c0-.058.009-.117.009-.18a1.03,1.03,0,0,0-1.02-1.128m5.638,1.128a.65.65,0,1,1,.651.688.644.644,0,0,1-.651-.688m1.739,0v-1.073h-.467v.262a.815.815,0,0,0-.678-.315,1.129,1.129,0,0,0,0,2.255.815.815,0,0,0,.678-.315v.261h.467v-1.074Zm-4.375,0a1.085,1.085,0,0,0,1.146,1.128,1.123,1.123,0,0,0,.772-.256l-.224-.377a.943.943,0,0,1-.563.193.689.689,0,0,1,0-1.375.946.946,0,0,1,.563.193l.224-.377a1.123,1.123,0,0,0-.772-.256,1.085,1.085,0,0,0-1.146,1.128m6.02-1.128a.634.634,0,0,0-.566.315v-.26h-.463v2.147h.467v-1.2c0-.355.153-.553.458-.553a.755.755,0,0,1,.292.054l.144-.44a.994.994,0,0,0-.333-.059m-12.517.225a1.6,1.6,0,0,0-.876-.225c-.544,0-.894.261-.894.687,0,.35.261.566.741.634l.221.031c.256.036.377.1.377.225,0,.166-.17.261-.489.261a1.145,1.145,0,0,1-.714-.225l-.219.364a1.549,1.549,0,0,0,.93.279c.62,0,.98-.292.98-.7,0-.378-.283-.575-.75-.642l-.22-.032c-.2-.026-.364-.067-.364-.211s.153-.251.409-.251a1.386,1.386,0,0,1,.669.184l.2-.377Zm6.025-.224a.633.633,0,0,0-.566.315v-.261H116.9v2.147h.467v-1.2c0-.355.153-.553.458-.553a.755.755,0,0,1,.292.054l.144-.44a.994.994,0,0,0-.333-.059m-3.985.054h-.764v-.651h-.472v.651h-.436v.427h.436v.979c0,.5.193.8.746.8a1.1,1.1,0,0,0,.584-.166l-.135-.4a.865.865,0,0,1-.413.121c-.233,0-.31-.144-.31-.359v-.97h.764Zm-6.981,2.148v-1.348a.8.8,0,0,0-.845-.854.832.832,0,0,0-.755.382.788.788,0,0,0-.71-.382.71.71,0,0,0-.629.319v-.265h-.467v2.147h.471v-1.191a.5.5,0,0,1,.526-.571c.31,0,.467.2.467.566v1.2h.472v-1.191a.507.507,0,0,1,.525-.571c.319,0,.471.2.471.566v1.2Z" transform="translate(-102.205 -1299.868)" fill="#231f20"/>
      <path id="Path_822" data-name="Path 822" d="M1929.531,977.534v-.314h-.082l-.094.216-.094-.216h-.082v.314h.058V977.3l.089.2h.06l.089-.2v.237h.057Zm-.519,0v-.26h.1v-.053h-.267v.053h.1v.26h.058Z" transform="translate(-1903.613 -964.435)" fill="#f79410"/>
      <path id="Path_823" data-name="Path 823" d="M736.786,144.868H729.71V132.15h7.077Z" transform="translate(-720.163 -130.422)" fill="#ff5f00"/>
      <path id="Path_824" data-name="Path 824" d="M10,8.087a8.075,8.075,0,0,1,3.089-6.359,8.088,8.088,0,1,0,0,12.717A8.075,8.075,0,0,1,10,8.087" transform="translate(0 0)" fill="#eb001b"/>
      <path id="Path_825" data-name="Path 825" d="M1013.2,8.087a8.088,8.088,0,0,1-13.086,6.359,8.089,8.089,0,0,0,0-12.717A8.087,8.087,0,0,1,1013.2,8.087" transform="translate(-987.025 0)" fill="#f79e1b"/>
    </g>
  </g>
</svg>
