<svg xmlns="http://www.w3.org/2000/svg" width="35.625" height="48" viewBox="0 0 35.625 48">
  <g id="medal" transform="translate(-0.5)">
    <path id="Path_26685" data-name="Path 26685" d="M40.5,54.062A14.062,14.062,0,1,0,54.562,40,14.078,14.078,0,0,0,40.5,54.062ZM54.562,41.875A12.187,12.187,0,1,1,42.375,54.062,12.2,12.2,0,0,1,54.562,41.875Zm0,0" transform="translate(-36.25 -36.25)" fill="#2a272e"/>
    <path id="Path_26686" data-name="Path 26686" d="M95.188,100.3l3.634,3.58-.836,5.032a.938.938,0,0,0,1.357.986l4.527-2.351,4.527,2.351a.938.938,0,0,0,1.357-.986l-.836-5.032,3.634-3.58a.937.937,0,0,0-.519-1.595l-5.043-.759-2.282-4.563a.937.937,0,0,0-1.677,0l-2.282,4.563-5.043.759a.937.937,0,0,0-.519,1.595Zm6.322-.572a.938.938,0,0,0,.7-.508l1.661-3.322,1.661,3.322a.938.938,0,0,0,.7.508l3.671.553-2.645,2.606a.939.939,0,0,0-.267.822l.609,3.662-3.3-1.711a.937.937,0,0,0-.864,0l-3.3,1.711.609-3.662a.937.937,0,0,0-.267-.822l-2.645-2.606Zm0,0" transform="translate(-85.558 -84.154)" fill="#2a272e"/>
    <path id="Path_26687" data-name="Path 26687" d="M182.375.937A.938.938,0,1,1,181.438,0,.937.937,0,0,1,182.375.937Zm0,0" transform="translate(-163.125)" fill="#2a272e"/>
    <path id="Path_26688" data-name="Path 26688" d="M13.894,5.61a17.814,17.814,0,0,0-7.53,30.468L.716,46.032a.938.938,0,0,0,1.006,1.381l6.414-1.332,2.254,6.353a.937.937,0,0,0,1.7.15l6.224-10.942,6.224,10.942a.937.937,0,0,0,.814.474c.027,0,.055,0,.083,0a.939.939,0,0,0,.8-.62l2.254-6.353L34.9,47.413a.938.938,0,0,0,1.006-1.381l-5.648-9.954A17.814,17.814,0,0,0,22.731,5.61a.938.938,0,0,0-.464,1.817,15.937,15.937,0,1,1-7.909,0,.937.937,0,1,0-.464-1.817ZM11.472,49.875,9.63,44.684a.938.938,0,0,0-1.074-.6L3.369,45.156l4.47-7.878a17.85,17.85,0,0,0,8.9,3.335Zm16.6-5.8a.938.938,0,0,0-1.074.6l-1.842,5.192-5.269-9.263a17.852,17.852,0,0,0,8.9-3.335l4.47,7.878Zm0,0" transform="translate(0 -5.058)" fill="#2a272e"/>
  </g>
</svg>
