<svg id="Icons" height="512" viewBox="0 0 74 74" width="512" xmlns="http://www.w3.org/2000/svg"><path d="m68.449 19.863a1 1 0 0 1 -.235-.028 19.018 19.018 0 0 1 -9-5.052 19.016 19.016 0 0 1 -5.052-9 1 1 0 0 1 1.945-.468 17.023 17.023 0 0 0 4.521 8.052 17.033 17.033 0 0 0 8.052 4.522 1 1 0 0 1 -.234 1.972z"/><path d="m62.319 32.83a.99.99 0 0 1 -.541-.16 1 1 0 0 1 -.3-1.382c.551-.853 1.085-1.741 1.589-2.638a1 1 0 0 1 1.744.98c-.524.932-1.08 1.855-1.651 2.742a1 1 0 0 1 -.841.458z"/><path d="m32.11 57.14a.985.985 0 0 1 -.381-.076c-6.477-2.674-11.448-7.637-14.775-14.75a1 1 0 0 1 -.014-.815 83.487 83.487 0 0 1 4.06-8.28c.022-.038.046-.075.071-.11a68.429 68.429 0 0 1 9.2-12.717 56.943 56.943 0 0 1 24.562-15.792 48.3 48.3 0 0 1 16.206-2.578 1 1 0 0 1 .94.939 48.356 48.356 0 0 1 -2.579 16.206c-.4 1.255-.857 2.517-1.355 3.748a1 1 0 1 1 -1.854-.75c.479-1.185.918-2.4 1.305-3.609a49.866 49.866 0 0 0 2.504-14.556 49.825 49.825 0 0 0 -14.554 2.5 54.971 54.971 0 0 0 -23.7 15.248 66.408 66.408 0 0 0 -8.995 12.452c-.022.038-.045.074-.07.109a81.123 81.123 0 0 0 -3.724 7.559c3.074 6.376 7.382 10.7 13.15 13.185a81.049 81.049 0 0 0 7.585-3.736 1.216 1.216 0 0 1 .107-.069 66.444 66.444 0 0 0 12.453-8.994 60.419 60.419 0 0 0 4.571-4.719 1 1 0 0 1 1.514 1.308 62.724 62.724 0 0 1 -4.727 4.879 68.456 68.456 0 0 1 -12.721 9.208 1.243 1.243 0 0 1 -.108.07 83.565 83.565 0 0 1 -8.279 4.06 1.006 1.006 0 0 1 -.392.08z"/><path d="m39.042 72a1 1 0 0 1 -.875-1.484 21.216 21.216 0 0 0 1.2-18.031 1 1 0 0 1 1.864-.727 23.2 23.2 0 0 1 -.157 17.328 20.959 20.959 0 0 0 4.386-2.866 21.313 21.313 0 0 0 6.52-22.92 1 1 0 0 1 1.9-.616 23.308 23.308 0 0 1 -7.134 25.064 22.755 22.755 0 0 1 -7.385 4.2.994.994 0 0 1 -.319.052z"/><path d="m3 35.958a1 1 0 0 1 -.946-1.323 22.745 22.745 0 0 1 4.2-7.384 23.3 23.3 0 0 1 25.064-7.134 1 1 0 1 1 -.617 1.9 21.311 21.311 0 0 0 -22.921 6.526 20.985 20.985 0 0 0 -2.866 4.386 23.21 23.21 0 0 1 17.329-.155 1 1 0 1 1 -.728 1.863 21.215 21.215 0 0 0 -18.032 1.2.991.991 0 0 1 -.483.121z"/><path d="m16.1 71.617a1 1 0 0 1 -.707-1.707l9.082-9.083a1 1 0 0 1 1.414 1.414l-9.082 9.083a1 1 0 0 1 -.707.293z"/><path d="m3.384 58.9a1 1 0 0 1 -.707-1.707l9.082-9.083a1 1 0 1 1 1.414 1.414l-9.082 9.083a1 1 0 0 1 -.707.293z"/><path d="m6.448 68.552a1 1 0 0 1 -.707-1.707l9.083-9.083a1 1 0 0 1 1.414 1.414l-9.083 9.083a1 1 0 0 1 -.707.293z"/><path d="m48.828 32.982a7.811 7.811 0 1 1 5.524-13.334 7.811 7.811 0 0 1 -5.524 13.334zm0-13.621a5.81 5.81 0 1 0 4.11 1.7 5.776 5.776 0 0 0 -4.11-1.7z"/></svg>