<svg xmlns="http://www.w3.org/2000/svg" width="21.721" height="22.3" viewBox="0 0 21.721 22.3">
  <g id="equalizer_1_" data-name="equalizer (1)" transform="translate(-2.35 -2.35)">
    <path id="Path_26886" data-name="Path 26886" d="M5.395,2.5A2.895,2.895,0,1,0,8.232,5.974H23.342a.579.579,0,0,0,0-1.158H8.232A2.9,2.9,0,0,0,5.395,2.5ZM3.658,5.395A1.737,1.737,0,1,1,5.395,7.132,1.737,1.737,0,0,1,3.658,5.395Z" transform="translate(0 0)" fill="#00af9b" stroke="#00af9b" stroke-width="0.3" fill-rule="evenodd"/>
    <path id="Path_26887" data-name="Path 26887" d="M23.342,18.816H8.232a2.895,2.895,0,1,0,0,1.158H23.342a.579.579,0,1,0,0-1.158Zm-16.211.579a1.737,1.737,0,1,0-1.737,1.737A1.737,1.737,0,0,0,7.132,19.395Z" transform="translate(0 2.211)" fill="#00af9b" stroke="#00af9b" stroke-width="0.3" fill-rule="evenodd"/>
    <path id="Path_26888" data-name="Path 26888" d="M3,12.395a.579.579,0,0,1,.579-.579h8.684l.057,0a2.9,2.9,0,0,1,5.674,0h5.268a.579.579,0,0,1,0,1.158H17.995a2.9,2.9,0,0,1-5.674,0l-.057,0H3.579A.579.579,0,0,1,3,12.395Zm12.158-1.737a1.737,1.737,0,1,0,1.737,1.737A1.737,1.737,0,0,0,15.158,10.658Z" transform="translate(0.079 1.105)" fill="#00af9b" stroke="#00af9b" stroke-width="0.3" fill-rule="evenodd"/>
  </g>
</svg>
