<svg xmlns="http://www.w3.org/2000/svg" width="50" height="35.211" viewBox="0 0 50 35.211">
  <g id="Group_6928" data-name="Group 6928" transform="translate(-1522 -4277)">
    <path id="Path_25196" data-name="Path 25196" d="M5,0H45a5,5,0,0,1,5,5V25a5,5,0,0,1-5,5H5a5,5,0,0,1-5-5V5A5,5,0,0,1,5,0Z" transform="translate(1522 4280)" fill="#fff"/>
    <g id="visa_1_" data-name="visa (1)" transform="translate(1529 4277)">
      <g id="Group_1242" data-name="Group 1242" transform="translate(2.789 12.799)">
        <path id="Path_826" data-name="Path 826" d="M24.072,60.972H21.654l1.511-9.287h2.418ZM19.62,51.685l-2.305,6.388L17.042,56.7h0l-.814-4.177a1.035,1.035,0,0,0-1.147-.836H11.271l-.045.157A9.046,9.046,0,0,1,13.755,52.9l2.1,8.069h2.519l3.847-9.288h-2.6Zm19.019,9.287h2.22l-1.936-9.288H36.98a1.111,1.111,0,0,0-1.116.692l-3.606,8.6h2.521l.5-1.38h3.074l.283,1.38Zm-2.661-3.285,1.27-3.476.715,3.476Zm-3.532-3.769.345-1.994a6.979,6.979,0,0,0-2.175-.4c-1.2,0-4.049.524-4.049,3.075,0,2.4,3.344,2.429,3.344,3.689s-3,1.034-3.99.24l-.359,2.085a6.776,6.776,0,0,0,2.729.524c1.65,0,4.139-.854,4.139-3.18,0-2.415-3.374-2.64-3.374-3.689s2.355-.915,3.39-.345Z" transform="translate(-11.226 -51.519)" fill="#2566af"/>
      </g>
      <path id="Path_827" data-name="Path 827" d="M17.042,57.2l-.814-4.177a1.035,1.035,0,0,0-1.147-.836H11.271l-.045.157a9.368,9.368,0,0,1,3.589,1.8A7.242,7.242,0,0,1,17.042,57.2Z" transform="translate(-8.437 -39.221)" fill="#e6a540"/>
      <path id="Path_828" data-name="Path 828" d="M0,0H35.211V35.211H0Z" fill="none"/>
    </g>
  </g>
</svg>
