<svg width="33" height="20" viewBox="0 0 33 20" fill="none" xmlns="http://www.w3.org/2000/svg">
<path d="M30.0921 6.00073H27.1761V8.90342H24.2734V11.8194H27.1761V14.7221H30.0921V11.8194H32.9948V8.90342H30.0921V6.00073Z" fill="#F8ECEC"/>
<path d="M10.9952 20.0009C16.7659 20.0009 20.5953 15.9502 20.5953 10.2329C20.5956 9.67421 20.5411 9.11687 20.4326 8.56885H10.9952V12.0009H16.6712C16.408 13.2855 15.6875 14.431 14.6437 15.2248C13.5998 16.0185 12.3035 16.4066 10.9952 16.3169C9.33579 16.2928 7.75251 15.6167 6.58757 14.4347C5.42263 13.2527 4.76959 11.6598 4.76959 10.0002C4.76959 8.34062 5.42263 6.74769 6.58757 5.5657C7.75251 4.38371 9.33579 3.7076 10.9952 3.68349C12.4744 3.65257 13.906 4.20645 14.9792 5.22483L17.6939 2.61948C15.8868 0.908137 13.4838 -0.031275 10.9952 0.0007949C8.343 0.0007949 5.79945 1.05437 3.92407 2.92975C2.04869 4.80512 0.995117 7.34868 0.995117 10.0009C0.995117 12.653 2.04869 15.1966 3.92407 17.072C5.79945 18.9474 8.343 20.0009 10.9952 20.0009Z" fill="#F8ECEC"/>
</svg>
