<svg width="18" height="14" viewBox="0 0 18 14" fill="none" xmlns="http://www.w3.org/2000/svg">
<path d="M16.312 0H1.688C1.2404 0.000264933 0.8112 0.178194 0.494696 0.494698C0.178192 0.811202 0.000264933 1.2404 0 1.688L0 11.813C0.000264933 12.2606 0.178192 12.6898 0.494696 13.0063C0.8112 13.3228 1.2404 13.5007 1.688 13.501H16.312C16.7596 13.5007 17.1888 13.3228 17.5053 13.0063C17.8218 12.6898 17.9997 12.2606 18 11.813V1.688C17.9997 1.2404 17.8218 0.811202 17.5053 0.494698C17.1888 0.178194 16.7596 0.000264933 16.312 0ZM16.312 1.125C16.3862 1.12518 16.4596 1.14014 16.528 1.169L9 7.693L1.472 1.169C1.54037 1.14017 1.6138 1.12521 1.688 1.125H16.312ZM16.312 12.375H1.688C1.61407 12.375 1.54086 12.3604 1.47255 12.3321C1.40424 12.3038 1.34218 12.2624 1.2899 12.2101C1.23762 12.1578 1.19615 12.0958 1.16786 12.0275C1.13956 11.9591 1.125 11.8859 1.125 11.812V2.357L8.631 8.863C8.73333 8.95159 8.86415 9.00035 8.9995 9.00035C9.13485 9.00035 9.26567 8.95159 9.368 8.863L16.874 2.357V11.812C16.874 11.9611 16.8148 12.1042 16.7095 12.2098C16.6041 12.3153 16.4611 12.3747 16.312 12.375Z" fill="white"/>
</svg>
