<svg width="13" height="18" viewBox="0 0 13 18" fill="none" xmlns="http://www.w3.org/2000/svg">
<path d="M6.32804 0C5.20101 -2.38136e-06 4.09443 0.300942 3.12263 0.871736C2.15084 1.44253 1.34909 2.26247 0.800238 3.24681C0.251383 4.23116 -0.0246633 5.34422 0.000616141 6.47096C0.0258956 7.5977 0.351587 8.69726 0.944037 9.656L5.96704 17.751C6.01435 17.8272 6.08033 17.8901 6.15873 17.9336C6.23712 17.9772 6.32534 18 6.41504 18C6.50539 17.9993 6.59405 17.9754 6.67251 17.9306C6.75096 17.8857 6.81657 17.8215 6.86304 17.744L11.763 9.571C12.336 8.61035 12.6441 7.51502 12.6561 6.39654C12.668 5.27807 12.3833 4.1764 11.831 3.20375C11.2787 2.23109 10.4784 1.42219 9.51176 0.859416C8.54511 0.296643 7.44658 0.000104893 6.32804 0V0ZM10.858 9.029L6.40803 16.46L1.84104 9.1C1.34831 8.30368 1.07635 7.39059 1.05308 6.45445C1.02982 5.5183 1.25608 4.59283 1.70865 3.77302C2.16122 2.95321 2.8238 2.26859 3.62836 1.78945C4.43293 1.3103 5.3505 1.05388 6.28691 1.04651C7.22331 1.03914 8.14481 1.28108 8.95682 1.7475C9.76883 2.21392 10.4421 2.88801 10.9075 3.70059C11.373 4.51318 11.6138 5.43497 11.6052 6.37137C11.5967 7.30776 11.3392 8.22502 10.859 9.029H10.858Z" fill="white"/>
<path d="M6.32807 3.16406C5.70229 3.16406 5.09056 3.34963 4.57024 3.6973C4.04992 4.04496 3.64439 4.5391 3.40491 5.11725C3.16544 5.69539 3.10277 6.33157 3.22486 6.94533C3.34694 7.55908 3.64829 8.12285 4.09078 8.56535C4.53327 9.00784 5.09705 9.30918 5.7108 9.43127C6.32456 9.55335 6.96074 9.4907 7.53888 9.25122C8.11703 9.01174 8.61117 8.6062 8.95884 8.08588C9.3065 7.56557 9.49207 6.95384 9.49207 6.32806C9.49101 5.48924 9.15732 4.68509 8.56418 4.09195C7.97105 3.49881 7.16689 3.16512 6.32807 3.16406ZM6.32807 8.44406C5.90944 8.44465 5.50003 8.32106 5.15166 8.08891C4.80329 7.85676 4.53162 7.5265 4.37101 7.1399C4.21039 6.7533 4.16806 6.32775 4.24936 5.91709C4.33067 5.50643 4.53196 5.12911 4.82776 4.83289C5.12357 4.53666 5.50061 4.33483 5.91115 4.25294C6.3217 4.17106 6.74731 4.21278 7.13413 4.37285C7.52095 4.53291 7.85161 4.80413 8.08425 5.15217C8.31689 5.50021 8.44106 5.90943 8.44106 6.32806C8.44053 6.88858 8.21785 7.42603 7.82178 7.82265C7.42572 8.21928 6.88858 8.44274 6.32807 8.44406Z" fill="white"/>
</svg>
