<svg width="50" height="30" viewBox="0 0 50 30" fill="none" xmlns="http://www.w3.org/2000/svg">
<path d="M5 0H45C46.3261 0 47.5979 0.526784 48.5355 1.46447C49.4732 2.40215 50 3.67392 50 5V25C50 26.3261 49.4732 27.5979 48.5355 28.5355C47.5979 29.4732 46.3261 30 45 30H5C3.67392 30 2.40215 29.4732 1.46447 28.5355C0.526784 27.5979 0 26.3261 0 25L0 5C0 3.67392 0.526784 2.40215 1.46447 1.46447C2.40215 0.526784 3.67392 0 5 0V0Z" fill="white"/>
<path d="M37.6496 17.0834V17.1334H37.6986C37.7078 17.1335 37.7168 17.1311 37.7246 17.1265C37.7279 17.1243 37.7305 17.1212 37.7322 17.1177C37.734 17.1142 37.7348 17.1104 37.7346 17.1064C37.7349 17.1025 37.7341 17.0986 37.7324 17.0951C37.7306 17.0916 37.7279 17.0886 37.7246 17.0864C37.7168 17.0816 37.7078 17.0792 37.6986 17.0795H37.6496V17.0834ZM37.6986 17.0464C37.7197 17.045 37.7406 17.0511 37.7576 17.0635C37.7645 17.069 37.77 17.0759 37.7736 17.0839C37.7773 17.0919 37.779 17.1006 37.7786 17.1094C37.7791 17.117 37.7779 17.1246 37.7751 17.1317C37.7723 17.1388 37.7681 17.1451 37.7626 17.1504C37.7496 17.1621 37.7331 17.1691 37.7156 17.1704L37.7806 17.2455H37.7306L37.6706 17.1714H37.6516V17.2455H37.6096V17.0454H37.7016L37.6986 17.0464ZM37.6856 17.3124C37.7076 17.3126 37.7295 17.3083 37.7496 17.2994C37.769 17.2911 37.7867 17.2792 37.8016 17.2644C37.8165 17.2495 37.8284 17.2318 37.8366 17.2124C37.8497 17.182 37.8533 17.1485 37.8471 17.1161C37.8409 17.0836 37.825 17.0537 37.8016 17.0304C37.7865 17.0148 37.7682 17.0025 37.7481 16.9943C37.728 16.986 37.7064 16.982 37.6846 16.9824C37.6624 16.9822 37.6403 16.9862 37.6196 16.9944C37.5995 17.0027 37.5811 17.015 37.5656 17.0304C37.5425 17.0541 37.5269 17.0842 37.5206 17.1167C37.5144 17.1492 37.5179 17.1828 37.5306 17.2134C37.5387 17.2329 37.5506 17.2506 37.5656 17.2654C37.5813 17.2804 37.5996 17.2923 37.6196 17.3004C37.6402 17.3092 37.6623 17.3137 37.6846 17.3135L37.6856 17.3124ZM37.6846 16.9344C37.7423 16.9344 37.7976 16.957 37.8386 16.9974C37.869 17.0273 37.8896 17.0655 37.8979 17.1073C37.9061 17.1491 37.9015 17.1924 37.8846 17.2314C37.8737 17.2568 37.8581 17.2798 37.8386 17.2994C37.8186 17.3188 37.7952 17.3344 37.7696 17.3455C37.7427 17.3568 37.7138 17.3626 37.6846 17.3624C37.6551 17.3626 37.6259 17.3569 37.5986 17.3455C37.5724 17.3353 37.5486 17.3197 37.5287 17.2997C37.5089 17.2797 37.4936 17.2557 37.4836 17.2294C37.467 17.1904 37.4625 17.1474 37.4707 17.1058C37.4789 17.0643 37.4995 17.0262 37.5296 16.9965C37.5493 16.9766 37.5728 16.961 37.5986 16.9504C37.6258 16.939 37.6551 16.9332 37.6846 16.9335V16.9344ZM17.6496 16.1714C17.6571 16.0448 17.7014 15.923 17.7771 15.8213C17.8528 15.7195 17.9567 15.6422 18.0759 15.5988C18.195 15.5553 18.3243 15.5477 18.4478 15.5768C18.5712 15.6059 18.6835 15.6706 18.7707 15.7627C18.8578 15.8548 18.9162 15.9705 18.9384 16.0953C18.9607 16.2202 18.9459 16.3489 18.896 16.4655C18.846 16.582 18.763 16.6815 18.6572 16.7515C18.5514 16.8215 18.4275 16.859 18.3006 16.8594C18.2116 16.8606 18.1234 16.8434 18.0414 16.8087C17.9594 16.7741 17.8855 16.7227 17.8243 16.6581C17.7632 16.5934 17.7161 16.5169 17.686 16.4331C17.6559 16.3493 17.6435 16.2602 17.6496 16.1714ZM19.3886 16.1714V15.0974H18.9216V15.3594C18.842 15.2565 18.7389 15.1743 18.6209 15.1195C18.503 15.0647 18.3736 15.0389 18.2436 15.0444C17.9547 15.0593 17.6824 15.1846 17.4832 15.3944C17.2839 15.6042 17.1728 15.8825 17.1728 16.1719C17.1728 16.4612 17.2839 16.7397 17.4832 16.9495C17.6824 17.1593 17.9547 17.2845 18.2436 17.2994C18.3736 17.3049 18.503 17.2792 18.6209 17.2244C18.7389 17.1696 18.842 17.0872 18.9216 16.9844V17.2455H19.3876V16.1714H19.3886ZM35.1666 16.1714C35.174 16.0448 35.2183 15.9231 35.294 15.8214C35.3697 15.7197 35.4735 15.6424 35.5926 15.5989C35.7117 15.5554 35.841 15.5476 35.9644 15.5767C36.0879 15.6057 36.2001 15.6703 36.2873 15.7623C36.3745 15.8544 36.4329 15.9699 36.4553 16.0947C36.4777 16.2195 36.4631 16.3482 36.4133 16.4648C36.3634 16.5815 36.2806 16.6809 36.1749 16.751C36.0693 16.8211 35.9454 16.8588 35.8186 16.8594C35.7296 16.8605 35.6413 16.8434 35.5593 16.8087C35.4772 16.7741 35.4033 16.7228 35.342 16.6582C35.2808 16.5936 35.2336 16.5169 35.2034 16.4331C35.1732 16.3493 35.1607 16.2602 35.1666 16.1714ZM36.9056 16.1714V14.2334H36.4386V15.3574C36.359 15.2546 36.2559 15.1722 36.1379 15.1174C36.02 15.0626 35.8906 15.037 35.7606 15.0425C35.4717 15.0574 35.1994 15.1826 35.0002 15.3925C34.8009 15.6023 34.6898 15.8806 34.6898 16.1699C34.6898 16.4593 34.8009 16.7376 35.0002 16.9474C35.1994 17.1572 35.4717 17.2825 35.7606 17.2974C35.8906 17.3028 36.02 17.2772 36.1379 17.2224C36.2559 17.1676 36.359 17.0853 36.4386 16.9824V17.2434H36.9056V16.1714ZM25.1836 15.4614C25.3248 15.4585 25.4614 15.5117 25.5634 15.6094C25.6654 15.7071 25.7245 15.8412 25.7276 15.9824H24.6136C24.6219 15.8382 24.6863 15.703 24.793 15.6056C24.8997 15.5082 25.0403 15.4565 25.1846 15.4614H25.1836ZM25.1936 15.0425C24.9045 15.0608 24.6335 15.1896 24.4367 15.4022C24.2399 15.6148 24.1323 15.895 24.1363 16.1847C24.1403 16.4744 24.2555 16.7515 24.4581 16.9586C24.6606 17.1657 24.9351 17.287 25.2246 17.2974C25.5449 17.3093 25.8583 17.2025 26.1046 16.9974L25.8756 16.6514C25.6981 16.7937 25.4782 16.873 25.2506 16.8765C25.0965 16.8884 24.9436 16.8403 24.824 16.7423C24.7044 16.6443 24.6272 16.504 24.6086 16.3505H26.2036C26.2036 16.2925 26.2126 16.2334 26.2126 16.1704C26.2262 16.028 26.21 15.8844 26.165 15.7485C26.12 15.6127 26.0472 15.4877 25.9513 15.3816C25.8553 15.2755 25.7383 15.1905 25.6077 15.1321C25.4771 15.0737 25.3357 15.0432 25.1926 15.0425H25.1936ZM30.8306 16.1704C30.8381 16.0438 30.8824 15.9221 30.9581 15.8203C31.0338 15.7186 31.1377 15.6412 31.2569 15.5978C31.376 15.5543 31.5053 15.5467 31.6288 15.5758C31.7522 15.6049 31.8645 15.6696 31.9517 15.7617C32.0388 15.8539 32.0972 15.9695 32.1194 16.0944C32.1417 16.2192 32.1269 16.3479 32.077 16.4645C32.027 16.5811 31.944 16.6805 31.8382 16.7505C31.7324 16.8205 31.6085 16.858 31.4816 16.8584C31.3926 16.8596 31.3044 16.8423 31.2224 16.8076C31.1404 16.773 31.0665 16.7218 31.0053 16.6571C30.9442 16.5925 30.8971 16.5159 30.867 16.4321C30.8369 16.3484 30.8245 16.2592 30.8306 16.1704ZM32.5696 16.1704V15.0974H32.1026V15.3594C32.023 15.2566 31.9198 15.1744 31.8019 15.1196C31.6839 15.0648 31.5546 15.039 31.4246 15.0444C31.1357 15.0593 30.8634 15.1846 30.6642 15.3944C30.4649 15.6042 30.3538 15.8825 30.3538 16.1719C30.3538 16.4612 30.4649 16.7397 30.6642 16.9495C30.8634 17.1593 31.1357 17.2845 31.4246 17.2994C31.5546 17.3048 31.6839 17.279 31.8019 17.2242C31.9198 17.1694 32.023 17.0872 32.1026 16.9844V17.2455H32.5696V16.1714V16.1704ZM28.1946 16.1704C28.1884 16.3218 28.2139 16.4728 28.2695 16.6136C28.3251 16.7545 28.4096 16.8821 28.5176 16.9884C28.6255 17.0947 28.7545 17.1772 28.8963 17.2306C29.0381 17.284 29.1894 17.3071 29.3406 17.2985C29.6209 17.3126 29.8963 17.2213 30.1126 17.0425L29.8886 16.6654C29.7267 16.7888 29.5292 16.8565 29.3256 16.8584C29.1511 16.8469 28.9876 16.7694 28.8681 16.6417C28.7486 16.5141 28.6821 16.3458 28.6821 16.1709C28.6821 15.996 28.7486 15.8277 28.8681 15.7001C28.9876 15.5724 29.1511 15.4949 29.3256 15.4834C29.5292 15.4855 29.7266 15.5532 29.8886 15.6764L30.1126 15.2994C29.8963 15.1206 29.6209 15.0293 29.3406 15.0435C29.1894 15.0348 29.0381 15.0579 28.8963 15.1113C28.7545 15.1647 28.6255 15.2471 28.5176 15.3534C28.4096 15.4596 28.3251 15.5874 28.2695 15.7283C28.2139 15.8692 28.1884 16.02 28.1946 16.1714V16.1704ZM34.2146 15.0435C34.1007 15.0402 33.988 15.0677 33.8884 15.1232C33.7888 15.1786 33.7059 15.2599 33.6486 15.3584V15.0984H33.1856V17.2455H33.6526V16.0454C33.6526 15.6904 33.8056 15.4924 34.1106 15.4924C34.2106 15.4909 34.3098 15.5092 34.4026 15.5464L34.5466 15.1064C34.4398 15.0679 34.3272 15.0479 34.2136 15.0474L34.2146 15.0435ZM21.6966 15.2725C21.4323 15.1148 21.1282 15.0366 20.8206 15.0474C20.2766 15.0474 19.9266 15.3084 19.9266 15.7344C19.9266 16.0844 20.1876 16.3004 20.6676 16.3684L20.8886 16.3994C21.1446 16.4354 21.2656 16.4994 21.2656 16.6244C21.2656 16.7904 21.0956 16.8854 20.7766 16.8854C20.5201 16.8925 20.2687 16.8133 20.0626 16.6604L19.8436 17.0244C20.1157 17.2147 20.4417 17.3125 20.7736 17.3035C21.3936 17.3035 21.7536 17.0114 21.7536 16.6034C21.7536 16.2254 21.4706 16.0284 21.0036 15.9614L20.7836 15.9294C20.5836 15.9034 20.4196 15.8624 20.4196 15.7184C20.4196 15.5744 20.5726 15.4674 20.8286 15.4674C21.0636 15.471 21.2938 15.5343 21.4976 15.6514L21.6976 15.2744L21.6966 15.2725ZM27.7216 15.0485C27.6077 15.0451 27.4949 15.0726 27.3953 15.1281C27.2957 15.1835 27.2129 15.2648 27.1556 15.3634V15.1024H26.6926V17.2494H27.1596V16.0494C27.1596 15.6944 27.3126 15.4965 27.6176 15.4965C27.7176 15.495 27.8168 15.5133 27.9096 15.5504L28.0536 15.1105C27.9468 15.0719 27.8342 15.0519 27.7206 15.0514L27.7216 15.0485ZM23.7356 15.1055H22.9716V14.4545H22.4996V15.1055H22.0636V15.5325H22.4996V16.5115C22.4996 17.0115 22.6926 17.3114 23.2456 17.3114C23.452 17.3119 23.6544 17.2544 23.8296 17.1454L23.6946 16.7455C23.5694 16.82 23.4273 16.8616 23.2816 16.8665C23.0486 16.8665 22.9716 16.7224 22.9716 16.5074V15.5375H23.7356V15.1055ZM16.7546 17.2534V15.9054C16.7625 15.792 16.7461 15.6782 16.7066 15.5717C16.667 15.4651 16.6052 15.3682 16.5252 15.2874C16.4453 15.2065 16.349 15.1437 16.2429 15.103C16.1367 15.0623 16.0231 15.0447 15.9096 15.0514C15.7611 15.0417 15.6127 15.0721 15.4799 15.1393C15.3472 15.2065 15.2348 15.3081 15.1546 15.4335C15.0817 15.3118 14.9772 15.212 14.8522 15.1448C14.7272 15.0775 14.5864 15.0452 14.4446 15.0514C14.3211 15.0452 14.1981 15.0714 14.0877 15.1273C13.9774 15.1833 13.8836 15.2671 13.8156 15.3705V15.1055H13.3486V17.2524H13.8196V16.0614C13.8089 15.9878 13.8148 15.9127 13.8368 15.8417C13.8587 15.7706 13.8963 15.7053 13.9467 15.6506C13.9971 15.5959 14.059 15.5532 14.1281 15.5255C14.1971 15.4978 14.2714 15.4858 14.3456 15.4905C14.6556 15.4905 14.8126 15.6904 14.8126 16.0564V17.2565H15.2846V16.0654C15.2752 15.9921 15.282 15.9177 15.3044 15.8473C15.3268 15.7769 15.3643 15.7122 15.4143 15.6578C15.4643 15.6034 15.5256 15.5606 15.5939 15.5323C15.6622 15.5041 15.7358 15.4912 15.8096 15.4944C16.1286 15.4944 16.2806 15.6944 16.2806 16.0604V17.2604L16.7546 17.2534Z" fill="#231F20"/>
<path d="M37.9155 10.1004V9.78638H37.8335L37.7395 10.0024L37.6455 9.78638H37.5635V10.1004H37.6216V9.86639L37.7106 10.0664H37.7705L37.8595 9.86639V10.1034H37.9165L37.9155 10.1004ZM37.3965 10.1004V9.84039H37.4966V9.78741H37.2295V9.84039H37.3295V10.1004H37.3876H37.3965Z" fill="#F79410"/>
<path d="M28.6209 21.4475H21.5449V8.72949H28.6219L28.6209 21.4475Z" fill="#FF5F00"/>
<path d="M21.9975 15.0885C21.9964 13.8637 22.274 12.6547 22.8091 11.553C23.3443 10.4513 24.1231 9.48577 25.0865 8.7295C23.8934 7.79157 22.4605 7.20825 20.9515 7.04623C19.4425 6.8842 17.9184 7.15001 16.5533 7.81326C15.1883 8.47651 14.0374 9.51045 13.2322 10.7969C12.427 12.0833 12 13.5704 12 15.088C12 16.6057 12.427 18.0927 13.2322 19.3791C14.0374 20.6656 15.1883 21.6995 16.5533 22.3627C17.9184 23.026 19.4425 23.2918 20.9515 23.1298C22.4605 22.9678 23.8934 22.3844 25.0865 21.4465C24.1232 20.6903 23.3445 19.725 22.8094 18.6235C22.2742 17.5219 21.9966 16.3131 21.9975 15.0885Z" fill="#EB001B"/>
<path d="M38.1729 15.0886C38.1729 16.6062 37.746 18.0932 36.9409 19.3797C36.1357 20.6661 34.9848 21.7 33.6199 22.3633C32.2549 23.0266 30.7309 23.2925 29.2219 23.1306C27.713 22.9686 26.2801 22.3854 25.0869 21.4476C26.0495 20.6907 26.8276 19.7251 27.3627 18.6237C27.8977 17.5222 28.1758 16.3137 28.1758 15.0891C28.1758 13.8646 27.8977 12.6561 27.3627 11.5546C26.8276 10.4532 26.0495 9.48757 25.0869 8.73064C26.2799 7.79248 27.7128 7.20896 29.2218 7.04679C30.7308 6.88462 32.2549 7.15035 33.62 7.81359C34.9851 8.47684 36.136 9.51083 36.9411 10.7973C37.7462 12.0839 38.1731 13.571 38.1729 15.0886Z" fill="#F79E1B"/>
</svg>
