<svg width="30" height="24" viewBox="0 0 30 24" fill="none" xmlns="http://www.w3.org/2000/svg">
<path d="M29.9951 2.80026C28.9041 3.27615 27.7502 3.59241 26.569 3.7393C27.8137 3.00085 28.7444 1.83142 29.1845 0.452635C28.0191 1.14383 26.744 1.63051 25.4145 1.89159C24.6008 1.01766 23.5425 0.40937 22.3778 0.146111C21.213 -0.117148 19.996 -0.0231421 18.8855 0.41586C17.775 0.854862 16.8227 1.61846 16.1529 2.60698C15.483 3.5955 15.1267 4.76301 15.1305 5.95711C15.126 6.41287 15.1723 6.86772 15.2686 7.3132C12.9038 7.19776 10.5899 6.58458 8.47823 5.51375C6.36655 4.44292 4.5046 2.93854 3.01407 1.09892C2.24882 2.40683 2.01176 3.95755 2.35132 5.43434C2.69087 6.91114 3.58142 8.20259 4.84107 9.04492C3.90003 9.01979 2.97882 8.76877 2.15512 8.31302V8.37792C2.15682 9.75065 2.63133 11.0809 3.4988 12.1448C4.36627 13.2087 5.57374 13.9413 6.91802 14.2194C6.40931 14.3535 5.88502 14.4194 5.35893 14.4154C4.98124 14.4224 4.6039 14.3886 4.23345 14.3146C4.61744 15.4949 5.3579 16.527 6.35284 17.269C7.34779 18.0109 8.54829 18.4261 9.78902 18.4575C7.68379 20.1012 5.08841 20.9919 2.4175 20.9874C1.94209 20.9902 1.46699 20.9625 0.995117 20.9045C3.71189 22.6552 6.87743 23.5819 10.1094 23.5725C12.336 23.5889 14.5437 23.1625 16.6041 22.3183C18.6645 21.4741 20.5366 20.2288 22.1116 18.6549C23.6866 17.0809 24.9331 15.2096 25.7787 13.1497C26.6242 11.0899 27.052 8.88249 27.0371 6.65587C27.0371 6.39349 27.0274 6.1394 27.015 5.88806C28.1879 5.04855 29.1978 4.00216 29.9951 2.80026Z" fill="#F8ECEC"/>
</svg>
