<svg width="50" height="31" viewBox="0 0 50 31" fill="none" xmlns="http://www.w3.org/2000/svg">
<path d="M5 0H45C46.3261 0 47.5979 0.526784 48.5355 1.46447C49.4732 2.40215 50 3.67392 50 5V25C50 26.3261 49.4732 27.5979 48.5355 28.5355C47.5979 29.4732 46.3261 30 45 30H5C3.67392 30 2.40215 29.4732 1.46447 28.5355C0.526784 27.5979 0 26.3261 0 25L0 5C0 3.67392 0.526784 2.40215 1.46447 1.46447C2.40215 0.526784 3.67392 0 5 0V0Z" fill="white"/>
<path d="M22.6351 19.0922H20.2171L21.7281 11.124H24.1461L22.6351 19.0922ZM18.1831 11.124L15.8781 16.6049L15.6051 15.4268L14.7911 11.843C14.7424 11.6205 14.5966 11.4224 14.3834 11.2891C14.1702 11.1558 13.9058 11.0973 13.6441 11.1257H9.83406L9.78906 11.2604C10.6808 11.4505 11.5336 11.756 12.3181 12.1664L14.4181 19.0896H16.9371L20.7841 11.1205H18.1841L18.1831 11.124ZM37.2021 19.0922H39.4221L37.4861 11.1231H35.5431C35.3076 11.1075 35.0726 11.1566 34.8719 11.2634C34.6712 11.3701 34.5154 11.529 34.4271 11.7169L30.8211 19.0956H33.3421L33.8421 17.9116H36.9161L37.1991 19.0956L37.2021 19.0922ZM34.5411 16.2737L35.8111 13.2913L36.5261 16.2737H34.5411ZM31.0091 13.0399L31.3541 11.329C30.6549 11.1162 29.9207 11.0003 29.1791 10.9858C27.9791 10.9858 25.1301 11.4354 25.1301 13.6242C25.1301 15.6834 28.4741 15.7083 28.4741 16.7893C28.4741 17.8704 25.4741 17.6765 24.4841 16.9953L24.1251 18.7842C24.9888 19.0942 25.918 19.2473 26.8541 19.2338C28.5041 19.2338 30.9931 18.5011 30.9931 16.5053C30.9931 14.4333 27.6191 14.2402 27.6191 13.3402C27.6191 12.4402 29.9741 12.5551 31.0091 13.0442V13.0399Z" fill="#2566AF"/>
<path d="M15.6051 15.4258L14.7911 11.842C14.7424 11.6195 14.5966 11.4214 14.3834 11.2881C14.1702 11.1548 13.9058 11.0963 13.6441 11.1247H9.83406L9.78906 11.2594C11.1014 11.5456 12.3259 12.0725 13.3781 12.8038C14.3779 13.4932 15.1465 14.398 15.6051 15.4258V15.4258Z" fill="#E6A540"/>
</svg>
