<svg width="31" height="22" viewBox="0 0 31 22" fill="none" xmlns="http://www.w3.org/2000/svg">
<path d="M30.3743 3.28162C30.2021 2.64931 29.8675 2.07303 29.4037 1.60998C28.94 1.14692 28.3632 0.813184 27.7307 0.641885C25.3836 0 15.9943 0 15.9943 0C15.9943 0 6.6049 0 4.25789 0.618257C3.62599 0.798555 3.05101 1.13817 2.58809 1.60455C2.12516 2.07092 1.78982 2.6484 1.61421 3.28162C1.18793 5.66419 0.980983 8.08083 0.995957 10.5012C0.980161 12.9216 1.18712 15.3383 1.61421 17.7207C1.78598 18.3537 2.12035 18.9308 2.58412 19.3945C3.04788 19.8583 3.62491 20.1927 4.25789 20.3644C6.62984 21.0024 15.9943 21.0024 15.9943 21.0024C15.9943 21.0024 25.3836 21.0024 27.7307 20.3841C28.3637 20.2125 28.9408 19.8781 29.4046 19.4144C29.8684 18.9506 30.2027 18.3735 30.3743 17.7404C30.8006 15.3579 31.0076 12.9412 30.9926 10.5209C31.0207 8.09349 30.8137 5.66908 30.3743 3.28162Z" fill="#F8ECEC"/>
<path d="M13.0039 14.9982L20.8116 10.501L13.0039 6.00391L13.0039 14.9982Z" fill="#6C8685"/>
</svg>
