<svg width="20" height="20" viewBox="0 0 20 20" fill="none" xmlns="http://www.w3.org/2000/svg">
<path d="M11.1043 9.99938L19.7699 1.33376C19.8425 1.26121 19.9 1.17508 19.9393 1.08029C19.9785 0.985494 19.9988 0.883897 19.9988 0.781296C19.9988 0.678695 19.9785 0.577098 19.9393 0.482307C19.9 0.387516 19.8425 0.301386 19.7699 0.228836C19.6974 0.156286 19.6112 0.0987364 19.5164 0.0594726C19.4217 0.0202088 19.3201 0 19.2175 0C19.1149 0 19.0133 0.0202088 18.9185 0.0594726C18.8237 0.0987364 18.7375 0.156286 18.665 0.228836L9.99938 8.89571L1.33376 0.230086C1.18723 0.0835648 0.988509 0.00124992 0.781296 0.00124992C0.574084 0.00124992 0.375358 0.0835648 0.228836 0.230086C0.0823149 0.376608 1.3824e-08 0.575333 1.16407e-08 0.782546C9.45735e-09 0.989759 0.0823149 1.18848 0.228836 1.33501L8.89446 9.99938L0.228836 18.6662C0.156286 18.7388 0.0987364 18.8249 0.0594726 18.9197C0.0202088 19.0145 0 19.1161 0 19.2187C0 19.3213 0.0202088 19.4229 0.0594726 19.5177C0.0987364 19.6125 0.156286 19.6986 0.228836 19.7712C0.301386 19.8437 0.387516 19.9013 0.482307 19.9405C0.577098 19.9798 0.678695 20 0.781296 20C0.883897 20 0.985494 19.9798 1.08029 19.9405C1.17508 19.9013 1.26121 19.8437 1.33376 19.7712L9.99938 11.1055L18.665 19.7712C18.8115 19.9177 19.0102 20 19.2175 20C19.4247 20 19.6234 19.9177 19.7699 19.7712C19.9164 19.6246 19.9988 19.4259 19.9988 19.2187C19.9988 19.0115 19.9164 18.8128 19.7699 18.6662L11.1043 9.99938Z" fill="#2A272E"/>
</svg>
